<svg width="28" height="18" viewBox="0 0 28 18" fill="none" xmlns="http://www.w3.org/2000/svg">
<path fill-rule="evenodd" clip-rule="evenodd" d="M0.719733 0H27.2803C27.6761 0 28 0.318879 27.9976 0.713908V17.2837C27.9976 17.6787 27.6761 17.9976 27.2779 17.9976H0.719733C0.321481 17.9976 0 17.6787 0 17.2837V0.713908C0 0.318879 0.321481 0 0.719733 0ZM6.80147 8.03622L6.88784 8.22422C6.95742 8.38128 7.11576 8.48598 7.2837 8.48837H7.84269C8.02022 8.48837 8.17616 8.38604 8.24574 8.2266L8.33211 8.04336V8.05288C8.33211 8.29323 8.52883 8.48837 8.77114 8.48837H9.4213C9.51247 8.48837 9.58924 8.45505 9.65881 8.40746C9.72839 8.45505 9.80516 8.48837 9.89633 8.48837H12.0195C12.1011 8.48837 12.1731 8.45981 12.2379 8.41935C12.305 8.45981 12.377 8.48837 12.4586 8.48837H13.0943C13.3366 8.48837 13.5358 8.29085 13.5358 8.05288V7.52935H13.7757C13.8333 7.52935 13.8716 7.52935 13.9004 7.53173C13.9028 7.57694 13.9028 7.6293 13.9028 7.66499V7.72448L13.9052 8.05764C13.9052 8.29561 14.102 8.49074 14.3443 8.49074H14.9848C15.0568 8.49074 15.1216 8.46695 15.184 8.43601C15.2439 8.46695 15.3111 8.49074 15.3831 8.49074H16.0308C16.2444 8.49074 16.4123 8.33607 16.4531 8.13855C16.813 8.43839 17.3216 8.49074 17.6047 8.49074H18.3484C18.5259 8.49074 18.6891 8.38128 18.7538 8.21708L18.8834 7.90058H19.6175L19.7519 8.21946C19.8214 8.38128 19.9822 8.48599 20.1573 8.48599H21.4528C21.6927 8.48599 21.8919 8.29085 21.8919 8.0505V7.63644L22.2829 8.27657C22.3621 8.40746 22.506 8.48599 22.6596 8.48599H23.5617C23.8016 8.48599 24.0007 8.29085 24.0007 8.0505V5.41142C24.0007 5.17107 23.804 4.97594 23.5617 4.97594H22.9115C22.6692 4.97594 22.4701 5.17107 22.4701 5.41142V5.68271L22.1678 5.18535C22.0886 5.05447 21.9447 4.97594 21.7935 4.97594H20.8243C20.5796 4.97594 20.3828 5.17107 20.3828 5.41142V5.78265L20.1501 5.24008C20.0805 5.08065 19.9198 4.97594 19.7471 4.97594H18.7946C18.6963 4.97594 18.6051 5.00687 18.5307 5.06399C18.4587 5.00687 18.3652 4.97594 18.2668 4.97594H17.6526C17.132 4.97594 16.7434 5.10206 16.4603 5.34717C16.4267 5.13776 16.254 4.97594 16.0356 4.97594H15.3855C15.2128 4.97594 15.0664 5.07827 14.9968 5.22105C14.9863 5.21322 14.9768 5.2054 14.9673 5.19769C14.951 5.1843 14.9351 5.17126 14.9153 5.15917C14.6154 4.99022 14.3035 4.97594 13.9268 4.97594H12.4634C12.3818 4.97594 12.3098 5.00449 12.2451 5.04257C12.1827 5.00449 12.1059 4.97594 12.0267 4.97594H9.90112C9.80996 4.97594 9.73319 5.00925 9.66361 5.05447C9.59404 5.00925 9.51727 4.97594 9.4261 4.97594H8.36809C8.19296 4.97594 8.03222 5.08065 7.96504 5.24246L7.58598 6.12533L7.17094 5.22819C7.09896 5.07351 6.94302 4.97356 6.77269 4.97356H5.73387C5.48916 4.97356 5.29243 5.16869 5.29243 5.40904V5.78741L5.05492 5.2377C4.98535 5.07589 4.82701 4.97356 4.65187 4.97356H3.70662C3.53149 4.97356 3.37075 5.07589 3.30357 5.2377L2.164 7.87678C2.10402 8.01243 2.12081 8.16473 2.19998 8.28847C2.27915 8.41222 2.4207 8.48361 2.56705 8.48361H3.25559C3.43073 8.48361 3.59147 8.3789 3.65864 8.21708L3.79299 7.89344H4.53192L4.66387 8.21232C4.73104 8.37652 4.89178 8.48123 5.06932 8.48123H6.36244C6.60475 8.48123 6.80147 8.28609 6.80147 8.04574V8.03622ZM23.197 13.0264H24.4373C25.337 13.0264 25.872 12.5529 25.8744 11.7581C25.8744 11.3892 25.776 11.1155 25.5601 10.8919L25.5576 10.8896L25.5551 10.8875C25.5522 10.8851 25.5497 10.883 25.5481 10.88C25.6705 10.8038 25.7472 10.6682 25.7472 10.5135V9.95188C25.7472 9.71153 25.5505 9.51401 25.3082 9.51401H24.0343C23.636 9.51401 23.3361 9.63062 23.1202 9.80672C23.0578 9.63776 22.9019 9.51401 22.71 9.51401H21.436C21.0858 9.51401 20.8051 9.60206 20.5964 9.74246C20.522 9.6092 20.3852 9.51401 20.2197 9.51401H18.0965C17.9261 9.51401 17.7822 9.61396 17.7102 9.75436C17.6974 9.74553 17.6861 9.73628 17.675 9.72714L17.675 9.72713L17.675 9.72711L17.6749 9.7271L17.6749 9.72709L17.6749 9.72708L17.6749 9.72707L17.6749 9.72706L17.6749 9.72704L17.6748 9.72701C17.6591 9.71403 17.6435 9.70125 17.6239 9.69011C17.3168 9.52591 16.9881 9.51401 16.6522 9.51401H15.184C15.0088 9.51401 14.8649 9.61396 14.7929 9.75674C14.5698 9.61396 14.2579 9.51401 13.8117 9.51401H11.7796C11.6597 9.51401 11.5421 9.56399 11.4605 9.65442L10.9783 10.1684L10.5153 9.65917C10.4313 9.56875 10.3138 9.51401 10.189 9.51401H7.62917C7.38926 9.51401 7.19013 9.70915 7.19013 9.95188V12.5933C7.19013 12.8337 7.38686 13.0288 7.62917 13.0288H10.1458C10.2682 13.0288 10.3881 12.9788 10.4697 12.8908L10.9543 12.3673L11.4126 12.8837C11.4965 12.9741 11.6165 13.0288 11.7412 13.0288H12.9768C13.2191 13.0288 13.4158 12.8337 13.4158 12.5933V12.1436H13.7685C14.2003 12.1436 14.5098 12.0555 14.7377 11.9223V12.5933C14.7377 12.8337 14.9345 13.0288 15.1768 13.0288H15.8149C16.0572 13.0288 16.254 12.8337 16.254 12.5933V12.0627H16.4939C16.5539 12.0627 16.5946 12.065 16.6234 12.0674C16.6258 12.1126 16.6258 12.1721 16.6258 12.2078V12.591C16.6258 12.8313 16.8226 13.0264 17.0649 13.0264H17.703C17.775 13.0264 17.8374 13.0074 17.8974 12.9788C17.9573 13.005 18.0221 13.0264 18.0941 13.0264H20.2149C20.2845 13.0264 20.3492 13.0074 20.4068 12.9812C20.4668 13.005 20.5292 13.0264 20.5988 13.0264H21.8391C22.2349 13.0264 22.5516 12.9313 22.7939 12.7599C22.8611 12.917 23.0171 13.0264 23.197 13.0264ZM15.0162 6.12071C15.0162 6.54191 14.7355 6.75847 14.5675 6.82272C14.7067 6.87745 14.829 6.96788 14.8818 7.04641C14.9706 7.17729 14.9874 7.29628 14.9874 7.53187V8.05064H14.3468L14.3444 7.71748L14.3447 7.66933C14.346 7.51471 14.3476 7.31737 14.2437 7.20347C14.1501 7.11304 14.0085 7.09162 13.7782 7.09162H13.0969V8.05064H12.4611V5.40918H13.9222C14.2484 5.40918 14.4884 5.41632 14.6947 5.5353C14.8938 5.65429 15.0162 5.82563 15.0162 6.12071ZM13.8718 6.54667C13.9941 6.54667 14.0973 6.54429 14.1861 6.48956C14.2676 6.44911 14.318 6.3563 14.318 6.23969C14.318 6.12547 14.2652 6.04456 14.1837 6.00648C14.1093 5.96365 13.9917 5.95889 13.8838 5.95889H13.0993V6.54667H13.8718ZM16.0355 5.40918H15.3877V8.05064H16.0355V5.40918ZM22.9116 7.24868V5.40918H23.5641V8.05064H22.6621L21.4553 6.06835V8.05064H20.1598L19.9127 7.46285H18.5908L18.3509 8.05064H17.6071C17.2977 8.05064 16.9042 7.98163 16.6859 7.75794C16.4604 7.53187 16.3452 7.22727 16.3452 6.74895C16.3452 6.3563 16.4148 5.99934 16.6859 5.71616C16.8946 5.50675 17.2161 5.40918 17.6527 5.40918H18.2693V5.97555H17.6647C17.432 5.97555 17.3001 6.01124 17.1753 6.13261C17.0673 6.24683 16.993 6.45387 16.993 6.73229C16.993 7.01309 17.0457 7.21775 17.1681 7.34863C17.2665 7.45334 17.444 7.48665 17.6095 7.48665H17.895L18.7947 5.40918H19.7471L20.8243 7.90548V5.40918H21.7936L22.9116 7.24868ZM19.2577 5.85894L18.8211 6.91077H19.6992L19.2577 5.85894ZM17.6692 6.41113C17.5204 6.41113 17.5037 6.42779 17.4869 6.44445C17.4821 6.45159 17.4365 6.54678 17.4365 6.73001C17.4365 6.91325 17.4677 6.99892 17.4869 7.03699C17.5085 7.04413 17.5492 7.04889 17.6116 7.04889L17.8875 6.41113H17.6692ZM20.2175 9.95166V10.499V10.5014H18.7276V10.9797H20.1815V11.5175H18.7276V12.041L20.2175 12.0434V12.5907H18.0943V9.95166H20.2175ZM13.8116 9.95169H11.7795L10.971 10.8155L10.1889 9.95169H7.62905V12.5884H10.1481L10.9614 11.715L11.7459 12.5884H12.9815V11.7079H13.7732C14.3322 11.7079 14.8816 11.5556 14.8816 10.8203C14.884 10.0897 14.3178 9.94931 13.8116 9.95169ZM9.82664 12.0411H8.26482V11.5175H9.6611V10.9773H8.26482V10.499H9.85782L10.556 11.2653L9.82664 12.0411ZM12.3505 12.3528L11.3741 11.2748L12.3505 10.2349V12.3528ZM13.8044 11.1677H12.9839V10.4966H13.8116C14.0419 10.4966 14.2002 10.5894 14.2002 10.8203C14.2002 11.0487 14.0491 11.1677 13.8044 11.1677ZM17.7414 10.6612C17.7414 11.0848 17.4583 11.2966 17.2904 11.3632C17.4344 11.4155 17.5495 11.5107 17.6023 11.5821C17.6935 11.7082 17.7055 11.8296 17.7055 12.0628V12.5863H17.0673V12.2556L17.0676 12.2081C17.0689 12.0541 17.0706 11.851 16.9665 11.7392C16.8706 11.6464 16.7314 11.6249 16.4987 11.6249H15.8198V12.5863H15.1816V9.94727H16.6474C16.9713 9.94727 17.204 9.96392 17.4152 10.0734C17.6143 10.1948 17.7414 10.359 17.7414 10.6612ZM16.5947 11.0895C16.717 11.0895 16.8226 11.0848 16.9089 11.0348C16.9905 10.9872 17.0385 10.8944 17.0385 10.7802C17.0385 10.6683 16.9881 10.585 16.9065 10.5422C16.8298 10.4994 16.7146 10.497 16.6043 10.497H15.8198V11.0895H16.5947ZM22.6477 11.1966C22.5038 11.0538 22.2663 10.9943 21.9184 10.9872L21.5777 10.9777C21.4698 10.9777 21.3978 10.9705 21.3306 10.9467C21.249 10.9158 21.1915 10.8492 21.1915 10.7492C21.1915 10.6683 21.2178 10.6041 21.2874 10.5588C21.3522 10.516 21.4266 10.5089 21.5441 10.5089H22.7101V9.94727H21.4362C20.7692 9.94727 20.5269 10.3494 20.5269 10.7326C20.5269 11.5144 21.1806 11.5311 21.7502 11.5456L21.7503 11.5456L21.7505 11.5456C21.7893 11.5466 21.8278 11.5476 21.8656 11.5488C21.976 11.5488 22.0431 11.5678 22.0935 11.6083C22.1367 11.644 22.1679 11.7059 22.1679 11.782C22.1679 11.8534 22.1391 11.9129 22.0959 11.9533C22.0407 12.0057 21.9568 12.0176 21.8344 12.0176H20.6037V12.584H21.8392C22.4798 12.584 22.8396 12.3198 22.8396 11.7511C22.8372 11.4845 22.7701 11.3227 22.6477 11.1966ZM7.60294 7.19871L8.36585 5.40918H9.42146V8.04826H8.7713L8.7689 5.98031L7.84765 8.04826H7.28625L6.3626 5.98031V8.04826H5.06948L4.82717 7.46048H3.50286L3.25575 8.04826H2.56721L3.70438 5.40918H4.64723L5.73163 7.91024V5.40918H6.77045L7.60294 7.19871ZM4.16261 5.85894L3.73078 6.91077H4.59685L4.16261 5.85894ZM12.0222 5.95889V5.40918H9.89658V8.05064H12.0222V7.50331H10.5347V6.97502H11.9862V6.43483H10.5347V5.96127H12.0222V5.95889ZM24.519 10.9872C24.8621 10.9943 25.0996 11.0538 25.2436 11.1966C25.3707 11.3227 25.4355 11.4845 25.4355 11.7511C25.4355 12.3198 25.0804 12.584 24.4399 12.584H23.1995V12.0176H24.4375C24.555 12.0176 24.639 12.0057 24.6942 11.9533C24.7373 11.9129 24.7685 11.8534 24.7685 11.782C24.7685 11.7059 24.7349 11.644 24.6918 11.6083C24.6414 11.5678 24.5742 11.5488 24.4638 11.5488C24.4258 11.5476 24.3871 11.5466 24.3481 11.5456C23.7765 11.5311 23.1227 11.5144 23.1227 10.7326C23.1227 10.3494 23.3675 9.94727 24.032 9.94727H25.3083V10.5089H24.1424C24.0272 10.5089 23.9504 10.516 23.8881 10.5588C23.8161 10.6041 23.7921 10.6683 23.7921 10.7492C23.7921 10.8492 23.8521 10.9158 23.9288 10.9467C23.9984 10.9705 24.068 10.9777 24.1759 10.9777L24.519 10.9872Z" fill="#212529"/>
</svg>
