<svg width="12" height="12" viewBox="0 0 12 12" fill="none" xmlns="http://www.w3.org/2000/svg">
<path fill-rule="evenodd" clip-rule="evenodd" d="M0.554099 0.554237C0.721467 0.386869 0.992823 0.386869 1.16019 0.554237L6 5.39405L10.8398 0.554237C11.0072 0.386869 11.2785 0.386869 11.4459 0.554237C11.6133 0.721604 11.6133 0.992961 11.4459 1.16033L6.6061 6.00014L11.4459 10.84C11.6133 11.0073 11.6133 11.2787 11.4459 11.446C11.2785 11.6134 11.0072 11.6134 10.8398 11.446L6 6.60623L1.16019 11.446C0.992823 11.6134 0.721467 11.6134 0.554099 11.446C0.386732 11.2787 0.386732 11.0073 0.554099 10.84L5.39391 6.00014L0.554099 1.16033C0.386732 0.992961 0.386732 0.721604 0.554099 0.554237Z" fill="#D2D2D2"/>
</svg>
