<svg width="22" height="21" viewBox="0 0 22 21" fill="none" xmlns="http://www.w3.org/2000/svg">
<path fill-rule="evenodd" clip-rule="evenodd" d="M0.171875 6.93623L10.7722 0L21.5112 6.90974L21.5383 6.93623L8.85113 15.1855L6.64664 13.7576L16.8428 7.07755L10.6274 3.05006L7.76246 4.92543L9.85537 6.26498L4.58388 9.7331L0.171875 6.93623ZM16.9302 2.85573L21.3392 0.00292969V2.85573L19.1347 4.31011L16.9302 2.85573ZM4.5083 18.0032L2.3038 16.5488L0.0993061 18.0032V20.8531L4.5083 18.0032ZM21.3664 13.9138L10.7661 20.8471L0.0271416 13.9403L0 13.9109L12.6841 5.66455L14.8917 7.08948L4.69548 13.7725L10.9109 17.7971L13.7728 15.9246L11.6829 14.5851L16.9544 11.117L21.3664 13.9138Z" fill="#212529"/>
</svg>
