<svg width="18" height="15" viewBox="0 0 18 15" fill="none" xmlns="http://www.w3.org/2000/svg">
<path fill-rule="evenodd" clip-rule="evenodd" d="M0.6 0H0V13.4694H0.6V0ZM2.40016 0V13.4694H1.80016H1.20016V0H1.80016H2.40016ZM7.79997 13.4694V0H7.19998H6.59998V13.4694H7.19998H7.79997ZM12.8997 0V13.4694H12.2997H11.6997V0H12.2997H12.8997ZM14.7 13.4694V0H14.1H13.5V13.4694H14.1H14.7ZM3.59979 0H2.99979V13.4694H3.59979V0ZM8.40027 0H9.00027V13.4694H8.40027V0ZM9.90005 0H9.30005V13.4694H9.90005V0ZM10.5002 0H11.1002V13.4694H10.5002V0ZM5.99992 13.4694H5.39992H4.79992H4.19992V0H4.79992H5.39992H5.99992V13.4694ZM16.5003 13.4694H17.1003V0H16.5003H15.9003H15.3003V13.4694H15.9003H16.5003ZM18.0003 0H17.4003V13.4694H18.0003V0ZM0 14.3877H0.6V14.9999H0V14.3877ZM2.40016 14.3877H1.20016V14.9999H2.40016V14.3877ZM2.99979 14.3877H3.59979V14.9999H2.99979V14.3877ZM5.99992 14.3877H4.19992V14.9999H5.99992V14.3877ZM6.59998 14.3877H7.79997V14.9999H6.59998V14.3877ZM9.00027 14.3877H8.40027V14.9999H9.00027V14.3877ZM9.30005 14.3877H11.1V14.9999H9.30005V14.3877ZM12.8997 14.3877H11.6997V14.9999H12.8997V14.3877ZM13.5 14.3877H14.7V14.9999H13.5V14.3877ZM18.0003 14.3877H15.3003V14.9999H18.0003V14.3877Z" fill="#212529"/>
</svg>
