<svg width="24" height="24" viewBox="0 0 24 24" fill="none" xmlns="http://www.w3.org/2000/svg">
<g clip-path="url(#clip0)">
<path fill-rule="evenodd" clip-rule="evenodd" d="M0 4.79999V18.523C0 18.9319 0.248951 19.2996 0.628609 19.4514L12 24L23.3714 19.4514C23.751 19.2996 24 18.9319 24 18.523V4.79999L12.3714 0.14855C12.133 0.0531852 11.867 0.0531853 11.6286 0.14855L0 4.79999ZM16.3845 2.6154L12.0743 0.891331C12.0266 0.872258 11.9734 0.872258 11.9257 0.891331L1.61555 5.0154L12 9.16918L22.3845 5.0154L17.4615 3.04621L12.1486 5.17138C11.9434 5.25343 11.7107 5.15366 11.6286 4.94855C11.5466 4.74344 11.6463 4.51065 11.8514 4.4286L16.3845 2.6154ZM23.2 5.55081L12.4 9.87081V22.9784L23.0743 18.7087C23.1502 18.6783 23.2 18.6047 23.2 18.523V5.55081ZM11.6 9.87081L0.8 5.55081V18.523C0.8 18.6047 0.849791 18.6783 0.925721 18.7087L11.6 22.9784V9.87081Z" fill="#212529"/>
</g>
<defs>
<clipPath id="clip0">
<rect width="24" height="24" fill="white"/>
</clipPath>
</defs>
</svg>
