<svg width="30" height="25" viewBox="0 0 30 25" fill="none" xmlns="http://www.w3.org/2000/svg">
<path fill-rule="evenodd" clip-rule="evenodd" d="M11.3334 3.80573C12.4231 3.62008 13.5251 3.52726 14.5312 3.52726C19.6329 3.52726 23.6634 5.45795 23.6665 7.94867C23.6665 9.78345 21.5305 11.3026 18.7104 12.2278C18.5092 12.2927 18.3327 12.2401 18.2801 12.0823C18.2244 11.9122 18.2646 11.7915 18.6546 11.6213C20.2675 10.9097 21.6234 9.83914 21.6234 8.7686C21.6234 6.65536 17.4969 5.04335 12.6088 5.04335C11.8566 5.04335 11.1725 5.08357 10.5409 5.13617C10.2314 5.83852 10.0704 6.61823 10.0704 7.42268C10.0704 9.01922 10.7391 10.6312 11.9495 11.7141C12.1104 11.8596 12.1259 11.9926 12.0176 12.138C11.9092 12.2835 11.7482 12.2835 11.5594 12.1659C9.65248 10.9654 8.41732 8.77169 8.46994 6.46043C8.46994 6.10461 8.51019 5.76117 8.57829 5.43011C7.94678 5.56315 7.34312 5.70857 6.75185 5.87875C6.56302 5.93135 6.42991 5.87875 6.3618 5.73333C6.29679 5.57553 6.3618 5.44248 6.55064 5.33729C7.23478 4.95362 8.01488 4.63493 8.86 4.37194C9.7856 1.86266 12.2188 0.0526322 15.0792 3.32133e-05C17.2709 -0.0370955 19.1252 0.953004 20.3851 2.41959C20.5337 2.59286 20.5461 2.72281 20.413 2.85585C20.2799 2.9858 20.1437 2.97342 19.9703 2.828C19.0045 2.02355 17.565 1.48209 16.1286 1.48209C14.1814 1.48209 12.4355 2.39174 11.3334 3.80573ZM1.10824 20.953C1.30327 20.854 1.61593 20.7828 1.93788 20.7828C3.15447 20.7828 3.74574 21.5687 3.74265 22.8342C3.74265 24.1121 2.91301 24.997 1.46425 24.997C0.894644 24.997 0.294087 24.8887 0 24.7649V19.8701C0 19.703 0.0433392 19.5854 0.188835 19.471C0.464348 19.2451 0.795583 19.0873 1.10824 18.9697V20.953ZM1.52924 24.0966H1.52925C2.25054 24.0966 2.60035 23.5706 2.60035 22.8125C2.60035 22.0885 2.30626 21.7049 1.75214 21.7049C1.47353 21.7049 1.25993 21.7482 1.10824 21.8286V24.0533C1.23516 24.0966 1.4116 24.0966 1.52924 24.0966ZM8.61502 20.7642C8.17854 20.755 7.79158 20.8076 7.41701 20.8973C7.34581 21.1479 7.35509 21.513 7.41701 21.7729C7.88135 21.6646 8.14139 21.6553 8.43548 21.6553C9.00817 21.6553 9.28369 21.8874 9.28369 22.3608V22.4041C9.11343 22.3855 8.90911 22.367 8.76671 22.367C7.81944 22.367 7.00528 22.7073 7.00528 23.617C7.00528 24.6442 7.73895 24.9938 8.80076 24.9938C9.30226 24.9938 9.8471 24.9041 10.3455 24.7525V22.4381C10.3486 21.3366 9.75113 20.7921 8.61502 20.7642ZM9.28369 24.0873C9.22177 24.1058 8.94316 24.1306 8.81005 24.1306C8.29927 24.1306 8.02375 23.979 8.02375 23.6201C8.02375 23.2611 8.29927 23.1188 8.81005 23.1188C8.96414 23.1188 9.1385 23.134 9.25055 23.1438L9.28369 23.1467V24.0873ZM6.56924 20.8169C6.04297 20.8169 5.7396 21.0211 5.45171 21.3893C5.42384 21.2006 5.38979 21.049 5.32788 20.8633C5.21953 20.8262 5.03379 20.82 4.87282 20.82C4.72113 20.82 4.52301 20.8386 4.42704 20.8633V24.9103C4.56016 24.9475 4.78304 24.9537 4.98117 24.9537C5.17 24.9537 5.41765 24.9351 5.53529 24.9103V22.9363C5.53529 22.1504 5.94701 21.7296 6.50113 21.7296C6.60019 21.7296 6.77045 21.7296 6.86642 21.7482C6.92833 21.4883 6.93762 21.1139 6.88499 20.854C6.81998 20.8355 6.65901 20.8169 6.56924 20.8169ZM13.5743 19.8701V20.8447C13.3762 20.7921 13.1719 20.7828 12.9923 20.7828C11.7665 20.7828 10.9368 21.6059 10.9368 22.9177C10.9368 24.2575 11.751 25 13.0202 25C13.6022 25 14.1718 24.9196 14.6826 24.7494V18.9697C14.3699 19.0873 14.0387 19.2451 13.7632 19.471C13.6208 19.5854 13.5743 19.703 13.5743 19.8701ZM13.5743 24.0347C13.3855 24.0873 13.2524 24.0966 13.1007 24.0966C12.367 24.0966 12.0822 23.6139 12.0822 22.9177C12.0822 22.1411 12.367 21.6677 13.0914 21.6677C13.305 21.6677 13.4412 21.6956 13.5743 21.7296V24.0347ZM21.0567 22.3172L21.5024 22.5059C22.1371 22.7751 22.4219 23.0876 22.4219 23.7498C22.4219 24.5542 21.7408 24.9998 20.8926 24.9998C20.3663 24.9998 19.8648 24.9379 19.4996 24.7399C19.4284 24.4707 19.4284 24.1334 19.4996 23.8735C19.9299 24.0251 20.2704 24.1149 20.7162 24.1149C20.9855 24.1149 21.3074 24.0623 21.3074 23.7405C21.3074 23.5239 21.2084 23.4434 20.8771 23.3104L20.5273 23.1681C19.7782 22.8649 19.5088 22.5524 19.5088 21.9274C19.5088 21.2312 20.162 20.7671 21.0195 20.7671C21.4591 20.7671 21.9575 20.8383 22.2268 20.9806C22.2795 21.2374 22.2795 21.5159 22.2268 21.8098C21.7965 21.6767 21.4839 21.6396 21.1805 21.6396C20.8771 21.6396 20.645 21.6922 20.645 21.9521C20.645 22.1192 20.7966 22.2089 21.0567 22.3172ZM24.9508 24.0872C24.3967 24.0872 24.0314 23.6509 24.0314 22.8805C24.0314 22.1472 24.3255 21.6738 24.9601 21.6738C25.2294 21.6738 25.4152 21.7171 25.6659 21.8161C25.7371 21.5655 25.8702 21.2809 26.0591 21.0395C25.7092 20.8601 25.3718 20.7642 24.8177 20.7642C23.5918 20.7642 22.886 21.6305 22.886 22.8805C22.886 24.1769 23.6104 24.9968 24.861 24.9968C25.3161 24.9968 25.7371 24.9164 26.0776 24.7276C25.9259 24.5296 25.7557 24.2635 25.6566 23.951C25.344 24.0779 25.2108 24.0872 24.9508 24.0872ZM26.1151 22.8898C26.1151 21.6119 26.8117 20.7642 28.053 20.7642C29.3037 20.7642 30.0002 21.6027 30.0002 22.8898C30.0002 24.1676 29.3037 24.9968 28.053 24.9968C26.8488 24.9968 26.1151 24.1862 26.1151 22.8898ZM27.2481 22.8898C27.2481 23.6045 27.437 24.1057 28.053 24.1057C28.6598 24.1057 28.8672 23.6416 28.8672 22.8898C28.8672 22.1751 28.6876 21.6583 28.053 21.6583C27.437 21.6583 27.2481 22.1936 27.2481 22.8898ZM17.2398 20.7642C16.0418 20.7642 15.3081 21.5686 15.3081 22.9083C15.3081 24.2481 16.0851 24.9999 17.4163 24.9999C17.8713 24.9999 18.3635 24.9195 18.6762 24.7679C18.7381 24.508 18.7381 24.1707 18.6762 23.9108C18.2645 24.0284 17.9178 24.0996 17.5308 24.0996C16.9148 24.0996 16.4845 23.8675 16.3947 23.2147H18.9146C18.9517 23.1156 18.9579 22.7846 18.9579 22.6515C18.9641 21.4449 18.2862 20.7642 17.2398 20.7642ZM16.3978 22.3978C16.4783 21.9059 16.7724 21.6119 17.2213 21.6119C17.7227 21.6119 17.9178 21.9523 17.9363 22.3978H16.3978ZM16.8649 16.225V10.8785C16.8649 10.6743 16.6668 10.6 16.5027 10.6928L15.1437 11.4756V16.4849L16.6049 16.488C16.7473 16.4849 16.8649 16.3704 16.8649 16.225ZM13.4877 16.3181V12.6207C13.4877 12.4815 13.5527 12.3887 13.658 12.3268L14.6857 11.7358V16.4852H13.6549C13.562 16.4852 13.4877 16.411 13.4877 16.3181Z" fill="#212529"/>
</svg>
