<svg width="24" height="24" viewBox="0 0 24 24" fill="none" xmlns="http://www.w3.org/2000/svg">
<path fill-rule="evenodd" clip-rule="evenodd" d="M2.6087 4.04348C1.74425 4.04348 1.04348 4.74425 1.04348 5.6087V9.26087H22.9565V5.6087C22.9565 4.74425 22.2558 4.04348 21.3913 4.04348H2.6087ZM24 5.6087C24 4.16795 22.832 3 21.3913 3H2.6087C1.16795 3 0 4.16795 0 5.6087V18.1304C0 19.5712 1.16795 20.7391 2.6087 20.7391H21.3913C22.832 20.7391 24 19.5712 24 18.1304V5.6087ZM22.9565 10.3043H1.04348V18.1304C1.04348 18.9949 1.74425 19.6957 2.6087 19.6957H21.3913C22.2558 19.6957 22.9565 18.9949 22.9565 18.1304V10.3043Z" fill="#212529"/>
</svg>
