<svg width="32" height="28" viewBox="0 0 32 28" fill="none" xmlns="http://www.w3.org/2000/svg">
<path fill-rule="evenodd" clip-rule="evenodd" d="M0 4.52174C0 4.23359 0.233591 4 0.521739 4H4.69565C4.94433 4 5.15844 4.17551 5.20724 4.41934L6.16757 9.21739H23.4783C23.6338 9.21739 23.7811 9.28674 23.8803 9.40655C23.9794 9.52636 24.0199 9.68413 23.9908 9.83687L22.3212 18.5916L22.3204 18.5956C22.2012 19.1961 21.8745 19.7355 21.3976 20.1194C20.922 20.5022 20.3273 20.7061 19.717 20.6957H9.58386C8.97357 20.7061 8.37887 20.5022 7.90332 20.1194C7.42651 19.7356 7.09986 19.1963 6.98051 18.596C6.98049 18.5958 6.98054 18.5961 6.98051 18.596L5.23427 9.87127C5.22927 9.8521 5.22533 9.8325 5.22251 9.81254L4.26799 5.04348H0.521739C0.233591 5.04348 0 4.80989 0 4.52174ZM6.37642 10.2609L8.00377 18.3915C8.07533 18.7518 8.27149 19.0762 8.55765 19.3066C8.8438 19.5369 9.20185 19.6593 9.56913 19.6523L9.57913 19.6521L19.7317 19.6522C20.099 19.6592 20.4571 19.5369 20.7432 19.3066C21.0289 19.0766 21.2247 18.7536 21.2966 18.394C21.2967 18.3934 21.2968 18.3929 21.297 18.3923L22.8476 10.2609H6.37642ZM8.86956 24.8696C8.58142 24.8696 8.34783 25.1032 8.34783 25.3913C8.34783 25.6794 8.58142 25.913 8.86956 25.913C9.15771 25.913 9.3913 25.6794 9.3913 25.3913C9.3913 25.1032 9.15771 24.8696 8.86956 24.8696ZM7.30435 25.3913C7.30435 24.5269 8.00512 23.8261 8.86956 23.8261C9.73401 23.8261 10.4348 24.5269 10.4348 25.3913C10.4348 26.2557 9.73401 26.9565 8.86956 26.9565C8.00512 26.9565 7.30435 26.2557 7.30435 25.3913ZM20.3478 24.8696C20.0597 24.8696 19.8261 25.1032 19.8261 25.3913C19.8261 25.6794 20.0597 25.913 20.3478 25.913C20.636 25.913 20.8696 25.6794 20.8696 25.3913C20.8696 25.1032 20.636 24.8696 20.3478 24.8696ZM18.7826 25.3913C18.7826 24.5269 19.4834 23.8261 20.3478 23.8261C21.2123 23.8261 21.913 24.5269 21.913 25.3913C21.913 26.2557 21.2123 26.9565 20.3478 26.9565C19.4834 26.9565 18.7826 26.2557 18.7826 25.3913Z" fill="#58006D"/>
<circle cx="24.5" cy="7.5" r="7.5" fill="url(#paint0_linear)"/>
<path d="M26.5171 8.271C26.5171 9.22314 26.3545 9.93066 26.0293 10.3936C25.7041 10.8564 25.1958 11.0879 24.5044 11.0879C23.8218 11.0879 23.3164 10.8623 22.9883 10.4111C22.6602 9.95703 22.4902 9.28027 22.4785 8.38086V7.29541C22.4785 6.35498 22.6411 5.65625 22.9663 5.19922C23.2915 4.74219 23.8013 4.51367 24.4956 4.51367C25.1841 4.51367 25.6909 4.73486 26.0161 5.17725C26.3413 5.6167 26.5083 6.29639 26.5171 7.21631V8.271ZM25.7041 7.15918C25.7041 6.4707 25.6074 5.96973 25.4141 5.65625C25.2207 5.33984 24.9146 5.18164 24.4956 5.18164C24.0796 5.18164 23.7764 5.33838 23.5859 5.65186C23.3955 5.96533 23.2974 6.44727 23.2915 7.09766V8.39844C23.2915 9.08984 23.3911 9.60107 23.5903 9.93213C23.7925 10.2603 24.0972 10.4243 24.5044 10.4243C24.9058 10.4243 25.2031 10.269 25.3965 9.9585C25.5928 9.64795 25.6953 9.15869 25.7041 8.49072V7.15918Z" fill="white"/>
<defs>
<linearGradient id="paint0_linear" x1="17" y1="0" x2="34.2922" y2="11.5758" gradientUnits="userSpaceOnUse">
<stop stop-color="#166D00"/>
<stop offset="1" stop-color="#64BE4D"/>
</linearGradient>
</defs>
</svg>
