<svg width="24" height="24" viewBox="0 0 24 24" fill="none" xmlns="http://www.w3.org/2000/svg">
<path fill-rule="evenodd" clip-rule="evenodd" d="M0 0.521739C0 0.233591 0.233591 0 0.521739 0H4.69565C4.94433 0 5.15844 0.175505 5.20724 0.419344L6.16757 5.21739H23.4783C23.6338 5.21739 23.7811 5.28674 23.8803 5.40655C23.9794 5.52636 24.0199 5.68413 23.9908 5.83687L22.3212 14.5916L22.3204 14.5956C22.2012 15.1961 21.8745 15.7355 21.3976 16.1194C20.922 16.5022 20.3273 16.7061 19.717 16.6957H9.58386C8.97357 16.7061 8.37887 16.5022 7.90332 16.1194C7.42651 15.7356 7.09986 15.1963 6.98051 14.596C6.98049 14.5958 6.98054 14.5961 6.98051 14.596L5.23427 5.87127C5.22927 5.8521 5.22533 5.8325 5.22251 5.81254L4.26799 1.04348H0.521739C0.233591 1.04348 0 0.809888 0 0.521739ZM6.37642 6.26087L8.00377 14.3915C8.07533 14.7518 8.27149 15.0762 8.55765 15.3066C8.8438 15.5369 9.20185 15.6593 9.56913 15.6523L9.57913 15.6521L19.7317 15.6522C20.099 15.6592 20.4571 15.5369 20.7432 15.3066C21.0289 15.0766 21.2247 14.7536 21.2966 14.394C21.2967 14.3934 21.2968 14.3929 21.297 14.3923L22.8476 6.26087H6.37642ZM8.86956 20.8696C8.58142 20.8696 8.34783 21.1032 8.34783 21.3913C8.34783 21.6794 8.58142 21.913 8.86956 21.913C9.15771 21.913 9.3913 21.6794 9.3913 21.3913C9.3913 21.1032 9.15771 20.8696 8.86956 20.8696ZM7.30435 21.3913C7.30435 20.5269 8.00512 19.8261 8.86956 19.8261C9.73401 19.8261 10.4348 20.5269 10.4348 21.3913C10.4348 22.2557 9.73401 22.9565 8.86956 22.9565C8.00512 22.9565 7.30435 22.2557 7.30435 21.3913ZM20.3478 20.8696C20.0597 20.8696 19.8261 21.1032 19.8261 21.3913C19.8261 21.6794 20.0597 21.913 20.3478 21.913C20.636 21.913 20.8696 21.6794 20.8696 21.3913C20.8696 21.1032 20.636 20.8696 20.3478 20.8696ZM18.7826 21.3913C18.7826 20.5269 19.4834 19.8261 20.3478 19.8261C21.2123 19.8261 21.913 20.5269 21.913 21.3913C21.913 22.2557 21.2123 22.9565 20.3478 22.9565C19.4834 22.9565 18.7826 22.2557 18.7826 21.3913Z" fill="#212529"/>
</svg>
