<svg width="24" height="24" viewBox="0 0 24 24" fill="none" xmlns="http://www.w3.org/2000/svg">
<path fill-rule="evenodd" clip-rule="evenodd" d="M2.2253 3.2253C2.52571 2.9249 3.01276 2.9249 3.31316 3.2253L12 11.9121L20.6868 3.2253C20.9872 2.9249 21.4743 2.9249 21.7747 3.2253C22.0751 3.52571 22.0751 4.01276 21.7747 4.31316L13.0879 13L21.7747 21.6868C22.0751 21.9872 22.0751 22.4743 21.7747 22.7747C21.4743 23.0751 20.9872 23.0751 20.6868 22.7747L12 14.0879L3.31316 22.7747C3.01276 23.0751 2.52571 23.0751 2.2253 22.7747C1.9249 22.4743 1.9249 21.9872 2.2253 21.6868L10.9121 13L2.2253 4.31316C1.9249 4.01276 1.9249 3.52571 2.2253 3.2253Z" fill="#212529"/>
</svg>
