<svg width="10" height="10" viewBox="0 0 10 10" fill="none" xmlns="http://www.w3.org/2000/svg">
<path fill-rule="evenodd" clip-rule="evenodd" d="M0.308341 0.308096C0.452534 0.163903 0.686318 0.163903 0.830512 0.308096L5.0002 4.47778L9.16988 0.308096C9.31407 0.163903 9.54786 0.163903 9.69205 0.308096C9.83624 0.45229 9.83624 0.686074 9.69205 0.830268L5.52237 4.99995L9.69205 9.16963C9.83624 9.31383 9.83624 9.54761 9.69205 9.69181C9.54786 9.836 9.31407 9.836 9.16988 9.69181L5.0002 5.52212L0.830512 9.69181C0.686318 9.836 0.452534 9.836 0.308341 9.69181C0.164147 9.54761 0.164147 9.31383 0.308341 9.16963L4.47802 4.99995L0.308341 0.830268C0.164147 0.686074 0.164147 0.45229 0.308341 0.308096Z" fill="#FAFAFA"/>
</svg>
