<svg width="24" height="24" viewBox="0 0 24 24" fill="none" xmlns="http://www.w3.org/2000/svg">
<path fill-rule="evenodd" clip-rule="evenodd" d="M11.4877 5.07905C11.2353 6.79636 9.75582 8.11462 7.96841 8.11462C6.181 8.11462 4.70149 6.79636 4.44909 5.07905H0.616612C0.276073 5.07905 1.11587e-05 4.80299 1.11587e-05 4.46245C1.11587e-05 4.12191 0.276073 3.84585 0.616612 3.84585H4.48226C4.81186 2.22212 6.24741 1 7.96841 1C9.68941 1 11.125 2.22212 11.4546 3.84585H23.3834C23.7239 3.84585 24 4.12191 24 4.46245C24 4.80299 23.7239 5.07905 23.3834 5.07905H11.4877ZM10.2925 4.55731C10.2925 5.84088 9.25198 6.88142 7.96841 6.88142C6.68484 6.88142 5.6443 5.84088 5.6443 4.55731C5.6443 3.27374 6.68484 2.2332 7.96841 2.2332C9.25198 2.2332 10.2925 3.27374 10.2925 4.55731Z" fill="#212529"/>
<path fill-rule="evenodd" clip-rule="evenodd" d="M12.5123 11.6245C12.7647 9.90719 14.2442 8.58893 16.0316 8.58893C17.819 8.58893 19.2985 9.90719 19.5509 11.6245H23.3834C23.7239 11.6245 24 11.9006 24 12.2411C24 12.5816 23.7239 12.8577 23.3834 12.8577H19.5177C19.1881 14.4814 17.7526 15.7036 16.0316 15.7036C14.3106 15.7036 12.875 14.4814 12.5454 12.8577L0.6166 12.8577C0.27606 12.8577 2.97713e-08 12.5816 0 12.2411C-2.97704e-08 11.9006 0.27606 11.6245 0.6166 11.6245L12.5123 11.6245ZM13.7075 12.1462C13.7075 10.8627 14.748 9.82213 16.0316 9.82213C17.3152 9.82213 18.3557 10.8627 18.3557 12.1462C18.3557 13.4298 17.3152 14.4704 16.0316 14.4704C14.748 14.4704 13.7075 13.4298 13.7075 12.1462Z" fill="#212529"/>
<path fill-rule="evenodd" clip-rule="evenodd" d="M7.96841 23.2925C9.75582 23.2925 11.2353 21.9742 11.4877 20.2569L23.3834 20.2569C23.7239 20.2569 24 19.9808 24 19.6403C24 19.2998 23.7239 19.0237 23.3834 19.0237H11.4546C11.125 17.4 9.68941 16.1779 7.96841 16.1779C6.24741 16.1779 4.81186 17.4 4.48226 19.0237H0.616612C0.276073 19.0237 1.11587e-05 19.2998 1.11587e-05 19.6403C1.11587e-05 19.9808 0.276073 20.2569 0.616612 20.2569H4.44909C4.70149 21.9742 6.181 23.2925 7.96841 23.2925ZM7.96841 22.0593C9.25198 22.0593 10.2925 21.0187 10.2925 19.7352C10.2925 18.4516 9.25198 17.4111 7.96841 17.4111C6.68484 17.4111 5.6443 18.4516 5.6443 19.7352C5.6443 21.0187 6.68484 22.0593 7.96841 22.0593Z" fill="#212529"/>
</svg>
