<svg width="24" height="24" viewBox="0 0 24 24" fill="none" xmlns="http://www.w3.org/2000/svg">
<path d="M21.3617 3.40426H16.894V2.34043C16.8933 1.71992 16.6465 1.12503 16.2078 0.686272C15.769 0.24751 15.1741 0.000703918 14.5536 0H9.44723C8.82673 0.000703918 8.23184 0.24751 7.79308 0.686272C7.35432 1.12503 7.10751 1.71992 7.10681 2.34043V3.40426H2.6383C2.46901 3.40426 2.30666 3.4715 2.18695 3.59121C2.06725 3.71091 2 3.87327 2 4.04255C2 4.21184 2.06725 4.37419 2.18695 4.4939C2.30666 4.6136 2.46901 4.68085 2.6383 4.68085H3.70213V22.4823C3.70258 22.8771 3.85964 23.2557 4.13885 23.5349C4.41806 23.8141 4.79662 23.9712 5.19149 23.9716H18.8085C19.2034 23.9712 19.5819 23.8141 19.8612 23.5349C20.1404 23.2557 20.2974 22.8771 20.2979 22.4823V4.68085H21.3617C21.531 4.68085 21.6933 4.6136 21.813 4.4939C21.9328 4.37419 22 4.21184 22 4.04255C22 3.87327 21.9328 3.71091 21.813 3.59121C21.6933 3.4715 21.531 3.40426 21.3617 3.40426ZM8.3834 2.34043C8.38371 2.05838 8.4959 1.78797 8.69533 1.58853C8.89477 1.38909 9.16518 1.27691 9.44723 1.2766H14.5536C14.8357 1.27691 15.1061 1.38909 15.3055 1.58853C15.505 1.78797 15.6171 2.05838 15.6174 2.34043V3.40426H8.3834V2.34043ZM19.0213 22.4823C19.0212 22.5387 18.9988 22.5928 18.9589 22.6327C18.919 22.6725 18.8649 22.695 18.8085 22.695H5.19149C5.13508 22.695 5.08099 22.6725 5.0411 22.6327C5.00121 22.5928 4.97878 22.5387 4.97872 22.4823V4.68085H19.0213V22.4823ZM10.0855 9.14894V18.227C10.0855 18.3962 10.0183 18.5586 9.89858 18.6783C9.77888 18.798 9.61652 18.8652 9.44723 18.8652C9.27795 18.8652 9.11559 18.798 8.99589 18.6783C8.87619 18.5586 8.80894 18.3962 8.80894 18.227V9.14894C8.80894 8.97965 8.87619 8.8173 8.99589 8.69759C9.11559 8.57789 9.27795 8.51064 9.44723 8.51064C9.61652 8.51064 9.77888 8.57789 9.89858 8.69759C10.0183 8.8173 10.0855 8.97965 10.0855 9.14894ZM15.1919 9.14894V18.227C15.1919 18.3962 15.1247 18.5586 15.005 18.6783C14.8853 18.798 14.7229 18.8652 14.5536 18.8652C14.3843 18.8652 14.222 18.798 14.1023 18.6783C13.9826 18.5586 13.9153 18.3962 13.9153 18.227V9.14894C13.9153 8.97965 13.9826 8.8173 14.1023 8.69759C14.222 8.57789 14.3843 8.51064 14.5536 8.51064C14.7229 8.51064 14.8853 8.57789 15.005 8.69759C15.1247 8.8173 15.1919 8.97965 15.1919 9.14894Z" fill="#212529"/>
</svg>
