<svg width="24" height="24" viewBox="0 0 24 24" fill="none" xmlns="http://www.w3.org/2000/svg">
<path fill-rule="evenodd" clip-rule="evenodd" d="M19.7202 1.71326C20.0606 1.37293 20.5222 1.18173 21.0035 1.18173C21.4848 1.18173 21.9464 1.37293 22.2867 1.71326C22.6271 2.0536 22.8183 2.5152 22.8183 2.99651C22.8183 3.47782 22.6271 3.93942 22.2867 4.27976L11.6291 14.9374L8.20713 15.7929L9.06263 12.3709L19.7202 1.71326ZM21.0035 0C20.2088 0 19.4466 0.315703 18.8846 0.877658L8.1113 11.651C8.03558 11.7267 7.98186 11.8216 7.95588 11.9255L6.82185 16.4616C6.77151 16.663 6.83051 16.876 6.97727 17.0227C7.12403 17.1695 7.33702 17.2285 7.53838 17.1782L12.0745 16.0441C12.1784 16.0181 12.2733 15.9644 12.349 15.8887L23.1223 5.11537C23.6843 4.55341 24 3.79124 24 2.99651C24 2.20179 23.6843 1.43961 23.1223 0.877658C22.5604 0.315703 21.7982 0 21.0035 0ZM2.85893 2.40539C2.1007 2.40539 1.37352 2.7066 0.837362 3.24276C0.301208 3.77891 0 4.50609 0 5.26433V21.1408C0 21.899 0.301208 22.6262 0.837362 23.1624C1.37352 23.6985 2.1007 23.9997 2.85893 23.9997H18.7354C19.4937 23.9997 20.2208 23.6985 20.757 23.1624C21.2931 22.6262 21.5943 21.899 21.5943 21.1408V13.2026C21.5943 12.8762 21.3298 12.6117 21.0035 12.6117C20.6772 12.6117 20.4126 12.8762 20.4126 13.2026V21.1408C20.4126 21.5856 20.2359 22.0122 19.9214 22.3268C19.6068 22.6413 19.1802 22.818 18.7354 22.818H2.85893C2.41411 22.818 1.98751 22.6413 1.67297 22.3268C1.35843 22.0122 1.18173 21.5856 1.18173 21.1408V5.26433C1.18173 4.8195 1.35843 4.3929 1.67297 4.07836C1.98751 3.76382 2.41411 3.58712 2.85893 3.58712H10.7972C11.1235 3.58712 11.388 3.32258 11.388 2.99626C11.388 2.66993 11.1235 2.40539 10.7972 2.40539H2.85893Z" fill="#212529"/>
</svg>
