<svg width="20" height="10" viewBox="0 0 20 10" fill="none" xmlns="http://www.w3.org/2000/svg">
<path fill-rule="evenodd" clip-rule="evenodd" d="M10.5988 0V7.87948L11.8179 8.37604L11.1248 10L9.77903 9.4363C9.47646 9.30553 9.27063 9.10408 9.11583 8.87613C8.9663 8.64464 8.85547 8.32656 8.85547 7.89892V0H10.5988ZM0.624235 8.01029C0.536277 7.86538 0.414894 7.63566 0.342768 7.46425C-0.0864694 6.46408 -0.10582 5.42856 0.25481 4.43545C0.652382 3.34515 1.4141 2.51108 2.39748 2.08698C3.63242 1.55331 4.99929 1.65757 6.18497 2.36441C6.9379 2.79735 7.47092 3.46708 7.87553 4.41424C7.90542 4.48567 7.93349 4.55952 7.96046 4.63046L7.96047 4.63049L7.96048 4.63051L7.96051 4.63061C7.97957 4.68072 7.99807 4.72939 8.01627 4.77473L0.624235 8.01029ZM3.09235 3.69327C2.21452 4.07143 1.76242 4.89843 1.85565 5.86856L5.57278 4.26051C4.93244 3.50596 4.10035 3.2568 3.09235 3.69327ZM6.03544 7.19035C6.03368 7.19035 6.03368 7.19212 6.03368 7.19212L5.95628 7.13911C5.73462 7.50136 5.38807 7.79293 4.95179 7.98378C4.12146 8.34603 3.35095 8.25414 2.79857 7.76643L2.74755 7.84418C2.74755 7.84418 2.74755 7.84241 2.74579 7.84241L1.80288 9.25962C2.03685 9.42396 2.28841 9.5618 2.55229 9.67136C3.59371 10.1061 4.65977 10.0866 5.70999 9.62718C6.46996 9.29673 7.06631 8.79311 7.47268 8.15342L6.03544 7.19035ZM14.5201 4.18962C14.054 4.59959 13.7584 5.2004 13.7584 5.8719C13.7584 6.54163 14.0504 7.14067 14.5149 7.55241L13.2659 8.95548C12.4179 8.19916 11.8831 7.0965 11.8849 5.87013C11.8867 4.642 12.4215 3.5411 13.2694 2.78831L14.5201 4.18962ZM15.9818 8.10909C15.7355 8.10909 15.498 8.06668 15.2764 7.99423L14.6783 9.77899C15.0864 9.91683 15.5244 9.99104 15.9783 9.99281C17.9591 9.99458 19.6145 8.58267 19.9962 6.70601L18.1597 6.32962C17.9521 7.34393 17.0549 8.10909 15.9818 8.10909ZM14.6875 1.96663C15.0956 1.83057 15.5336 1.75635 15.9875 1.75635C17.9701 1.75811 19.622 3.17533 20.0002 5.05375L18.1636 5.42837C17.9595 4.40876 17.0624 3.64007 15.9857 3.63831C15.7395 3.63831 15.502 3.67895 15.2803 3.75317L14.6875 1.96663Z" fill="#212529"/>
</svg>
