<svg width="24" height="24" viewBox="0 0 24 24" fill="none" xmlns="http://www.w3.org/2000/svg">
<path fill-rule="evenodd" clip-rule="evenodd" d="M0.945813 5.68965C0.945813 4.72656 1.72656 3.94581 2.68966 3.94581H21.3103C22.2734 3.94581 23.0542 4.72656 23.0542 5.68965V18.9901C23.0542 19.9532 22.2734 20.734 21.3103 20.734H2.68966C1.72656 20.734 0.945813 19.9532 0.945813 18.9901V5.68965ZM2.68966 3C1.2042 3 0 4.2042 0 5.68965V18.9901C0 20.4756 1.2042 21.6798 2.68966 21.6798H21.3103C22.7958 21.6798 24 20.4756 24 18.9901V5.68965C24 4.2042 22.7958 3 21.3103 3H2.68966ZM4.31004 6.64641C4.10388 6.48607 3.80676 6.52321 3.64641 6.72937C3.48607 6.93553 3.52321 7.23265 3.72937 7.39299L11.7097 13.5999C11.8804 13.7327 12.1196 13.7327 12.2903 13.5999L20.2706 7.39299C20.4768 7.23265 20.5139 6.93553 20.3536 6.72937C20.1932 6.52321 19.8961 6.48607 19.69 6.64641L12 12.6275L4.31004 6.64641Z" fill="#212529"/>
</svg>
