<svg width="24" height="24" viewBox="0 0 24 24" fill="none" xmlns="http://www.w3.org/2000/svg">
<path fill-rule="evenodd" clip-rule="evenodd" d="M3.15789 1.26316C2.65538 1.26316 2.17345 1.46278 1.81811 1.81811C1.46278 2.17345 1.26316 2.65538 1.26316 3.15789V20.8421C1.26316 21.3446 1.46278 21.8266 1.81811 22.1819C2.17345 22.5372 2.65538 22.7368 3.15789 22.7368H8.21053C8.55934 22.7368 8.8421 23.0196 8.8421 23.3684C8.8421 23.7172 8.55934 24 8.21053 24H3.15789C2.32037 24 1.51715 23.6673 0.924926 23.0751C0.332706 22.4829 0 21.6796 0 20.8421V3.15789C0 2.32037 0.332706 1.51715 0.924926 0.924926C1.51715 0.332706 2.32037 0 3.15789 0H8.21053C8.55934 0 8.8421 0.282768 8.8421 0.631579C8.8421 0.98039 8.55934 1.26316 8.21053 1.26316H3.15789ZM16.606 5.23762C16.8527 4.99097 17.2526 4.99097 17.4992 5.23762L23.815 11.5534C24.0617 11.8001 24.0617 12.1999 23.815 12.4466L17.4992 18.7624C17.2526 19.009 16.8527 19.009 16.606 18.7624C16.3594 18.5157 16.3594 18.1158 16.606 17.8692L21.8437 12.6316H8.21053C7.86171 12.6316 7.57895 12.3488 7.57895 12C7.57895 11.6512 7.86171 11.3684 8.21053 11.3684H21.8437L16.606 6.1308C16.3594 5.88416 16.3594 5.48426 16.606 5.23762Z" fill="#212529"/>
</svg>
