<svg width="22" height="22" viewBox="0 0 22 22" fill="none" xmlns="http://www.w3.org/2000/svg">
<path fill-rule="evenodd" clip-rule="evenodd" d="M20.8964 0.333496C21.3217 0.333495 21.6664 0.678213 21.6664 1.10345L21.6664 6.4931C21.6664 6.91834 21.3217 7.26306 20.8964 7.26306C20.4712 7.26306 20.1265 6.91834 20.1265 6.49311L20.1265 2.96228L12.0886 11.0001L20.1265 19.038L20.1265 15.5072C20.1265 15.082 20.4712 14.7373 20.8965 14.7373C21.3217 14.7373 21.6664 15.082 21.6664 15.5072L21.6664 20.8969C21.6664 21.3221 21.3217 21.6668 20.8965 21.6668L15.5068 21.6668C15.0816 21.6668 14.7369 21.3221 14.7369 20.8969C14.7369 20.4716 15.0816 20.1269 15.5068 20.1269L19.0376 20.1269L10.9998 12.089L2.96204 20.1268L6.49288 20.1268C6.91811 20.1268 7.26283 20.4715 7.26283 20.8967C7.26283 21.322 6.91811 21.6667 6.49288 21.6667L1.10322 21.6667C0.677989 21.6667 0.333269 21.322 0.333268 20.8967L0.333252 15.5071C0.333251 15.0819 0.677969 14.7371 1.1032 14.7371C1.52843 14.7371 1.87315 15.0819 1.87315 15.5071L1.87317 19.0379L9.9109 11.0001L1.8732 2.96241L1.87319 6.49324C1.87319 6.91847 1.52847 7.26319 1.10324 7.26319C0.678004 7.26319 0.333286 6.91847 0.333287 6.49324L0.333304 1.10358C0.333305 0.678344 0.678024 0.333626 1.10326 0.333627L6.49292 0.333643C6.91815 0.333644 7.26287 0.678364 7.26287 1.1036C7.26286 1.52883 6.91814 1.87355 6.49291 1.87355L2.96208 1.87353L10.9998 9.91127L19.0376 1.8734L13.9669 1.87342C13.5416 1.87342 13.1969 1.5287 13.1969 1.10347C13.1969 0.678233 13.5416 0.333514 13.9669 0.333513L20.8964 0.333496Z" fill="#5E5E61"/>
</svg>
