<svg width="20" height="16" viewBox="0 0 20 16" fill="none" xmlns="http://www.w3.org/2000/svg">
<path fill-rule="evenodd" clip-rule="evenodd" d="M0.927334 7.89134C0.941761 7.91753 0.957679 7.94616 0.975078 7.97709C1.07826 8.16053 1.23336 8.42461 1.43861 8.74242C1.84965 9.37887 2.459 10.2264 3.25199 11.0722C4.8459 12.7724 7.13025 14.4131 10 14.4131C12.8698 14.4131 15.1542 12.7724 16.7481 11.0722C17.5411 10.2264 18.1504 9.37887 18.5615 8.74242C18.7667 8.42461 18.9218 8.16053 19.025 7.97709C19.0424 7.94616 19.0583 7.91753 19.0728 7.89133C19.0583 7.86514 19.0424 7.83651 19.025 7.80558C18.9218 7.62214 18.7667 7.35807 18.5615 7.04026C18.1504 6.4038 17.5411 5.55628 16.7481 4.71043C15.1542 3.01025 12.8698 1.36957 10 1.36957C7.13025 1.36957 4.8459 3.01025 3.25199 4.71043C2.459 5.55628 1.84965 6.4038 1.43861 7.04026C1.23336 7.35807 1.07826 7.62214 0.975078 7.80558C0.957679 7.83651 0.941761 7.86514 0.927334 7.89134ZM19.5653 7.89134C19.9542 7.6969 19.9541 7.69673 19.954 7.69655L19.953 7.69456L19.9506 7.6897L19.9418 7.67259C19.9343 7.65794 19.9234 7.63689 19.909 7.60985C19.8804 7.5558 19.8383 7.47779 19.7829 7.37926C19.6721 7.18226 19.5079 6.90286 19.2919 6.56849C18.8606 5.90059 18.2199 5.00897 17.3825 4.11569C15.7155 2.33759 13.2172 0.5 10 0.5C6.78285 0.5 4.28457 2.33759 2.6176 4.11569C1.78015 5.00897 1.13949 5.90059 0.708138 6.56849C0.492192 6.90286 0.327995 7.18226 0.217183 7.37926C0.16176 7.47779 0.119643 7.5558 0.091037 7.60985C0.0767328 7.63689 0.0658026 7.65794 0.0582725 7.67259L0.0495288 7.6897L0.0470745 7.69456L0.0463277 7.69604C0.0462345 7.69623 0.0459014 7.6969 0.434784 7.89134L0.0459014 7.6969C-0.0153005 7.8193 -0.0153005 7.96337 0.0459014 8.08578L0.434784 7.89134C0.0459014 8.08578 0.0458083 8.08559 0.0459014 8.08578L0.0463277 8.08663L0.0470745 8.08811L0.0495288 8.09297L0.0582725 8.11009C0.0658026 8.12473 0.0767328 8.14579 0.091037 8.17282C0.119643 8.22688 0.16176 8.30488 0.217183 8.40341C0.327995 8.60041 0.492192 8.87981 0.708138 9.21418C1.13949 9.88208 1.78015 10.7737 2.6176 11.667C4.28457 13.4451 6.78285 15.2827 10 15.2827C13.2172 15.2827 15.7155 13.4451 17.3825 11.667C18.2199 10.7737 18.8606 9.88208 19.2919 9.21418C19.5079 8.87981 19.6721 8.60041 19.7829 8.40341C19.8383 8.30488 19.8804 8.22688 19.909 8.17282C19.9234 8.14579 19.9343 8.12473 19.9418 8.11009L19.9506 8.09297L19.953 8.08811L19.9538 8.08663C19.9539 8.08644 19.9542 8.08578 19.5653 7.89134ZM19.5653 7.89134L19.9542 8.08578C20.0154 7.96337 20.0152 7.81895 19.954 7.69655L19.5653 7.89134ZM10 5.71741C8.79942 5.71741 7.82612 6.69071 7.82612 7.89134C7.82612 9.09196 8.79942 10.0653 10 10.0653C11.2007 10.0653 12.174 9.09196 12.174 7.89134C12.174 6.69071 11.2007 5.71741 10 5.71741ZM6.95655 7.89134C6.95655 6.21046 8.31917 4.84785 10 4.84785C11.6809 4.84785 13.0435 6.21046 13.0435 7.89134C13.0435 9.57221 11.6809 10.9348 10 10.9348C8.31917 10.9348 6.95655 9.57221 6.95655 7.89134Z" fill="#212529"/>
</svg>
