<svg width="24" height="24" viewBox="0 0 24 24" fill="none" xmlns="http://www.w3.org/2000/svg">
<path fill-rule="evenodd" clip-rule="evenodd" d="M14.8856 1.51868C15.6861 1.17641 16.5448 1 17.4124 1C18.2801 1 19.1387 1.17641 19.9392 1.51868C20.7396 1.86088 21.4657 2.36194 22.0763 2.99232C22.6873 3.62246 23.171 4.36967 23.5008 5.19082C23.8305 6.01194 24 6.89146 24 7.77928C24 8.6671 23.8305 9.54662 23.5008 10.3677C23.1711 11.1888 22.6873 11.936 22.0764 12.5661C22.0764 12.5662 22.0765 12.5661 22.0764 12.5661L12.4101 22.5405C12.3024 22.6516 12.1544 22.7143 11.9997 22.7143C11.845 22.7143 11.697 22.6516 11.5894 22.5405L1.923 12.5661C0.689768 11.2936 0 9.57141 0 7.77928C0 5.98714 0.689768 4.26494 1.923 2.99242C3.15681 1.71928 4.83412 1.0006 6.58698 1.0006C8.33984 1.0006 10.0171 1.71928 11.251 2.99242L11.9997 3.76502L12.7484 2.99251C13.3591 2.36204 14.0852 1.86092 14.8856 1.51868ZM21.2556 3.78767C20.7493 3.265 20.1492 2.85137 19.49 2.56951C18.8308 2.28767 18.1249 2.14286 17.4124 2.14286C16.7 2.14286 15.9941 2.28767 15.3349 2.56951C14.6757 2.85137 14.0755 3.265 13.5692 3.78767L12.4101 4.98379C12.3024 5.09485 12.1544 5.15755 11.9997 5.15755C11.845 5.15755 11.697 5.09485 11.5894 4.98379L10.4303 3.78777C9.40782 2.73273 8.02497 2.14346 6.58698 2.14346C5.149 2.14346 3.76614 2.73273 2.74369 3.78777C1.72065 4.84341 1.14286 6.27888 1.14286 7.77928C1.14286 9.27967 1.72065 10.7151 2.74369 11.7708L11.9997 21.3218L21.2557 11.7708C21.7623 11.2483 22.1651 10.6269 22.4402 9.94187C22.7153 9.25677 22.8571 8.52186 22.8571 7.77928C22.8571 7.0367 22.7153 6.30179 22.4402 5.61669C22.1651 4.93161 21.7622 4.31013 21.2556 3.78767Z" fill="#212529"/>
</svg>
