<svg width="24" height="24" viewBox="0 0 24 24" fill="none" xmlns="http://www.w3.org/2000/svg">
<path fill-rule="evenodd" clip-rule="evenodd" d="M0.0530832 1.33093C0.146716 1.12912 0.348964 1 0.571436 1H23.4286C23.651 1 23.8533 1.12912 23.9469 1.33093C24.0406 1.53274 24.0085 1.77054 23.8649 1.94041L14.8571 12.5921V23.2857C14.8571 23.4837 14.7546 23.6677 14.5861 23.7718C14.4177 23.8759 14.2073 23.8854 14.0302 23.7968L9.45874 21.5111C9.26515 21.4143 9.14286 21.2164 9.14286 21V12.5921L0.13511 1.94041C-0.00854522 1.77054 -0.0405501 1.53274 0.0530832 1.33093ZM1.80304 2.14286L10.1506 12.0139C10.2379 12.117 10.2857 12.2478 10.2857 12.3829V20.6468L13.7143 22.3611V12.3829C13.7143 12.2478 13.7622 12.117 13.8494 12.0139L22.197 2.14286H1.80304Z" fill="#212529"/>
</svg>
