<svg width="24" height="24" viewBox="0 0 24 24" fill="none" xmlns="http://www.w3.org/2000/svg">
<g clip-path="url(#clip0)">
<path fill-rule="evenodd" clip-rule="evenodd" d="M14.8856 1.51868C15.6861 1.17641 16.5448 1 17.4124 1C18.2801 1 19.1387 1.17641 19.9392 1.51868C20.7396 1.86088 21.4657 2.36194 22.0763 2.99232C22.6873 3.62246 23.171 4.36967 23.5008 5.19082C23.8305 6.01194 24 6.89146 24 7.77928C24 8.6671 23.8305 9.54662 23.5008 10.3677C23.1711 11.1888 22.6873 11.936 22.0764 12.5661L12.4101 22.5405C12.3024 22.6516 12.1544 22.7143 11.9997 22.7143C11.845 22.7143 11.697 22.6516 11.5894 22.5405L1.923 12.5661C0.689768 11.2936 0 9.57141 0 7.77928C0 5.98714 0.689768 4.26494 1.923 2.99242C3.15681 1.71928 4.83412 1.0006 6.58698 1.0006C8.33984 1.0006 10.0171 1.71928 11.251 2.99242L11.9997 3.76502L12.7484 2.99251C13.3591 2.36204 14.0852 1.86092 14.8856 1.51868Z" fill="#212529"/>
</g>
<defs>
<clipPath id="clip0">
<rect width="24" height="24" fill="white"/>
</clipPath>
</defs>
</svg>
