<svg width="24" height="22" viewBox="0 0 24 22" fill="none" xmlns="http://www.w3.org/2000/svg">
<path fill-rule="evenodd" clip-rule="evenodd" d="M14.8856 0.518676C15.6861 0.176414 16.5448 0 17.4124 0C18.2801 0 19.1387 0.176414 19.9392 0.518676C20.7396 0.860885 21.4657 1.36194 22.0763 1.99232C22.6873 2.62246 23.171 3.36967 23.5008 4.19082C23.8305 5.01194 24 5.89146 24 6.77928C24 7.6671 23.8305 8.54662 23.5008 9.36774C23.1711 10.1888 22.6873 10.936 22.0764 11.5661C22.0764 11.5662 22.0765 11.5661 22.0764 11.5661L12.4101 21.5405C12.3024 21.6516 12.1544 21.7143 11.9997 21.7143C11.845 21.7143 11.697 21.6516 11.5894 21.5405L1.923 11.5661C0.689768 10.2936 0 8.57141 0 6.77928C0 4.98714 0.689768 3.26494 1.923 1.99242C3.15681 0.719282 4.83412 0.000603403 6.58698 0.000603403C8.33984 0.000603369 10.0171 0.719282 11.251 1.99242L11.9997 2.76502L12.7484 1.99251C13.3591 1.36204 14.0852 0.86092 14.8856 0.518676ZM21.2556 2.78767C20.7493 2.265 20.1492 1.85137 19.49 1.56951C18.8308 1.28767 18.1249 1.14286 17.4124 1.14286C16.7 1.14286 15.9941 1.28767 15.3349 1.56951C14.6757 1.85137 14.0755 2.265 13.5692 2.78767L12.4101 3.98379C12.3024 4.09485 12.1544 4.15755 11.9997 4.15755C11.845 4.15755 11.697 4.09485 11.5894 3.98379L10.4303 2.78777C9.40782 1.73273 8.02497 1.14346 6.58698 1.14346C5.149 1.14346 3.76614 1.73273 2.74369 2.78777C1.72065 3.84341 1.14286 5.27888 1.14286 6.77928C1.14286 8.27967 1.72065 9.71515 2.74369 10.7708L11.9997 20.3218L21.2557 10.7708C21.7623 10.2483 22.1651 9.62694 22.4402 8.94187C22.7153 8.25677 22.8571 7.52186 22.8571 6.77928C22.8571 6.0367 22.7153 5.30179 22.4402 4.61669C22.1651 3.93161 21.7622 3.31013 21.2556 2.78767Z" fill="#212529"/>
</svg>
