<svg width="27" height="12" viewBox="0 0 27 12" fill="none" xmlns="http://www.w3.org/2000/svg">
<path fill-rule="evenodd" clip-rule="evenodd" d="M4.61368 0H7.41216H26.9984C26.4444 2.79194 25.9028 5.50738 25.3612 8.22283L25.3612 8.22311C25.3413 8.3231 25.3214 8.42349 25.3015 8.52398C25.1823 9.12489 25.0626 9.72911 24.9382 10.2725C24.626 11.6367 23.4695 12 21.7854 12H0C0.26079 10.7275 0.512715 9.42746 0.766185 8.11948C1.07551 6.52326 1.38714 4.91517 1.71998 3.33068C1.76084 3.13528 1.79762 2.9359 1.83447 2.73614C1.90462 2.35592 1.97503 1.97428 2.07428 1.61594C2.36615 0.568924 3.37754 0.0589641 4.61368 0ZM7.01728 3.60956C6.89866 3.63028 6.83155 3.67171 6.78473 3.73546C6.70981 3.83904 6.6427 4.1498 6.75819 4.26454C6.87057 4.37769 7.1203 4.31713 7.19521 4.26454C7.31227 4.18167 7.46211 3.80717 7.29042 3.651C7.23579 3.60159 7.14527 3.58725 7.01728 3.60956ZM5.02939 6.59368C4.96057 6.96602 4.89171 7.33856 4.83219 7.72112H5.5002C5.71559 6.34263 5.9419 4.9753 6.21036 3.651H5.5283C5.44401 4.20717 5.35037 4.7506 5.25516 5.29562C5.13197 5.29691 5.0082 5.29893 4.88425 5.30094C4.39734 5.30887 3.90775 5.31684 3.43997 5.28127C3.4968 5.00831 3.54542 4.72697 3.59403 4.44563C3.64022 4.17836 3.68641 3.91108 3.73964 3.651H3.08411C3.00966 4.08039 2.93755 4.51186 2.86546 4.94318C2.70934 5.87732 2.55334 6.81078 2.37395 7.72112H3.04353C3.06255 7.59889 3.08126 7.47642 3.09998 7.35397C3.1857 6.79307 3.27132 6.23278 3.38534 5.7004C3.43251 5.69921 3.48045 5.69796 3.52904 5.69669C4.06729 5.68262 4.68401 5.66651 5.18648 5.71474C5.13714 6.01075 5.08328 6.30216 5.02939 6.59368ZM6.58026 4.86374C6.45072 5.85179 6.27591 6.79203 6.08862 7.72112H6.67391C6.81594 6.72669 6.9767 5.75458 7.17961 4.82231H6.59431C6.5787 4.8239 6.5787 4.84462 6.58026 4.86374ZM7.82265 7.41514C7.95688 7.94263 8.83092 7.84223 9.20082 7.63825C9.96248 7.21753 10.5493 5.21434 9.53015 4.82231C9.03382 4.63267 8.42823 4.85896 8.16602 5.0757V5.0741C8.16836 5.02789 8.17734 4.98845 8.18631 4.949C8.19529 4.90956 8.20426 4.87012 8.2066 4.8239H7.70091C7.4902 6.25339 7.24048 7.64303 6.9767 9.01833H7.56356C7.58984 8.85136 7.61339 8.68145 7.63695 8.51145C7.68895 8.13625 7.74102 7.7606 7.82265 7.41514ZM10.8662 6.16096C11.4983 6.14024 12.1569 6.14502 12.7906 6.16096C12.8006 6.0829 12.8157 6.00317 12.8308 5.92273C12.8748 5.68948 12.9199 5.45027 12.8468 5.22869C12.7141 4.83187 12.2381 4.72988 11.7543 4.76813C11.3297 4.80159 10.9707 4.9259 10.7163 5.2C10.4042 5.53625 10.1513 6.27888 10.2247 6.95618C10.3308 7.92191 11.5092 7.88685 12.4504 7.65259C12.46 7.54838 12.4791 7.45327 12.4982 7.35827C12.5101 7.29928 12.522 7.24033 12.5315 7.17928C12.1429 7.32749 11.4702 7.53466 11.0706 7.27649C10.7694 7.08207 10.7678 6.58964 10.8662 6.16096ZM13.6033 7.20709C13.6543 6.74481 13.7097 6.24183 13.841 5.85339C13.9877 5.42151 14.3686 5.05339 14.9195 5.25418C14.9239 5.16524 14.9399 5.0882 14.9559 5.01117C14.9686 4.95019 14.9813 4.88921 14.9882 4.82231C14.4685 4.60717 14.0595 4.97052 13.8691 5.30996C13.8944 5.2193 13.9112 5.1195 13.928 5.01979C13.9393 4.953 13.9506 4.88624 13.9643 4.82231H13.4462C13.3363 5.69508 13.1804 6.52209 13.0246 7.34834C13.0012 7.47257 12.9778 7.59677 12.9545 7.72112H13.5414C13.5642 7.56216 13.5834 7.38773 13.6033 7.20709ZM14.7151 7.16494C14.9258 7.87092 15.8732 7.90916 16.6395 7.63825C16.6592 7.55674 16.6733 7.46945 16.6873 7.38242C16.6977 7.31799 16.7081 7.25372 16.7207 7.19203C16.3008 7.41514 15.5001 7.52988 15.3144 7.03904C15.2598 6.89562 15.2457 6.65976 15.2598 6.48127C15.291 6.07809 15.4346 5.58725 15.6562 5.36574C15.9621 5.05976 16.5662 5.11076 17.0484 5.28287C17.0575 5.18618 17.0725 5.09546 17.0874 5.00501C17.098 4.94041 17.1087 4.87596 17.1171 4.80956C16.3258 4.67729 15.5766 4.76016 15.1786 5.18566C14.79 5.60319 14.534 6.56096 14.7151 7.16494ZM19.5256 6.42894L19.5332 6.38406C19.5524 6.27044 19.5765 6.15724 19.6002 6.04546C19.6558 5.78411 19.7097 5.5305 19.6955 5.29721C19.6597 4.6696 18.8179 4.7393 18.1333 4.796C17.9834 4.8084 17.8411 4.82018 17.7165 4.8239C17.6972 4.9313 17.6721 5.032 17.6471 5.13251C17.6334 5.18712 17.6198 5.24167 17.6072 5.29721C17.9537 5.20797 19.0322 4.93705 19.1368 5.40876C19.171 5.56604 19.1122 5.73123 19.0685 5.85383L19.0681 5.85498C18.0926 5.76096 17.2982 5.92669 17.089 6.63586C16.9486 7.11076 17.1046 7.57769 17.4027 7.70837C17.9771 7.96016 18.6763 7.67171 18.9183 7.27649C18.8933 7.41355 18.8699 7.55219 18.8777 7.72271H19.3834C19.3879 7.24536 19.4536 6.85579 19.5256 6.42894ZM20.5508 6.94995C20.5664 6.86237 20.5825 6.77201 20.5977 6.6757C20.7241 5.87092 20.9083 4.98964 21.8276 5.25418C21.8393 5.20056 21.8484 5.14393 21.8574 5.08718C21.8713 5.00058 21.8851 4.91367 21.9087 4.83665C21.3905 4.57211 20.9582 5.01673 20.7896 5.28287C20.8147 5.21197 20.8272 5.1287 20.8397 5.04542C20.8513 4.96771 20.863 4.89 20.8848 4.82231H20.3667C20.2262 5.81833 20.0576 6.78406 19.861 7.72112H20.4619C20.4642 7.43541 20.5054 7.20438 20.5508 6.94995ZM23.4914 7.72112H24.0236C24.0982 6.63238 24.2851 5.65907 24.472 4.68545C24.5431 4.31518 24.6142 3.94486 24.6791 3.56813H24.0923C24.0423 4.01753 23.9752 4.451 23.8878 4.86374C22.4488 4.39841 21.5654 5.47888 21.581 6.81434C21.5841 7.07251 21.6278 7.32749 21.7854 7.51076C22.0586 7.82629 22.839 7.90119 23.2323 7.63665C23.3087 7.58566 23.3868 7.49323 23.4367 7.42789C23.4493 7.41191 23.4644 7.38702 23.4794 7.36234C23.5093 7.31319 23.5387 7.26484 23.546 7.28924C23.5403 7.32896 23.5338 7.36779 23.5272 7.40663C23.5104 7.5065 23.4936 7.60637 23.4914 7.72112ZM8.16278 5.07568C8.16043 5.07728 8.15809 5.07927 8.15575 5.08126C8.15341 5.08325 8.15107 5.08525 8.14873 5.08684C8.15653 5.08684 8.16434 5.08525 8.16278 5.07568ZM10.9346 5.82484C10.9767 5.50133 11.2624 5.14596 11.7119 5.12843C12.1348 5.11249 12.4376 5.28779 12.3128 5.82484H10.9346ZM8.07574 5.86656C8.09922 5.71668 8.12182 5.57239 8.1489 5.43608C8.45793 5.05042 9.36787 5.00421 9.45996 5.64644C9.53956 6.20261 9.32417 6.89903 9.06352 7.17951C8.74824 7.51895 7.97721 7.51417 7.91634 6.94206C7.89721 6.76281 7.93893 6.57694 7.98067 6.39101L7.98067 6.39098C7.99682 6.31904 8.01297 6.2471 8.02559 6.17552C8.04378 6.07049 8.05996 5.96726 8.07574 5.86656ZM18.673 7.16357C18.3702 7.46636 17.5212 7.55082 17.6086 6.82891C17.6804 6.22971 18.3203 6.10222 19.0148 6.18827L19.0104 6.21663C18.9598 6.54018 18.8974 6.9391 18.673 7.16357ZM23.109 5.14286C22.4769 5.21457 22.1647 6.02095 22.1803 6.74605C22.1897 7.16039 22.3863 7.40899 22.7812 7.40103C23.499 7.38493 23.6168 6.58986 23.7258 5.85403C23.7572 5.64265 23.7877 5.43615 23.8316 5.25441C23.6178 5.17951 23.404 5.10939 23.109 5.14286Z" fill="#212529"/>
</svg>
