<svg width="16" height="17" viewBox="0 0 16 17" fill="none" xmlns="http://www.w3.org/2000/svg">
<path fill-rule="evenodd" clip-rule="evenodd" d="M8.38285 6.50622C8.38285 6.29478 8.21144 6.12337 8 6.12337C7.78856 6.12337 7.61715 6.29478 7.61715 6.50622V9.569C7.61715 9.78044 7.78856 9.95185 8 9.95185C8.21144 9.95185 8.38285 9.78044 8.38285 9.569V6.50622ZM0.765698 14.1611C0.766068 14.0291 0.800556 13.8995 0.865776 13.7848L7.34626 2.96613C7.41445 2.8543 7.5102 2.76182 7.62435 2.69755C7.73902 2.63299 7.8684 2.59907 8 2.59907C8.1316 2.59907 8.26097 2.63299 8.37565 2.69755C8.4898 2.76182 8.58555 2.8543 8.65374 2.96613L8.65467 2.96765L15.1342 13.7848C15.1995 13.8995 15.2339 14.0291 15.2343 14.1611C15.2347 14.2948 15.2 14.4263 15.1338 14.5424C15.0676 14.6586 14.9722 14.7554 14.8569 14.8232C14.7427 14.8904 14.613 14.9268 14.4805 14.9289H1.51946C1.38699 14.9268 1.2573 14.8904 1.14308 14.8232C1.02785 14.7554 0.93238 14.6586 0.866172 14.5424C0.799964 14.4263 0.765324 14.2948 0.765698 14.1611ZM0.205221 13.3975L6.69066 2.57054C6.82716 2.34551 7.01936 2.15946 7.2487 2.03033C7.47805 1.90121 7.7368 1.83337 8 1.83337C8.2632 1.83337 8.52195 1.90121 8.7513 2.03033C8.98064 2.15946 9.17284 2.34551 9.30934 2.57054L15.7948 13.3975C15.9285 13.629 15.9992 13.8916 16 14.159C16.0007 14.4264 15.9315 14.6893 15.799 14.9216C15.6666 15.1539 15.4757 15.3475 15.2452 15.4831C15.0148 15.6187 14.7528 15.6916 14.4854 15.6946H1.51456C1.24718 15.6916 0.985227 15.6187 0.754766 15.4831C0.524306 15.3475 0.333369 15.1539 0.200953 14.9216C0.0685372 14.6893 -0.000742706 14.4264 6.00468e-06 14.159C0.000754715 13.8916 0.0715059 13.629 0.205221 13.3975ZM7.99998 13.2438C8.42286 13.2438 8.76568 12.901 8.76568 12.4781C8.76568 12.0552 8.42286 11.7124 7.99998 11.7124C7.5771 11.7124 7.23429 12.0552 7.23429 12.4781C7.23429 12.901 7.5771 13.2438 7.99998 13.2438Z" fill="#6B3208"/>
</svg>
