<svg width="16" height="16" viewBox="0 0 16 16" fill="none" xmlns="http://www.w3.org/2000/svg">
<path fill-rule="evenodd" clip-rule="evenodd" d="M3.3081 3.30834C3.45229 3.16415 3.68607 3.16415 3.83027 3.30834L7.99995 7.47802L12.1696 3.30834C12.3138 3.16415 12.5476 3.16415 12.6918 3.30834C12.836 3.45253 12.836 3.68632 12.6918 3.83051L8.52212 8.0002L12.6918 12.1699C12.836 12.3141 12.836 12.5479 12.6918 12.6921C12.5476 12.8362 12.3138 12.8362 12.1696 12.6921L7.99995 8.52237L3.83027 12.6921C3.68607 12.8362 3.45229 12.8362 3.3081 12.6921C3.1639 12.5479 3.1639 12.3141 3.3081 12.1699L7.47778 8.0002L3.3081 3.83051C3.1639 3.68632 3.1639 3.45253 3.3081 3.30834Z" fill="white"/>
</svg>
