<svg width="24" height="24" viewBox="0 0 24 24" fill="none" xmlns="http://www.w3.org/2000/svg">
<path fill-rule="evenodd" clip-rule="evenodd" d="M12.3087 9.65429C12.3087 9.43463 12.1306 9.25656 11.9109 9.25656C11.6913 9.25656 11.5132 9.43463 11.5132 9.65429V12.8361C11.5132 13.0558 11.6913 13.2339 11.9109 13.2339C12.1306 13.2339 12.3087 13.0558 12.3087 12.8361V9.65429ZM4.39544 17.6068C4.39582 17.4696 4.43165 17.3349 4.49941 17.2158L11.2318 5.97659C11.3026 5.86041 11.4021 5.76434 11.5207 5.69757C11.6398 5.6305 11.7742 5.59526 11.9109 5.59526C12.0477 5.59526 12.1821 5.6305 12.3012 5.69757C12.4198 5.76434 12.5193 5.86041 12.5901 5.97659L12.5911 5.97818L19.3225 17.2158C19.3903 17.335 19.4261 17.4696 19.4265 17.6068C19.4269 17.7456 19.3909 17.8822 19.3221 18.0029C19.2533 18.1236 19.1541 18.2241 19.0344 18.2946C18.9157 18.3644 18.781 18.4022 18.6434 18.4043H5.1785C5.04088 18.4022 4.90615 18.3644 4.78749 18.2946C4.66778 18.2241 4.5686 18.1236 4.49982 18.0029C4.43104 17.8822 4.39505 17.7456 4.39544 17.6068ZM3.81317 16.8134L10.5507 5.56563C10.6925 5.33185 10.8922 5.13856 11.1304 5.00442C11.3687 4.87028 11.6375 4.7998 11.9109 4.7998C12.1844 4.7998 12.4532 4.87028 12.6915 5.00442C12.9297 5.13856 13.1294 5.33185 13.2712 5.56563L20.0087 16.8134C20.1476 17.054 20.2211 17.3267 20.2219 17.6045C20.2227 17.8823 20.1507 18.1555 20.0132 18.3968C19.8756 18.6381 19.6772 18.8393 19.4378 18.9801C19.1984 19.121 18.9263 19.1968 18.6485 19.1998H5.17341C4.89563 19.1968 4.6235 19.121 4.38408 18.9801C4.14466 18.8393 3.9463 18.6381 3.80874 18.3968C3.67118 18.1555 3.5992 17.8823 3.59998 17.6045C3.60076 17.3267 3.67426 17.054 3.81317 16.8134ZM11.9109 16.6537C12.3503 16.6537 12.7064 16.2976 12.7064 15.8583C12.7064 15.419 12.3503 15.0628 11.9109 15.0628C11.4716 15.0628 11.1155 15.419 11.1155 15.8583C11.1155 16.2976 11.4716 16.6537 11.9109 16.6537Z" fill="white"/>
</svg>
