<svg width="162" height="162" viewBox="0 0 162 162" fill="none" xmlns="http://www.w3.org/2000/svg">
<path d="M153.9 0H8.1C5.95175 0 3.89148 0.853391 2.37244 2.37244C0.853391 3.89148 0 5.95175 0 8.1V153.9C0 156.048 0.853391 158.109 2.37244 159.628C3.89148 161.147 5.95175 162 8.1 162H153.9C156.048 162 158.109 161.147 159.628 159.628C161.147 158.109 162 156.048 162 153.9V8.1C162 5.95175 161.147 3.89148 159.628 2.37244C158.109 0.853391 156.048 0 153.9 0ZM8.1 5.4H153.9C154.616 5.4 155.303 5.68446 155.809 6.19081C156.316 6.69716 156.6 7.38392 156.6 8.1V21.6H5.4V8.1C5.4 7.38392 5.68446 6.69716 6.19081 6.19081C6.69716 5.68446 7.38392 5.4 8.1 5.4ZM153.9 156.6H8.1C7.38392 156.6 6.69716 156.316 6.19081 155.809C5.68446 155.303 5.4 154.616 5.4 153.9V27H156.6V153.9C156.6 154.616 156.316 155.303 155.809 155.809C155.303 156.316 154.616 156.6 153.9 156.6Z" fill="#C6161D"/>
<path d="M13.4998 16.2H16.1998C16.9159 16.2 17.6026 15.9155 18.109 15.4092C18.6153 14.9028 18.8998 14.2161 18.8998 13.5C18.8998 12.7839 18.6153 12.0971 18.109 11.5908C17.6026 11.0845 16.9159 10.8 16.1998 10.8H13.4998C12.7837 10.8 12.097 11.0845 11.5906 11.5908C11.0843 12.0971 10.7998 12.7839 10.7998 13.5C10.7998 14.2161 11.0843 14.9028 11.5906 15.4092C12.097 15.9155 12.7837 16.2 13.4998 16.2Z" fill="#C6161D"/>
<path d="M27.0003 16.2H29.7003C30.4164 16.2 31.1031 15.9155 31.6095 15.4092C32.1158 14.9028 32.4003 14.2161 32.4003 13.5C32.4003 12.7839 32.1158 12.0971 31.6095 11.5908C31.1031 11.0845 30.4164 10.8 29.7003 10.8H27.0003C26.2842 10.8 25.5975 11.0845 25.0911 11.5908C24.5848 12.0971 24.3003 12.7839 24.3003 13.5C24.3003 14.2161 24.5848 14.9028 25.0911 15.4092C25.5975 15.9155 26.2842 16.2 27.0003 16.2Z" fill="#C6161D"/>
<path d="M40.4993 16.2H43.1993C43.9154 16.2 44.6022 15.9155 45.1085 15.4092C45.6149 14.9028 45.8993 14.2161 45.8993 13.5C45.8993 12.7839 45.6149 12.0971 45.1085 11.5908C44.6022 11.0845 43.9154 10.8 43.1993 10.8H40.4993C39.7832 10.8 39.0965 11.0845 38.5901 11.5908C38.0838 12.0971 37.7993 12.7839 37.7993 13.5C37.7993 14.2161 38.0838 14.9028 38.5901 15.4092C39.0965 15.9155 39.7832 16.2 40.4993 16.2Z" fill="#C6161D"/>
<path d="M80.9994 43.2C71.3873 43.2 61.9909 46.0504 53.9987 51.3906C46.0065 56.7308 39.7773 64.3211 36.0989 73.2016C32.4205 82.0821 31.458 91.8539 33.3333 101.281C35.2085 110.709 39.8372 119.369 46.634 126.165C53.4309 132.962 62.0906 137.591 71.518 139.466C80.9455 141.341 90.7174 140.379 99.5979 136.701C108.478 133.022 116.069 126.793 121.409 118.801C126.749 110.808 129.599 101.412 129.599 91.8C129.584 78.9151 124.459 66.5622 115.348 57.4512C106.237 48.3402 93.8843 43.215 80.9994 43.2ZM80.9994 135C72.4553 135 64.103 132.466 56.9988 127.719C49.8946 122.973 44.3575 116.226 41.0878 108.332C37.8181 100.438 36.9626 91.7521 38.6295 83.3721C40.2964 74.9921 44.4108 67.2946 50.4524 61.253C56.494 55.2114 64.1916 51.097 72.5715 49.4301C80.9515 47.7632 89.6376 48.6187 97.5314 51.8884C105.425 55.1581 112.172 60.6952 116.919 67.7994C121.666 74.9036 124.199 83.2559 124.199 91.8C124.186 103.253 119.63 114.233 111.531 122.332C103.433 130.431 92.4526 134.986 80.9994 135Z" fill="#C6161D"/>
<path d="M100.091 125.037C99.3745 125.037 98.6879 124.752 98.1817 124.246L81.0016 107.066L63.8215 124.246C63.3151 124.752 62.6285 125.036 61.9126 125.036C61.1966 125.036 60.51 124.752 60.0037 124.246L48.5557 112.798C48.0495 112.292 47.7651 111.605 47.7651 110.889C47.7651 110.173 48.0495 109.486 48.5557 108.98L65.7358 91.8L48.5557 74.6199C48.0495 74.1136 47.7651 73.427 47.7651 72.711C47.7651 71.9951 48.0495 71.3084 48.5557 70.8021L60.0037 59.3541C60.51 58.8479 61.1966 58.5636 61.9126 58.5636C62.6285 58.5636 63.3151 58.8479 63.8215 59.3541L81.0016 76.5342L98.1817 59.3541C98.688 58.8479 99.3746 58.5636 100.091 58.5636C100.807 58.5636 101.493 58.8479 101.999 59.3541L113.447 70.8021C113.954 71.3084 114.238 71.9951 114.238 72.711C114.238 73.427 113.954 74.1136 113.447 74.6199L96.2674 91.8L113.447 108.98C113.954 109.486 114.238 110.173 114.238 110.889C114.238 111.605 113.954 112.292 113.447 112.798L101.999 124.246C101.493 124.752 100.807 125.037 100.091 125.037ZM81.0016 100.548C81.7176 100.548 82.4042 100.833 82.9105 101.339L100.091 118.53L107.732 110.889L90.5515 93.7089C90.0453 93.2026 89.7609 92.516 89.7609 91.8C89.7609 91.0841 90.0453 90.3974 90.5515 89.8911L107.732 72.711L100.091 65.07L82.9105 82.2501C82.4041 82.7563 81.7175 83.0406 81.0016 83.0406C80.2856 83.0406 79.599 82.7563 79.0927 82.2501L61.9126 65.07L54.2716 72.711L71.4517 89.8911C71.9578 90.3974 72.2422 91.0841 72.2422 91.8C72.2422 92.516 71.9578 93.2026 71.4517 93.7089L54.2716 110.889L61.9126 118.53L79.0927 101.35C79.3424 101.097 79.6396 100.896 79.9672 100.759C80.2948 100.621 80.6463 100.55 81.0016 100.548Z" fill="#C6161D"/>
</svg>
