<svg width="16" height="17" viewBox="0 0 16 17" fill="none" xmlns="http://www.w3.org/2000/svg">
<g clip-path="url(#clip0)">
<path d="M10.246 14.8157C10.246 15.2624 10.0686 15.6908 9.75269 16.0067C9.43683 16.3225 9.00842 16.5 8.56173 16.5H7.71959C7.27289 16.5 6.84448 16.3225 6.52862 16.0067C6.21276 15.6908 6.03531 15.2624 6.03531 14.8157H6.87745C6.87745 15.0391 6.96617 15.2533 7.1241 15.4112C7.28203 15.5691 7.49624 15.6579 7.71959 15.6579H8.56173C8.78507 15.6579 8.99928 15.5691 9.15721 15.4112C9.31514 15.2533 9.40387 15.0391 9.40387 14.8157H10.246ZM11.0881 12.2893C11.0881 12.736 10.9107 13.1644 10.5948 13.4803C10.279 13.7961 9.85056 13.9736 9.40387 13.9736H6.87745C6.43075 13.9736 6.00235 13.7961 5.68648 13.4803C5.37062 13.1644 5.19317 12.736 5.19317 12.2893V10.5865C4.19554 9.94901 3.43149 9.00526 3.0156 7.89679C2.59972 6.78833 2.55441 5.57491 2.88649 4.43853C3.21856 3.30214 3.91012 2.30405 4.85743 1.59394C5.80474 0.883837 6.95674 0.5 8.14066 0.5C9.32457 0.5 10.4766 0.883837 11.4239 1.59394C12.3712 2.30405 13.0627 3.30214 13.3948 4.43853C13.7269 5.57491 13.6816 6.78833 13.2657 7.89679C12.8498 9.00526 12.0858 9.94901 11.0881 10.5865V12.2893ZM6.03531 12.2893C6.03531 12.5127 6.12403 12.7269 6.28196 12.8848C6.4399 13.0427 6.6541 13.1314 6.87745 13.1314H9.40387C9.62721 13.1314 9.84142 13.0427 9.99935 12.8848C10.1573 12.7269 10.246 12.5127 10.246 12.2893V10.0997C11.1725 9.62695 11.9128 8.85608 12.3479 7.91128C12.7829 6.96649 12.8872 5.90277 12.6441 4.89145C12.401 3.88013 11.8245 2.98008 11.0076 2.33626C10.1907 1.69245 9.18079 1.34235 8.14066 1.34235C7.10052 1.34235 6.09066 1.69245 5.27372 2.33626C4.45679 2.98008 3.88033 3.88013 3.6372 4.89145C3.39407 5.90277 3.49842 6.96649 3.93344 7.91128C4.36846 8.85608 5.10883 9.62695 6.03531 10.0997V12.2893Z" fill="#5E5E61"/>
</g>
<defs>
<clipPath id="clip0">
<rect width="16" height="16" fill="white" transform="translate(0 0.5)"/>
</clipPath>
</defs>
</svg>
