<svg width="32" height="32" viewBox="0 0 32 32" fill="none" xmlns="http://www.w3.org/2000/svg">
<path d="M16 7.41092C14.8719 7.41098 13.7549 7.63324 12.7128 8.06498C11.6706 8.49673 10.7237 9.12952 9.92611 9.92722C9.1285 10.7249 8.49583 11.6719 8.0642 12.7141C7.63257 13.7563 7.41045 14.8733 7.41052 16.0014C7.41059 17.1295 7.63284 18.2464 8.06459 19.2886C8.49633 20.3308 9.12912 21.2777 9.92682 22.0753C10.7245 22.8729 11.6715 23.5056 12.7137 23.9372C13.7559 24.3688 14.873 24.5909 16.001 24.5909C18.2792 24.5907 20.464 23.6856 22.0749 22.0746C23.6857 20.4635 24.5906 18.2786 24.5905 16.0004C24.5903 13.7222 23.6852 11.5373 22.0742 9.92651C20.4631 8.31567 18.2782 7.41078 16 7.41092ZM16 6.40039C18.5461 6.40039 20.9879 7.41182 22.7882 9.21217C24.5886 11.0125 25.6 13.4543 25.6 16.0004C25.6 18.5465 24.5886 20.9883 22.7882 22.7886C20.9879 24.589 18.5461 25.6004 16 25.6004C13.4539 25.6004 11.0121 24.589 9.21177 22.7886C7.41142 20.9883 6.39999 18.5465 6.39999 16.0004C6.39999 13.4543 7.41142 11.0125 9.21177 9.21217C11.0121 7.41182 13.4539 6.40039 16 6.40039ZM15.4947 20.5478H16.5053V22.5688H15.4947V20.5478ZM16 9.43197C16.938 9.43197 17.8376 9.8046 18.5009 10.4679C19.1642 11.1312 19.5368 12.0308 19.5368 12.9688C19.5368 13.8753 18.8305 14.5038 18.0827 15.1677L17.1378 16.0802C16.5437 16.7613 16.479 18.0558 16.5042 18.4974V18.5267H15.4947C15.4907 18.4742 15.3917 16.542 16.3779 15.4153L17.4107 14.4129C18.0089 13.8813 18.5263 13.4215 18.5263 12.9688C18.5263 12.2988 18.2601 11.6562 17.7864 11.1824C17.3126 10.7087 16.67 10.4425 16 10.4425C15.33 10.4425 14.6874 10.7087 14.2136 11.1824C13.7398 11.6562 13.4737 12.2988 13.4737 12.9688H12.4632C12.4632 12.0308 12.8358 11.1312 13.4991 10.4679C14.1624 9.8046 15.062 9.43197 16 9.43197Z" fill="#002F87"/>
</svg>
