<svg width="16" height="16" viewBox="0 0 16 16" fill="none" xmlns="http://www.w3.org/2000/svg">
<rect width="16" height="16" rx="4" fill="#002F87"/>
<path fill-rule="evenodd" clip-rule="evenodd" d="M3.30834 3.3081C3.45253 3.1639 3.68632 3.1639 3.83051 3.3081L8.0002 7.47778L12.1699 3.3081C12.3141 3.1639 12.5479 3.1639 12.6921 3.3081C12.8362 3.45229 12.8362 3.68607 12.6921 3.83027L8.52237 7.99995L12.6921 12.1696C12.8362 12.3138 12.8362 12.5476 12.6921 12.6918C12.5479 12.836 12.3141 12.836 12.1699 12.6918L8.0002 8.52212L3.83051 12.6918C3.68632 12.836 3.45253 12.836 3.30834 12.6918C3.16415 12.5476 3.16415 12.3138 3.30834 12.1696L7.47802 7.99995L3.30834 3.83027C3.16415 3.68607 3.16415 3.45229 3.30834 3.3081Z" fill="#FAFAFA"/>
</svg>
