<svg width="12" height="12" viewBox="0 0 12 12" fill="none" xmlns="http://www.w3.org/2000/svg">
<path fill-rule="evenodd" clip-rule="evenodd" d="M0.786909 0.786787C0.947124 0.626572 1.20688 0.626572 1.3671 0.786787L6.00008 5.41977L10.6331 0.786787C10.7933 0.626572 11.053 0.626572 11.2133 0.786787C11.3735 0.947002 11.3735 1.20676 11.2133 1.36698L6.58027 5.99996L11.2133 10.6329C11.3735 10.7932 11.3735 11.0529 11.2133 11.2131C11.053 11.3733 10.7933 11.3733 10.6331 11.2131L6.00008 6.58015L1.3671 11.2131C1.20688 11.3733 0.947124 11.3733 0.786909 11.2131C0.626694 11.0529 0.626694 10.7932 0.786909 10.6329L5.41989 5.99996L0.786909 1.36698C0.626694 1.20676 0.626694 0.947002 0.786909 0.786787Z" fill="#6B3208"/>
</svg>
