<svg width="24" height="24" viewBox="0 0 24 24" fill="none" xmlns="http://www.w3.org/2000/svg">
<path d="M12 4.7998C13.9096 4.7998 15.741 5.55837 17.0912 6.90864C18.4415 8.2589 19.2 10.0902 19.2 11.9998C19.2 13.9094 18.4415 15.7407 17.0912 17.091C15.741 18.4412 13.9096 19.1998 12 19.1998C10.0905 19.1998 8.25914 18.4412 6.90888 17.091C5.55862 15.7407 4.80005 13.9094 4.80005 11.9998C4.80005 10.0902 5.55862 8.2589 6.90888 6.90864C8.25914 5.55837 10.0905 4.7998 12 4.7998ZM12 5.5577C10.2915 5.5577 8.65292 6.23642 7.44479 7.44455C6.23666 8.65268 5.55794 10.2913 5.55794 11.9998C5.55794 13.7084 6.23666 15.3469 7.44479 16.5551C8.65292 17.7632 10.2915 18.4419 12 18.4419C13.7086 18.4419 15.3472 17.7632 16.5553 16.5551C17.7634 15.3469 18.4422 13.7084 18.4422 11.9998C18.4422 10.2913 17.7634 8.65268 16.5553 7.44455C15.3472 6.23642 13.7086 5.5577 12 5.5577Z" fill="white"/>
<path d="M11.8 10.1332V8.3999H12.6V10.1332H11.8Z" fill="white"/>
<path d="M11.8 15.5999V11.3999H12.6V15.5999H11.8Z" fill="white"/>
</svg>
