<svg width="16" height="17" viewBox="0 0 16 17" fill="none" xmlns="http://www.w3.org/2000/svg">
<g clip-path="url(#clip0)">
<path d="M8 0.5C10.1217 0.5 12.1566 1.34285 13.6569 2.84315C15.1571 4.34344 16 6.37827 16 8.5C16 10.6217 15.1571 12.6566 13.6569 14.1569C12.1566 15.6571 10.1217 16.5 8 16.5C5.87827 16.5 3.84344 15.6571 2.34315 14.1569C0.842855 12.6566 0 10.6217 0 8.5C0 6.37827 0.842855 4.34344 2.34315 2.84315C3.84344 1.34285 5.87827 0.5 8 0.5ZM8 1.34211C6.10161 1.34211 4.28097 2.09624 2.9386 3.4386C1.59624 4.78097 0.842105 6.60161 0.842105 8.5C0.842105 10.3984 1.59624 12.219 2.9386 13.5614C4.28097 14.9038 6.10161 15.6579 8 15.6579C9.89839 15.6579 11.719 14.9038 13.0614 13.5614C14.4038 12.219 15.1579 10.3984 15.1579 8.5C15.1579 6.60161 14.4038 4.78097 13.0614 3.4386C11.719 2.09624 9.89839 1.34211 8 1.34211Z" fill="#380C43"/>
<path d="M7.77783 6.42593V4.5H8.66672V6.42593H7.77783Z" fill="#380C43"/>
<path d="M7.77783 12.5V7.83333H8.66672V12.5H7.77783Z" fill="#380C43"/>
</g>
<defs>
<clipPath id="clip0">
<rect width="16" height="16" fill="white" transform="translate(0 0.5)"/>
</clipPath>
</defs>
</svg>
