<svg width="24" height="24" viewBox="0 0 24 24" fill="none" xmlns="http://www.w3.org/2000/svg">
<path d="M12 4.7998C13.9095 4.7998 15.7409 5.55837 17.0912 6.90864C18.4414 8.2589 19.2 10.0902 19.2 11.9998C19.2 13.9094 18.4414 15.7407 17.0912 17.091C15.7409 18.4412 13.9095 19.1998 12 19.1998C10.0904 19.1998 8.25908 18.4412 6.90882 17.091C5.55856 15.7407 4.79999 13.9094 4.79999 11.9998C4.79999 10.0902 5.55856 8.2589 6.90882 6.90864C8.25908 5.55837 10.0904 4.7998 12 4.7998ZM12 5.5577C10.2914 5.5577 8.65286 6.23642 7.44473 7.44455C6.2366 8.65268 5.55788 10.2913 5.55788 11.9998C5.55788 13.7084 6.2366 15.3469 7.44473 16.5551C8.65286 17.7632 10.2914 18.4419 12 18.4419C13.7085 18.4419 15.3471 17.7632 16.5552 16.5551C17.7634 15.3469 18.4421 13.7084 18.4421 11.9998C18.4421 10.2913 17.7634 8.65268 16.5552 7.44455C15.3471 6.23642 13.7085 5.5577 12 5.5577Z" fill="white"/>
<path d="M11.3324 15.3557L16.44 10.248L15.7912 9.6001L11.3324 14.0599L9.0479 11.7754L8.40002 12.4233L11.3324 15.3557Z" fill="white"/>
</svg>
