<svg width="24" height="24" viewBox="0 0 24 24" fill="none" xmlns="http://www.w3.org/2000/svg">
<path d="M15.6 6.5998H13.8V5.99981C13.8 5.33798 13.2615 4.7998 12.6 4.7998H10.2C9.53849 4.7998 9.00001 5.33798 9.00001 5.99981V6.5998H7.20001C6.53848 6.5998 6 7.13798 6 7.79981V8.69981C6 8.86564 6.13418 8.99982 6.30001 8.99982H6.60002V17.9998C6.59999 18.6616 7.13847 19.1998 7.8 19.1998H15C15.6615 19.1998 16.2 18.6616 16.2 17.9998V8.99979H16.5C16.6658 8.99979 16.8 8.86561 16.8 8.69979V7.79979C16.8 7.13798 16.2615 6.5998 15.6 6.5998ZM9.6 5.99981C9.6 5.66906 9.86896 5.39982 10.2 5.39982H12.6C12.931 5.39982 13.2 5.66906 13.2 5.99981V6.5998H9.6V5.99981ZM15.6 17.9998C15.6 18.3305 15.331 18.5998 15 18.5998H7.8C7.46894 18.5998 7.20001 18.3305 7.20001 17.9998V8.99979H15.6V17.9998H15.6ZM16.2 8.3998H6.59999V7.79981C6.59999 7.46906 6.86895 7.19982 7.19998 7.19982H15.6C15.931 7.19982 16.2 7.46906 16.2 7.79981V8.3998H16.2Z" fill="#767676"/>
</svg>
