<svg width="20" height="20" viewBox="0 0 20 20" fill="none" xmlns="http://www.w3.org/2000/svg">
<path d="M10 1.05263C8.82495 1.0527 7.66141 1.28421 6.57583 1.73395C5.49025 2.18369 4.50388 2.84284 3.67304 3.67378C2.8422 4.50472 2.18316 5.49117 1.73355 6.5768C1.28394 7.66244 1.05256 8.826 1.05263 10.0011C1.0527 11.1761 1.28421 12.3396 1.73395 13.4252C2.18369 14.5108 2.84284 15.4972 3.67378 16.328C4.50472 17.1589 5.49117 17.8179 6.5768 18.2675C7.66244 18.7171 8.826 18.9485 10.0011 18.9484C12.3742 18.9483 14.6501 18.0054 16.328 16.3273C18.006 14.6491 18.9486 12.3731 18.9484 10C18.9483 7.62687 18.0054 5.35099 16.3273 3.67304C14.6491 1.99508 12.3731 1.05249 10 1.05263ZM10 0C12.6522 0 15.1957 1.05357 17.0711 2.92893C18.9464 4.8043 20 7.34784 20 10C20 12.6522 18.9464 15.1957 17.0711 17.0711C15.1957 18.9464 12.6522 20 10 20C7.34783 20 4.8043 18.9464 2.92893 17.0711C1.05357 15.1957 0 12.6522 0 10C0 7.34784 1.05357 4.8043 2.92893 2.92893C4.8043 1.05357 7.34783 0 10 0ZM9.47368 14.7368H10.5263V16.8421H9.47368V14.7368ZM10 3.15789C10.9771 3.15789 11.9142 3.54605 12.6051 4.23698C13.2961 4.9279 13.6842 5.86499 13.6842 6.84211C13.6842 7.78632 12.9484 8.44105 12.1695 9.13263L11.1853 10.0832C10.5663 10.7926 10.4989 12.1411 10.5253 12.6011V12.6316H9.47368C9.46947 12.5768 9.36631 10.5642 10.3937 9.39053L11.4695 8.34632C12.0926 7.79263 12.6316 7.31368 12.6316 6.84211C12.6316 6.14417 12.3543 5.47481 11.8608 4.9813C11.3673 4.48778 10.6979 4.21053 10 4.21053C9.30206 4.21053 8.63271 4.48778 8.13919 4.9813C7.64568 5.47481 7.36842 6.14417 7.36842 6.84211H6.31579C6.31579 5.86499 6.70395 4.9279 7.39487 4.23698C8.08579 3.54605 9.02289 3.15789 10 3.15789Z" fill="#58006D"/>
</svg>
