<svg width="12" height="11" viewBox="0 0 12 11" fill="none" xmlns="http://www.w3.org/2000/svg">
<path fill-rule="evenodd" clip-rule="evenodd" d="M6.28714 3.50463C6.28714 3.34605 6.15858 3.2175 6 3.2175C5.84142 3.2175 5.71286 3.34605 5.71286 3.50463V5.80172C5.71286 5.9603 5.84142 6.08886 6 6.08886C6.15858 6.08886 6.28714 5.9603 6.28714 5.80172V3.50463ZM0.574274 9.24581C0.574551 9.14681 0.600417 9.04958 0.649332 8.96356L5.50969 0.849567C5.56084 0.765692 5.63265 0.696333 5.71826 0.648131C5.80427 0.59971 5.9013 0.574272 6 0.574272C6.0987 0.574272 6.19573 0.59971 6.28174 0.648131C6.36735 0.696333 6.43916 0.765692 6.49031 0.849567L6.491 0.85071L11.3507 8.96359C11.3996 9.04961 11.4254 9.14682 11.4257 9.24581C11.426 9.34608 11.4 9.44468 11.3504 9.5318C11.3007 9.61891 11.2291 9.69151 11.1427 9.74236C11.057 9.79277 10.9598 9.82007 10.8604 9.82162H1.13959C1.04024 9.82007 0.942975 9.79277 0.857309 9.74236C0.770887 9.69151 0.699285 9.61891 0.649629 9.5318C0.599973 9.44468 0.573993 9.34608 0.574274 9.24581ZM0.153916 8.67308L5.018 0.552877C5.12037 0.384102 5.26452 0.244561 5.43653 0.147719C5.60854 0.0508758 5.8026 0 6 0C6.1974 0 6.39146 0.0508758 6.56347 0.147719C6.73548 0.244561 6.87963 0.384102 6.982 0.552877L11.8461 8.67308C11.9464 8.84675 11.9994 9.04365 12 9.2442C12.0006 9.44475 11.9486 9.64195 11.8493 9.81618C11.75 9.99041 11.6068 10.1356 11.4339 10.2373C11.2611 10.339 11.0646 10.3937 10.8641 10.3959H1.13592C0.935384 10.3937 0.73892 10.339 0.566075 10.2373C0.393229 10.1356 0.250027 9.99041 0.150715 9.81618C0.0514029 9.64195 -0.000557029 9.44475 4.50351e-06 9.2442C0.000566036 9.04365 0.0536295 8.84675 0.153916 8.67308ZM5.99999 8.5578C6.31715 8.5578 6.57426 8.30069 6.57426 7.98352C6.57426 7.66636 6.31715 7.40925 5.99999 7.40925C5.68283 7.40925 5.42572 7.66636 5.42572 7.98352C5.42572 8.30069 5.68283 8.5578 5.99999 8.5578Z" fill="#DC3243"/>
</svg>
