<svg width="24" height="24" viewBox="0 0 24 24" fill="none" xmlns="http://www.w3.org/2000/svg">
<g clip-path="url(#clip0)">
<path d="M12 0C15.1826 0 18.2348 1.26428 20.4853 3.51472C22.7357 5.76515 24 8.8174 24 12C24 15.1826 22.7357 18.2348 20.4853 20.4853C18.2348 22.7357 15.1826 24 12 24C8.8174 24 5.76516 22.7357 3.51472 20.4853C1.26428 18.2348 0 15.1826 0 12C0 8.8174 1.26428 5.76515 3.51472 3.51472C5.76516 1.26428 8.8174 0 12 0ZM12 1.26316C9.15241 1.26316 6.42146 2.39436 4.40791 4.40791C2.39436 6.42145 1.26316 9.15241 1.26316 12C1.26316 14.8476 2.39436 17.5785 4.40791 19.5921C6.42146 21.6056 9.15241 22.7368 12 22.7368C14.8476 22.7368 17.5785 21.6056 19.5921 19.5921C21.6056 17.5785 22.7368 14.8476 22.7368 12C22.7368 9.15241 21.6056 6.42145 19.5921 4.40791C17.5785 2.39436 14.8476 1.26316 12 1.26316Z" fill="#212529"/>
<path d="M11.6667 8.88889V6H13V8.88889H11.6667Z" fill="#212529"/>
<path d="M11.6667 18V11H13V18H11.6667Z" fill="#212529"/>
</g>
<defs>
<clipPath id="clip0">
<rect width="24" height="24" fill="white"/>
</clipPath>
</defs>
</svg>
