<svg width="28" height="28" viewBox="0 0 28 28" fill="none" xmlns="http://www.w3.org/2000/svg">
<path d="M18.1108 23.9927H9.88841C8.33938 24.0413 6.83353 23.4778 5.69694 22.4242C5.13433 21.8596 4.69374 21.1854 4.40251 20.4434C4.11128 19.7014 3.97561 18.9075 4.00393 18.1109V9.84878C3.97537 9.07092 4.10287 8.29525 4.3789 7.56745C4.65494 6.83965 5.07391 6.17444 5.61113 5.61116C6.17427 5.07401 6.83927 4.65508 7.56691 4.37904C8.29455 4.10301 9.0701 3.97552 9.84782 4.004H18.1514C18.9324 3.97473 19.7111 4.10627 20.4391 4.39053C21.1671 4.67479 21.829 5.1057 22.3835 5.65643C22.9187 6.21189 23.3371 6.86892 23.6139 7.58885C23.8907 8.30878 24.0204 9.07696 23.9953 9.84788V18.1515C24.0271 18.9387 23.8968 19.7241 23.6126 20.4589C23.3283 21.1938 22.8962 21.8624 22.3429 22.4233C21.1928 23.4815 19.6728 24.0451 18.1108 23.9927ZM14.0393 8.95386C12.7155 8.95533 11.4464 9.48186 10.5105 10.418C9.57454 11.3541 9.04821 12.6234 9.04699 13.9472C9.04845 15.2708 9.57489 16.5398 10.5108 17.4757C11.4467 18.4117 12.7157 18.9379 14.0393 18.9394C15.3629 18.9379 16.6319 18.4117 17.5678 17.4757C18.5037 16.5398 19.0301 15.2708 19.0316 13.9472C19.0306 12.6233 18.5044 11.3539 17.5684 10.4175C16.6325 9.48122 15.3632 8.95443 14.0393 8.95296V8.95386ZM19.3195 7.41676C18.9769 7.41676 18.6484 7.55294 18.4061 7.79518C18.1639 8.03742 18.0278 8.36599 18.0278 8.70857C18.0278 9.05114 18.1639 9.37972 18.4061 9.62195C18.6484 9.86419 18.9769 10.0001 19.3195 10.0001C19.662 10.0001 19.9906 9.86419 20.2328 9.62195C20.4751 9.37972 20.6111 9.05114 20.6111 8.70857C20.6113 8.53886 20.5779 8.37074 20.5131 8.21392C20.4482 8.0571 20.3531 7.91454 20.2331 7.7945C20.1132 7.67446 19.9708 7.57926 19.814 7.51429C19.6572 7.44932 19.4892 7.41586 19.3195 7.41586V7.41676ZM14.0393 17.1451C13.1913 17.1443 12.3783 16.8071 11.7786 16.2076C11.1789 15.6081 10.8415 14.7952 10.8406 13.9472C10.8415 13.0991 11.1789 12.286 11.7785 11.6864C12.3782 11.0867 13.1912 10.7494 14.0393 10.7484C14.8874 10.7494 15.7004 11.0867 16.3001 11.6864C16.8997 12.286 17.2371 13.0991 17.238 13.9472C17.2366 14.7949 16.899 15.6073 16.2994 16.2065C15.6997 16.8056 14.8869 17.1423 14.0393 17.143V17.1451Z" fill="#212529"/>
</svg>
