<svg width="24" height="25" viewBox="0 0 24 25" fill="none" xmlns="http://www.w3.org/2000/svg">
<path fill-rule="evenodd" clip-rule="evenodd" d="M19.873 0.216797C20.9714 0.216797 21.8842 0.606664 22.6423 1.36474C23.4251 2.12282 23.8181 3.06345 23.8181 4.15879V19.9051C23.8181 20.9757 23.4251 21.9163 22.6423 22.6744C21.8842 23.4294 20.9683 23.8223 19.873 23.8223H4.12669C3.03134 23.8223 2.09071 23.4325 1.33264 22.6744C0.577654 21.9163 0.184692 20.9757 0.184692 19.9051V4.15879C0.184692 3.06345 0.57456 2.12282 1.33264 1.36474C2.09071 0.606664 3.03134 0.216797 4.12669 0.216797H19.873ZM2.14331 19.9051H3.99673V12.0211H2.14331V19.9051ZM21.0735 12.0211H19.3501L18.2269 13.6146H19.5079L21.0735 12.0211ZM6.19051 19.4905C6.53087 19.8556 7.02594 20.0382 7.62621 20.0382C8.01917 20.0382 8.33169 19.9856 8.62254 19.8804L8.59779 18.4972C8.54519 18.5499 8.43998 18.5746 8.25743 18.5746C7.96967 18.5746 7.75926 18.4725 7.62931 18.2621C7.5241 18.1043 7.4715 17.8444 7.4715 17.4514V15.3628H8.59469V14.0045H7.4715V12.0211H5.69544V14.0045H4.86001V15.3659H5.69544V17.7423C5.69544 18.5499 5.85015 19.1501 6.19051 19.4905ZM13.2143 19.9051H14.8852V16.4303C14.8852 15.6475 14.6779 15.0441 14.2849 14.6017C13.8146 14.1035 13.1091 13.8436 12.1685 13.8436C11.2031 13.8436 10.3955 14.0262 9.76739 14.4191L10.1077 15.5671C10.6276 15.2545 11.2031 15.0967 11.856 15.0967C12.6635 15.0967 13.0565 15.3597 13.0565 15.9074V15.96C11.856 15.96 10.9432 16.1426 10.3151 16.5355C9.66219 16.9285 9.32183 17.5009 9.32183 18.259C9.32183 18.7293 9.50438 19.147 9.84474 19.4874C10.2377 19.8525 10.7328 20.0351 11.333 20.0351C12.1437 20.0351 12.744 19.7721 13.1617 19.277H13.2143V19.9051ZM20.2134 19.9051H21.8316H21.8378V14.0045H20.0091V17.4514C20.0091 17.6092 19.9813 17.7392 19.9565 17.8165C19.7461 18.3147 19.381 18.5746 18.8334 18.5746C18.1279 18.5746 17.7628 18.0764 17.7628 17.1111V14.0045H15.9341V17.4236C15.9341 18.3364 16.1693 19.0171 16.6117 19.4595C17.0016 19.8525 17.5245 20.0351 18.1774 20.0351C19.0933 20.0351 19.7709 19.6699 20.1886 18.9645H20.2134V19.9051ZM11.8841 18.8873C11.3085 18.8873 11.0208 18.6274 11.0208 18.1045C11.0208 17.399 11.7263 17.0865 13.1094 17.1112V17.7393L13.0846 18.0797C13.0073 18.3149 12.8525 18.4974 12.6421 18.6274C12.4317 18.8099 12.1718 18.8873 11.8841 18.8873Z" fill="#212529"/>
</svg>
