<svg width="24" height="24" viewBox="0 0 24 24" fill="none" xmlns="http://www.w3.org/2000/svg">
<path d="M15.3689 21.4736C15.3689 22.1436 15.1027 22.7862 14.6289 23.26C14.1551 23.7338 13.5125 24 12.8425 24H11.5793C10.9092 24 10.2666 23.7338 9.79281 23.26C9.31901 22.7862 9.05284 22.1436 9.05284 21.4736H10.316C10.316 21.8086 10.4491 22.1299 10.686 22.3668C10.9229 22.6037 11.2442 22.7368 11.5793 22.7368H12.8425C13.1775 22.7368 13.4988 22.6037 13.7357 22.3668C13.9726 22.1299 14.1057 21.8086 14.1057 21.4736H15.3689ZM16.6321 17.684C16.6321 18.354 16.3659 18.9966 15.8921 19.4704C15.4183 19.9442 14.7757 20.2104 14.1057 20.2104H10.316C9.646 20.2104 9.0034 19.9442 8.5296 19.4704C8.0558 18.9966 7.78963 18.354 7.78963 17.684V15.1297C6.29319 14.1735 5.14711 12.7579 4.52328 11.0952C3.89945 9.4325 3.8315 7.61237 4.32961 5.90779C4.82773 4.20321 5.86506 2.70607 7.28602 1.64091C8.70699 0.575756 10.435 0 12.2109 0C13.9867 0 15.7147 0.575756 17.1357 1.64091C18.5567 2.70607 19.594 4.20321 20.0921 5.90779C20.5902 7.61237 20.5223 9.4325 19.8984 11.0952C19.2746 12.7579 18.1285 14.1735 16.6321 15.1297V17.684ZM9.05284 17.684C9.05284 18.019 9.18593 18.3403 9.42282 18.5772C9.65972 18.8141 9.98102 18.9472 10.316 18.9472H14.1057C14.4407 18.9472 14.762 18.8141 14.9989 18.5772C15.2358 18.3403 15.3689 18.019 15.3689 17.684V14.3996C16.7586 13.6904 17.8692 12.5341 18.5217 11.1169C19.1742 9.69973 19.3307 8.10415 18.966 6.58717C18.6013 5.07019 17.7367 3.72012 16.5113 2.75439C15.2859 1.78867 13.7711 1.26352 12.2109 1.26352C10.6507 1.26352 9.13587 1.78867 7.91046 2.75439C6.68506 3.72012 5.82037 5.07019 5.45568 6.58717C5.09099 8.10415 5.24751 9.69973 5.90004 11.1169C6.55257 12.5341 7.66313 13.6904 9.05284 14.3996V17.684Z" fill="#212529"/>
</svg>
