<svg width="24" height="24" viewBox="0 0 24 24" fill="none" xmlns="http://www.w3.org/2000/svg">
<path d="M17.4 7.2C18.3548 7.2 19.2705 7.57928 19.9456 8.25442C20.6207 8.92955 21 9.84522 21 10.8V20.4C21 21.3548 20.6207 22.2705 19.9456 22.9456C19.2705 23.6207 18.3548 24 17.4 24H6.6C5.64522 24 4.72955 23.6207 4.05442 22.9456C3.37928 22.2705 3 21.3548 3 20.4V10.8C3 9.84522 3.37928 8.92955 4.05442 8.25442C4.72955 7.57928 5.64522 7.2 6.6 7.2V5.4C6.6 3.96783 7.16893 2.59432 8.18162 1.58162C9.19432 0.568927 10.5678 0 12 0C13.4322 0 14.8057 0.568927 15.8184 1.58162C16.8311 2.59432 17.4 3.96783 17.4 5.4V7.2ZM6.6 8.4C5.96348 8.4 5.35303 8.65286 4.90294 9.10294C4.45286 9.55303 4.2 10.1635 4.2 10.8V20.4C4.2 21.0365 4.45286 21.647 4.90294 22.0971C5.35303 22.5471 5.96348 22.8 6.6 22.8H17.4C18.0365 22.8 18.647 22.5471 19.0971 22.0971C19.5471 21.647 19.8 21.0365 19.8 20.4V10.8C19.8 10.1635 19.5471 9.55303 19.0971 9.10294C18.647 8.65286 18.0365 8.4 17.4 8.4H6.6ZM16.2 7.2V5.4C16.2 4.28609 15.7575 3.2178 14.9698 2.43015C14.1822 1.6425 13.1139 1.2 12 1.2C10.8861 1.2 9.8178 1.6425 9.03015 2.43015C8.2425 3.2178 7.8 4.28609 7.8 5.4V7.2H16.2ZM12 14.4C11.5226 14.4 11.0648 14.5896 10.7272 14.9272C10.3896 15.2648 10.2 15.7226 10.2 16.2C10.2 16.6774 10.3896 17.1352 10.7272 17.4728C11.0648 17.8104 11.5226 18 12 18C12.4774 18 12.9352 17.8104 13.2728 17.4728C13.6104 17.1352 13.8 16.6774 13.8 16.2C13.8 15.7226 13.6104 15.2648 13.2728 14.9272C12.9352 14.5896 12.4774 14.4 12 14.4ZM12 13.2C12.7956 13.2 13.5587 13.5161 14.1213 14.0787C14.6839 14.6413 15 15.4044 15 16.2C15 16.9956 14.6839 17.7587 14.1213 18.3213C13.5587 18.8839 12.7956 19.2 12 19.2C11.2044 19.2 10.4413 18.8839 9.87868 18.3213C9.31607 17.7587 9 16.9956 9 16.2C9 15.4044 9.31607 14.6413 9.87868 14.0787C10.4413 13.5161 11.2044 13.2 12 13.2Z" fill="#212529"/>
</svg>
