<svg width="150" height="47" viewBox="0 0 150 47" fill="none" xmlns="http://www.w3.org/2000/svg">
<path d="M66.1159 29.6958L77.9214 13.5435H74.1129L64.1083 27.21L54.0736 13.5435H50.0234L61.8806 29.7963L51.1422 44.3851L44.8543 35.5247C49.7082 33.9478 52.4695 30.2683 52.4695 25.012C52.4695 17.8439 47.3288 13.5435 38.8565 13.5435H0V16.6018H11.7088V46.9932H15.2321V16.6018H26.389V46.9932H29.9106V36.3851H38.8598C39.7511 36.3874 40.6418 36.3393 41.5277 36.2412L49.1429 46.9932H53.2665L63.9765 32.2755L74.7332 46.9932H78.8268L66.1159 29.6958ZM38.7698 33.3786H29.9156V16.6018H38.7698C45.4395 16.6018 48.9562 19.6602 48.9562 25.012C48.9512 30.2683 45.4279 33.3753 38.7648 33.3753L38.7698 33.3786Z" fill="#212529"/>
<path d="M150 30.2132L108.857 12.1441L107.315 11.1112C105.239 6.5546 103.447 3.3037 102.686 2.34283C102.305 1.86723 101.874 1.43449 101.401 1.05218C101.016 0.726822 100.582 0.46518 100.115 0.27712C99.5413 0.0574197 98.9266 -0.0334318 98.3142 0.0109543L95.743 0.526545L86.487 2.59225C84.396 3.45436 83.1371 5.59038 83.4006 7.75486C83.5296 8.72233 83.94 9.63012 84.5803 10.3647C85.2207 11.0992 86.0625 11.6279 87.0006 11.8846H95.743L98.3142 16.016V19.6302C96.5252 20.2488 95.0485 21.5461 94.2006 23.2443V25.3084C94.3273 25.9194 94.7942 26.3379 95.2294 26.3412C95.788 26.3412 96.4066 25.6716 96.2582 24.7928C96.2185 24.5124 96.2442 24.2265 96.3334 23.9578C96.4227 23.6891 96.573 23.4449 96.7724 23.2445C96.9718 23.0441 97.2149 22.8931 97.4825 22.8033C97.7501 22.7135 98.0348 22.6874 98.3142 22.7271C98.3142 23.2812 98.3492 27.6118 101.914 30.4726C104.704 32.7091 107.83 32.5886 108.601 32.5367C108.143 31.3698 107.951 30.1149 108.04 28.864C108.129 27.6131 108.496 26.3982 109.114 25.3084C109.064 25.598 108.362 30.029 111.685 33.0539C114.443 35.5649 117.863 35.1833 118.372 35.118L122.485 39.2494V42.8636C121.554 42.7638 120.616 42.9769 119.818 43.4695C118 44.6196 117.865 46.7757 117.855 46.9933H125.57L129.17 37.1837L126.085 30.4659L150 30.2132ZM96.7918 4.5592C96.4999 4.55656 96.2152 4.46723 95.9738 4.30248C95.7323 4.13772 95.5448 3.90491 95.4349 3.63337C95.325 3.36183 95.2976 3.06371 95.3562 2.77657C95.4148 2.48942 95.5567 2.22611 95.764 2.01979C95.9714 1.81347 96.2349 1.67337 96.5215 1.61716C96.808 1.56094 97.1047 1.59112 97.3742 1.70389C97.6437 1.81665 97.8739 2.00696 98.0358 2.25084C98.1977 2.49473 98.2842 2.78127 98.2842 3.07437C98.2835 3.2703 98.2444 3.46418 98.169 3.6449C98.0936 3.82563 97.9834 3.98965 97.8448 4.12757C97.7062 4.2655 97.5418 4.37461 97.3611 4.44868C97.1804 4.52274 96.987 4.5603 96.7918 4.5592Z" fill="#58006D"/>
<path d="M116.314 46.9931L120.171 38.4741L118.115 36.4084C116.674 36.5765 115.214 36.3814 113.867 35.8407C112.52 35.3 111.328 34.4307 110.4 33.3115H107.315L113.485 38.9914V43.6367C113.044 43.5411 112.588 43.5376 112.145 43.6266C111.703 43.7156 111.284 43.8951 110.913 44.154C109.529 45.1584 109.62 46.8826 109.628 46.9998L116.314 46.9931Z" fill="#380C43"/>
<path d="M97.5455 17.0487C96.4587 16.8379 95.3325 17.0374 94.3832 17.6089C93.4339 18.1805 92.7281 19.0838 92.4014 20.1456C92.3331 20.3511 92.3489 20.5755 92.4454 20.7694C92.5419 20.9632 92.7111 21.1107 92.9158 21.1793C93.1206 21.2479 93.3441 21.232 93.5372 21.1351C93.7303 21.0383 93.8772 20.8684 93.9455 20.6628C93.9588 20.6109 94.3007 19.4324 95.4879 19.1127C96.6318 18.8047 97.4888 19.5798 97.5455 19.63V17.0487Z" fill="#380C43"/>
</svg>
