<svg width="29" height="18" viewBox="0 0 29 18" fill="none" xmlns="http://www.w3.org/2000/svg">
<path d="M1.3494 2.88653e-05C0.604388 2.88653e-05 0 0.597066 0 1.33372V16.6663C0 17.4028 0.604475 18 1.3494 18H27.6506C28.3956 18 29 17.403 29 16.6663V1.33369C29 0.597152 28.3955 0 27.6506 0H1.34937L1.3494 2.88653e-05ZM9.50926 2.16673C11.1646 2.16673 12.6849 2.73594 13.8783 3.68673C12.8742 4.57466 12.1254 5.74125 11.7559 7.06353H12.335C12.676 5.97269 13.2955 5.0015 14.1121 4.23131C14.9287 5.0015 15.5482 5.97269 15.8893 7.06353H16.4774C16.1028 5.74821 15.3529 4.58859 14.3496 3.70645C15.5452 2.74359 17.0715 2.1667 18.734 2.1667C22.5704 2.1667 25.6804 5.2408 25.6804 9.03315C25.6804 12.8255 22.5704 15.8996 18.734 15.8996C17.0439 15.8996 15.4941 15.3034 14.2897 14.3115C15.3671 13.3851 16.1613 12.1433 16.5246 10.7305H15.9581C15.6356 11.9163 14.9865 12.9709 14.1121 13.7956C13.2377 12.9709 12.5895 11.9163 12.267 10.7305H11.7277C12.0931 12.1228 12.8769 13.3473 13.9381 14.2649C12.7359 15.2445 11.1922 15.8333 9.50924 15.8333C5.67283 15.8333 2.56287 12.774 2.56287 9.00002C2.56287 5.22604 5.67283 2.16673 9.50926 2.16673ZM18.2129 6.99365C17.3782 6.99365 16.5662 7.71485 16.5662 9.06898C16.5662 9.96691 17.0048 10.5594 17.8676 10.5594C18.1116 10.5595 18.5002 10.4609 18.5002 10.4609L18.6289 9.67628C18.6289 9.67628 18.2742 9.85361 18.0307 9.85361C17.5179 9.85361 17.3121 9.46377 17.3121 9.04481C17.3121 8.19489 17.7533 7.7272 18.2446 7.7272C18.613 7.7272 18.9089 7.93323 18.9089 7.93323L19.0267 7.17009C19.0267 7.17009 18.5887 6.99365 18.2129 6.99365H18.2129ZM25.23 7.05994L24.5041 7.06172L24.3482 8.0058C24.3482 8.0058 24.0753 7.63944 23.6486 7.63944C22.9851 7.63944 22.4324 8.41848 22.4324 9.31441C22.4324 9.89273 22.7265 10.46 23.3296 10.46C23.7634 10.46 24.0038 10.1653 24.0038 10.1653L23.9721 10.417H24.6772L25.23 7.05994ZM4.43879 7.06978L3.86062 10.4349H4.55752L4.99797 7.89743L5.06322 10.4349H5.56164L6.49147 7.89743L6.07912 10.4349H6.81952L7.39047 7.06978H6.24497L5.53174 9.13436L5.4946 7.06981H4.43882L4.43879 7.06978ZM11.7196 7.28833C11.7039 7.30395 11.2982 9.61591 11.2982 9.89749C11.2982 10.3144 11.5347 10.5006 11.8673 10.4976C12.1057 10.4956 12.2903 10.4364 12.3757 10.4116C12.3847 10.4093 12.402 10.4045 12.402 10.4045L12.4917 9.80256C12.443 9.80256 12.3711 9.82317 12.3078 9.82317C12.0594 9.82317 12.0319 9.69256 12.0477 9.59565L12.248 8.36767H12.6259L12.7174 7.70213H12.3612L12.4337 7.28833H11.7196ZM20.1432 7.62691C19.6568 7.62691 19.2841 7.78545 19.2841 7.78545L19.1808 8.40349C19.1808 8.40349 19.4886 8.27718 19.9538 8.27718C20.2179 8.27718 20.4114 8.30704 20.4114 8.52439C20.4114 8.65641 20.3879 8.70534 20.3879 8.70534C20.3879 8.70534 20.179 8.68742 20.0825 8.68742C19.4691 8.68742 18.8246 8.95312 18.8246 9.7524C18.8246 10.3822 19.2477 10.5263 19.5097 10.5263C20.0102 10.5263 20.226 10.1977 20.2375 10.1967L20.2139 10.4708H20.8383L21.1174 8.49306C21.1175 7.65389 20.3943 7.62689 20.1432 7.62689V7.62691ZM8.42992 7.6305C7.94173 7.6305 7.56717 7.78903 7.56717 7.78903L7.46387 8.40708C7.46387 8.40708 7.77272 8.28076 8.23962 8.28076C8.50473 8.28076 8.69909 8.31074 8.69909 8.52797C8.69909 8.65994 8.67552 8.70892 8.67552 8.70892C8.67552 8.70892 8.46605 8.69101 8.36922 8.69101C7.75346 8.69101 7.10682 8.95628 7.10682 9.7551C7.10682 10.3845 7.53074 10.529 7.79374 10.529C8.29605 10.529 8.51265 10.2003 8.52419 10.1994L8.50062 10.4734H9.12774L9.40776 8.49665C9.40776 7.65796 8.68198 7.63047 8.42992 7.63047V7.6305ZM10.6448 7.6305C10.1206 7.6305 9.58812 7.83965 9.58812 8.55397C9.58812 9.36334 10.4753 9.28157 10.4753 9.62251C10.4753 9.85008 10.2277 9.86886 10.0367 9.86886C9.70612 9.86886 9.40884 9.75596 9.40776 9.76137L9.31262 10.3794C9.32973 10.3846 9.51382 10.4663 10.1083 10.4663C10.2679 10.4663 11.1804 10.5063 11.1804 9.56699C11.1804 8.6888 10.3358 8.86287 10.3358 8.51006C10.3358 8.33442 10.4729 8.27898 10.7245 8.27898C10.8245 8.27898 11.2094 8.31034 11.2094 8.31034L11.2982 7.68602C11.2982 7.6861 11.0498 7.6305 10.6448 7.6305H10.6448ZM13.9218 7.6305C13.1933 7.63064 12.654 8.40487 12.654 9.27947C12.654 10.2889 13.3297 10.529 13.9055 10.529C14.4369 10.529 14.6713 10.4116 14.6713 10.4116L14.7981 9.72285C14.7981 9.72285 14.3938 9.89841 14.0287 9.89841C13.2508 9.89841 13.3871 9.32605 13.3871 9.32605H14.8598C14.8598 9.32605 14.9549 8.8635 14.9549 8.67487C14.9549 8.20423 14.7173 7.6305 13.9218 7.6305H13.9218ZM16.5599 7.66005C16.2317 7.66005 15.988 8.09626 15.988 8.09626L16.0533 7.69588H15.3718L14.9142 10.46H15.6672C15.8805 9.27964 15.9195 8.3212 16.4285 8.49665C16.5176 8.03977 16.604 7.86327 16.7013 7.66991C16.7013 7.66991 16.6556 7.66005 16.5599 7.66005H16.5599ZM22.6617 7.66005C22.3335 7.66005 22.0898 8.09626 22.0898 8.09626L22.1551 7.69588H21.4736L21.0159 10.46H21.7681C21.9815 9.27964 22.0214 8.3212 22.5303 8.49665C22.6195 8.03977 22.7059 7.86327 22.8031 7.66991C22.8031 7.66991 22.7574 7.66005 22.6617 7.66005H22.6617ZM13.9182 8.2539C14.3319 8.2539 14.2562 8.71548 14.2562 8.7528H13.4415C13.4415 8.70516 13.5186 8.2539 13.9182 8.2539H13.9182ZM23.7628 8.30765C24.0261 8.30756 24.1615 8.48338 24.1615 8.897C24.1615 9.27231 23.97 9.7739 23.5734 9.7739C23.3101 9.7739 23.1864 9.55902 23.1864 9.22215C23.1864 8.67132 23.4413 8.30765 23.7628 8.30765H23.7628ZM20.1441 9.24812C20.2515 9.24826 20.2737 9.25858 20.2918 9.26336C20.2892 9.26293 20.2887 9.26342 20.2991 9.26514C20.3127 9.38825 20.2238 9.96559 19.7943 9.96559C19.5728 9.96559 19.5161 9.79153 19.5161 9.6888C19.5161 9.48851 19.6216 9.24812 20.1441 9.24812ZM8.43084 9.25081C8.55285 9.25095 8.56616 9.26443 8.58672 9.26784C8.60035 9.39088 8.51114 9.96737 8.08012 9.96737C7.85777 9.96737 7.80009 9.79414 7.80009 9.69149C7.80009 9.49132 7.90623 9.25081 8.43084 9.25081Z" fill="#212529"/>
</svg>
