<svg width="28" height="28" viewBox="0 0 28 28" fill="none" xmlns="http://www.w3.org/2000/svg">
<path fill-rule="evenodd" clip-rule="evenodd" d="M0 5.40359C0 4.99664 0.329895 4.66675 0.736842 4.66675H27.2632C27.6701 4.66675 28 4.99664 28 5.40359C28 5.81054 27.6701 6.14043 27.2632 6.14043H0.736842C0.329895 6.14043 0 5.81054 0 5.40359ZM0 14.2457C0 13.8387 0.329895 13.5089 0.736842 13.5089H27.2632C27.6701 13.5089 28 13.8387 28 14.2457C28 14.6526 27.6701 14.9825 27.2632 14.9825H0.736842C0.329895 14.9825 0 14.6526 0 14.2457ZM0 23.0878C0 22.6809 0.329895 22.351 0.736842 22.351H27.2632C27.6701 22.351 28 22.6809 28 23.0878C28 23.4947 27.6701 23.8246 27.2632 23.8246H0.736842C0.329895 23.8246 0 23.4947 0 23.0878Z" fill="#58006D"/>
</svg>
