<svg width="24" height="24" viewBox="0 0 24 24" fill="none" xmlns="http://www.w3.org/2000/svg">
<path fill-rule="evenodd" clip-rule="evenodd" d="M0 4.63158C0 4.28277 0.282768 4 0.631579 4H23.3684C23.7172 4 24 4.28277 24 4.63158C24 4.98039 23.7172 5.26316 23.3684 5.26316H0.631579C0.282768 5.26316 0 4.98039 0 4.63158ZM0 12.2105C0 11.8617 0.282768 11.5789 0.631579 11.5789H23.3684C23.7172 11.5789 24 11.8617 24 12.2105C24 12.5593 23.7172 12.8421 23.3684 12.8421H0.631579C0.282768 12.8421 0 12.5593 0 12.2105ZM0 19.7895C0 19.4407 0.282768 19.1579 0.631579 19.1579H23.3684C23.7172 19.1579 24 19.4407 24 19.7895C24 20.1383 23.7172 20.4211 23.3684 20.4211H0.631579C0.282768 20.4211 0 20.1383 0 19.7895Z" fill="#212529"/>
</svg>
