<svg width="24" height="24" viewBox="0 0 24 24" fill="none" xmlns="http://www.w3.org/2000/svg">
<path fill-rule="evenodd" clip-rule="evenodd" d="M19.5 8C19.6289 8 19.7333 8.10447 19.7333 8.23333V11.2667H22.7667C22.8955 11.2667 23 11.3711 23 11.5C23 11.6289 22.8955 11.7333 22.7667 11.7333H19.7333V14.7667C19.7333 14.8955 19.6289 15 19.5 15C19.3711 15 19.2667 14.8955 19.2667 14.7667V11.7333H16.2333C16.1045 11.7333 16 11.6289 16 11.5C16 11.3711 16.1045 11.2667 16.2333 11.2667H19.2667V8.23333C19.2667 8.10447 19.3711 8 19.5 8Z" fill="#212529" stroke="#212529" stroke-width="0.5" stroke-linecap="round" stroke-linejoin="round"/>
<path fill-rule="evenodd" clip-rule="evenodd" d="M9.47369 2.15781C7.03201 2.15781 5.05264 4.13718 5.05264 6.57886C5.05264 9.02054 7.03201 10.9999 9.47369 10.9999C11.9154 10.9999 13.8947 9.02054 13.8947 6.57886C13.8947 4.13718 11.9154 2.15781 9.47369 2.15781ZM3.78948 6.57886C3.78948 3.43956 6.33439 0.894653 9.47369 0.894653C12.613 0.894653 15.1579 3.43956 15.1579 6.57886C15.1579 9.71817 12.613 12.2631 9.47369 12.2631C6.33439 12.2631 3.78948 9.71817 3.78948 6.57886ZM1.66487 16.8227C2.73086 15.7567 4.17666 15.1579 5.68421 15.1579H12.7895C14.297 15.1579 15.7428 15.7567 16.8088 16.8227C17.8748 17.8887 18.4737 19.3345 18.4737 20.8421V23.3684C18.4737 23.7172 18.1909 24 17.8421 24C17.4933 24 17.2105 23.7172 17.2105 23.3684V20.8421C17.2105 19.6695 16.7447 18.545 15.9156 17.7159C15.0865 16.8868 13.962 16.421 12.7895 16.421H5.68421C4.51167 16.421 3.38716 16.8868 2.55805 17.7159C1.72895 18.545 1.26316 19.6695 1.26316 20.8421V23.3684C1.26316 23.7172 0.98039 24 0.631579 24C0.282768 24 0 23.7172 0 23.3684V20.8421C0 19.3345 0.59887 17.8887 1.66487 16.8227Z" fill="#212529"/>
</svg>
