<svg width="24" height="24" viewBox="0 0 24 24" fill="none" xmlns="http://www.w3.org/2000/svg">
<path fill-rule="evenodd" clip-rule="evenodd" d="M0.152814 0.152814C0.356566 -0.050938 0.686913 -0.050938 0.890664 0.152814L10.1548 9.4169C10.1548 9.41692 10.1547 9.41688 10.1548 9.4169C10.1559 9.41803 10.1571 9.41923 10.1582 9.42038C10.1582 9.42039 10.1582 9.42036 10.1582 9.42038L14.5795 13.8417C14.5795 13.8417 14.5795 13.8417 14.5795 13.8417C14.5807 13.8429 14.5819 13.8441 14.5831 13.8453C14.5831 13.8453 14.5831 13.8453 14.5831 13.8453L18.5672 17.8293C18.5673 17.8294 18.5671 17.8292 18.5672 17.8293L23.8472 23.1093C24.0509 23.3131 24.0509 23.6434 23.8472 23.8472C23.6434 24.0509 23.3131 24.0509 23.1093 23.8472L18.1451 18.8829C16.3461 20.1398 14.2097 20.8335 12.0085 20.8695L12 20.8696C8.13939 20.8696 5.14147 18.6645 3.14111 16.5308C2.13617 15.4588 1.36738 14.3889 0.849762 13.5874C0.590628 13.1862 0.393593 12.8509 0.260618 12.6145C0.194111 12.4962 0.143571 12.4026 0.109244 12.3378C0.092079 12.3053 0.0789628 12.2801 0.0699267 12.2625L0.0594344 12.242L0.0564892 12.2361L0.055593 12.2344C0.0554812 12.2341 0.0550815 12.2333 0.521739 12L0.0550815 12.2333C-0.0207332 12.0817 -0.018151 11.9027 0.0620058 11.7533C1.30127 9.44383 2.98632 7.40553 5.01753 5.75538L0.152814 0.890664C-0.0509379 0.686913 -0.0509379 0.356566 0.152814 0.152814ZM5.75954 6.4974C3.87001 8.01444 2.29231 9.88414 1.11451 12.0031C1.13137 12.0337 1.1499 12.067 1.17009 12.1029C1.29391 12.323 1.48002 12.6399 1.72632 13.0213C2.21957 13.785 2.95078 14.802 3.90237 15.8171C5.81426 17.8564 8.554 19.8245 11.9957 19.8261C13.9251 19.7937 15.7994 19.2032 17.3945 18.1323L14.1971 14.935C13.9561 15.1269 13.6911 15.2881 13.4083 15.4141C12.9603 15.6137 12.4767 15.721 11.9863 15.7297C11.496 15.7383 11.0089 15.6481 10.5541 15.4645C10.0993 15.2808 9.68624 15.0074 9.33944 14.6606C8.99263 14.3138 8.71923 13.9007 8.53555 13.4459C8.35186 12.9911 8.26165 12.504 8.27031 12.0137C8.27896 11.5233 8.3863 11.0397 8.58591 10.5917C8.71191 10.3089 8.87306 10.0439 9.06503 9.80288L5.75954 6.4974ZM9.80952 10.5474C9.70361 10.6935 9.61288 10.8507 9.53905 11.0164C9.39647 11.3364 9.3198 11.6818 9.31362 12.0321C9.30744 12.3823 9.37188 12.7303 9.50308 13.0551C9.63428 13.3799 9.82957 13.675 10.0773 13.9227C10.325 14.1704 10.6201 14.3657 10.9449 14.4969C11.2697 14.6281 11.6177 14.6926 11.9679 14.6864C12.3182 14.6802 12.6636 14.6035 12.9836 14.4609C13.1493 14.3871 13.3065 14.2964 13.4526 14.1905L9.80952 10.5474ZM10.8839 4.24063L21.1853 14.5514C21.8207 13.748 22.3894 12.8938 22.8858 11.9974C22.8688 11.9666 22.8502 11.9332 22.8299 11.8971C22.7061 11.677 22.52 11.3601 22.2737 10.9787C21.7804 10.215 21.0492 9.19795 20.0976 8.18293C18.1849 6.14273 15.4437 4.17391 12 4.17391L11.9988 4.17391C11.6258 4.17304 11.2535 4.19536 10.8839 4.24063ZM23.4783 12L23.9449 11.7667C24.0206 11.918 24.0182 12.0967 23.9384 12.246C23.2879 13.463 22.512 14.6087 21.6236 15.6646C21.5294 15.7765 21.3927 15.8437 21.2466 15.85C21.1006 15.8562 20.9586 15.8009 20.8553 15.6975L9.4396 4.27137C9.30579 4.13743 9.25503 3.94151 9.30698 3.75945C9.35893 3.57738 9.50544 3.43775 9.68978 3.3946C10.4472 3.21731 11.2227 3.12866 12.0006 3.13044C15.8609 3.13066 18.8586 5.33564 20.8589 7.46925C21.8638 8.54118 22.6326 9.61112 23.1502 10.4126C23.4094 10.8138 23.6064 11.1491 23.7394 11.3855C23.8059 11.5037 23.8564 11.5974 23.8908 11.6622C23.9079 11.6947 23.921 11.7199 23.9301 11.7375L23.9406 11.758L23.9435 11.7639L23.9444 11.7656L23.9449 11.7667C23.945 11.7669 23.9449 11.7667 23.4783 12Z" fill="#212529"/>
</svg>
