<svg width="45" height="11" viewBox="0 0 45 11" fill="none" xmlns="http://www.w3.org/2000/svg">
<path fill-rule="evenodd" clip-rule="evenodd" d="M1.93878 0H5.40816C6.63265 0 7.44898 0.277311 8.06122 0.739496C8.46939 1.20168 8.67347 1.94118 8.46939 2.77311C8.16327 4.80672 6.83673 5.82353 4.4898 5.82353H3.36735C3.06122 5.82353 2.85714 6.0084 2.85714 6.19328L2.44898 8.41176C2.34694 8.59664 2.14286 8.78151 1.93878 8.78151H0.306122C0.102041 8.78151 0 8.68907 0 8.5042L1.42857 0.369748C1.53061 0.184874 1.73469 0 1.93878 0ZM3.77551 4.15966C4.69388 4.15966 5.61225 4.15966 5.81633 3.05042C5.91837 2.58823 5.81633 2.31092 5.71429 2.21849C5.40816 1.84874 4.79592 1.84874 4.18367 1.84874H3.97959C3.77551 1.84874 3.67347 1.94118 3.67347 2.03361L3.26531 4.15966H3.77551ZM26.9386 0H30.408C31.5304 0 32.4488 0.277311 33.061 0.739496C33.4692 1.20168 33.6733 1.94118 33.4692 2.77311C33.1631 4.80672 31.8365 5.82353 29.4896 5.82353H28.3672C28.061 5.82353 27.857 6.0084 27.857 6.19328L27.4488 8.5042C27.4488 8.68907 27.3468 8.78151 27.1427 8.78151H25.3059C25.1019 8.78151 24.9998 8.68907 24.9998 8.5042L26.4284 0.369748C26.5304 0.184874 26.7345 0 26.9386 0ZM28.7753 4.15966C29.6937 4.15966 30.6121 4.15966 30.8161 3.05042C30.8161 2.58823 30.8161 2.31092 30.6121 2.21849C30.3059 1.84874 29.6937 1.84874 29.0814 1.84874H28.8774C28.6733 1.84874 28.5712 1.94118 28.5712 2.03361L28.1631 4.15966H28.7753ZM15.9183 2.95782H14.2856C14.1836 2.95782 13.9795 3.05026 13.9795 3.1427L13.8774 3.60488L13.7754 3.42001C13.3672 2.95782 12.653 2.77295 11.8366 2.77295C9.99989 2.77295 8.36724 4.06707 8.06112 5.82337C7.85704 6.74774 8.16316 7.57967 8.67336 8.13429C9.18357 8.68892 9.89785 8.87379 10.8162 8.87379C12.3468 8.87379 13.1632 8.04186 13.1632 8.04186L13.0611 8.50404C13.0611 8.68892 13.1632 8.78135 13.3672 8.78135H14.8978C15.1019 8.78135 15.306 8.59648 15.4081 8.4116L16.3264 3.23513C16.2244 3.1427 16.0203 2.95782 15.9183 2.95782ZM13.5713 5.91581C13.3672 6.74774 12.653 7.3948 11.6325 7.3948C11.1223 7.3948 10.7142 7.20992 10.5101 7.02505C10.306 6.74774 10.204 6.37799 10.204 5.91581C10.306 5.08387 11.1223 4.43681 12.0407 4.43681C12.5509 4.43681 12.857 4.62169 13.1632 4.80656C13.4693 5.08387 13.5713 5.54606 13.5713 5.91581ZM39.1839 2.95782H40.8165C40.9724 2.95782 41.0688 3.06571 41.1511 3.15787C41.1765 3.18634 41.2006 3.21331 41.2247 3.23513L40.3063 8.4116C40.2043 8.59648 40.0002 8.78135 39.7961 8.78135H38.2655C38.0614 8.78135 37.9594 8.68892 37.9594 8.50404L38.0614 8.04186C38.0614 8.04186 37.2451 8.87379 35.7145 8.87379C34.7961 8.87379 34.0818 8.68892 33.5716 8.13429C33.0614 7.57967 32.7553 6.74774 32.9594 5.82337C33.2655 4.06707 34.8981 2.77295 36.7349 2.77295C37.5512 2.77295 38.2655 2.95782 38.6737 3.42001L38.7757 3.60488L38.8777 3.1427C38.8777 3.05026 39.0818 2.95782 39.1839 2.95782ZM36.5308 7.3948C37.5512 7.3948 38.2655 6.74774 38.4696 5.91581C38.5716 5.54606 38.4696 5.08387 38.0614 4.80656C37.7553 4.62169 37.4492 4.43681 36.939 4.43681C36.0206 4.43681 35.2043 5.08387 35.1022 5.91581C35.1022 6.37799 35.2043 6.74774 35.4084 7.02505C35.6124 7.20992 36.0206 7.3948 36.5308 7.3948ZM24.7962 2.95801H23.0615C22.8574 2.95801 22.7554 3.05044 22.6533 3.14288L20.4084 6.28574L19.388 3.32776C19.286 3.14288 19.184 3.05044 18.8778 3.05044H17.2452C17.0411 3.05044 16.9391 3.23532 16.9391 3.42019L18.7758 8.31935L17.0411 10.5378C16.9391 10.7227 17.0411 11 17.2452 11H18.8778C19.0819 11 19.184 10.9076 19.286 10.8152L24.8982 3.51263C25.2044 3.23532 25.0003 2.95801 24.7962 2.95801ZM41.3267 8.59662L42.7553 0.27729C42.8573 0.0924158 42.9594 -2.11522e-05 43.0614 0.0924158H44.6941C44.8981 0.0924158 45.0002 0.184853 45.0002 0.369727L43.5716 8.50418C43.4696 8.68905 43.2655 8.87393 43.0614 8.87393H41.6328C41.4288 8.87393 41.3267 8.78149 41.3267 8.59662Z" fill="#212529"/>
</svg>
