<svg width="24" height="24" viewBox="0 0 24 24" fill="none" xmlns="http://www.w3.org/2000/svg">
<path d="M20.5 21C21.327 21 22 20.327 22 19.5V16C22 15.173 21.327 14.5 20.5 14.5C19.33 14.5 18.18 14.316 17.08 13.953C16.8171 13.87 16.5365 13.8599 16.2683 13.9238C16.0001 13.9877 15.7542 14.1233 15.557 14.316L14.117 15.756C11.6281 14.4048 9.58403 12.3614 8.232 9.873L9.66 8.436C10.072 8.054 10.22 7.473 10.044 6.914C9.68174 5.8123 9.49808 4.65973 9.5 3.5C9.5 2.673 8.827 2 8 2H4.5C3.673 2 3 2.673 3 3.5C3 13.15 10.85 21 20.5 21ZM4.5 3H8C8.13261 3 8.25979 3.05268 8.35355 3.14645C8.44732 3.24021 8.5 3.36739 8.5 3.5C8.5 4.777 8.7 6.031 9.093 7.22C9.12187 7.30628 9.12525 7.39906 9.10273 7.48721C9.0802 7.57536 9.03273 7.65515 8.966 7.717L7.01 9.683C8.647 12.911 11.065 15.329 14.308 16.98L16.257 15.03C16.3235 14.9642 16.4067 14.9177 16.4975 14.8955C16.5884 14.8733 16.6836 14.8762 16.773 14.904C17.969 15.3 19.223 15.5 20.5 15.5C20.775 15.5 21 15.725 21 16V19.5C21 19.775 20.775 20 20.5 20C11.402 20 4 12.598 4 3.5C4 3.36739 4.05268 3.24021 4.14645 3.14645C4.24021 3.05268 4.36739 3 4.5 3Z" fill="#212529"/>
</svg>
