<svg width="37" height="12" viewBox="0 0 37 12" fill="none" xmlns="http://www.w3.org/2000/svg">
<path fill-rule="evenodd" clip-rule="evenodd" d="M7.621 0H11.1197V3.49242H7.621V0ZM8.21877 0.602858H10.5193V2.88696H8.21877V0.602858ZM8.76738 1.14855H9.96552V2.34127H8.76738V1.14855ZM1.83473 1.88653H3.72898C5.28165 1.88653 6.55483 3.15461 6.55483 4.70853C6.55483 6.25466 5.28165 7.52274 3.72898 7.52274H1.83473V9.68731H0V7.52274V3.26375H1.83473V1.88653ZM1.83473 3.27155V6.13772H3.39516C4.19478 6.13772 4.83914 5.49589 4.83914 4.70853C4.83914 3.91338 4.19478 3.27155 3.39516 3.27155H1.83473ZM7.621 4.68514H9.44796V9.68731H7.621V4.68514ZM19.2065 1.88653H21.1007C22.6534 1.88653 23.9266 3.15461 23.9266 4.70853C23.9266 6.25466 22.6534 7.52274 21.1007 7.52274H19.2065V9.68731H17.3717V7.52274V3.26375H19.2065V1.88653ZM19.2065 3.27155V6.13772H20.7669C21.5588 6.13772 22.2109 5.49589 22.2109 4.70853C22.2109 3.91338 21.5588 3.27155 20.7669 3.27155H19.2065ZM13.71 3.62495C14.7529 3.62495 15.6793 4.11867 16.2486 4.86964L15.2575 5.86488C14.9832 5.35037 14.4579 4.99697 13.8653 4.99697C12.9777 4.99697 12.2609 5.76353 12.2609 6.7068C12.2609 7.65006 12.9777 8.41663 13.8653 8.41663C14.4579 8.41663 14.9832 8.06323 15.2575 7.54872L16.2486 8.53616C15.6793 9.29493 14.7529 9.78865 13.71 9.78865C11.9633 9.78865 10.5426 8.41143 10.5426 6.7094C10.5426 5.00736 11.9633 3.62495 13.71 3.62495ZM31.9098 12H33.7084L37 3.6977H35.2015L33.6928 7.50715L32.1842 3.6977H30.3857L32.7975 9.77566L31.9098 12ZM29.9509 9.55998H28.287V9.09485C26.3125 10.3837 24.6615 9.5366 24.4622 8.27111C24.2397 6.85751 25.0988 5.83369 28.4578 6.11174C28.4578 4.83846 26.5557 4.67475 25.2696 5.56605L24.6693 4.37332C27.0371 3.11304 29.9457 3.50541 29.9509 5.59723V9.55998ZM28.5069 7.0628H27.0862C25.6733 7.0628 25.9838 8.89736 27.3373 8.60892C28.0334 8.4634 28.4629 7.99827 28.5069 7.0628Z" fill="#212529"/>
</svg>
