<svg width="28" height="28" viewBox="0 0 28 28" fill="none" xmlns="http://www.w3.org/2000/svg">
<path d="M14.076 2C7.497 2.001 4 6.216 4 10.812C4 12.943 5.191 15.602 7.098 16.445C7.642 16.69 7.57 16.391 8.038 14.601C8.075 14.452 8.056 14.323 7.936 14.184C5.21 11.031 7.404 4.549 13.687 4.549C22.78 4.549 21.081 17.131 15.269 17.131C13.771 17.131 12.655 15.955 13.008 14.5C13.436 12.767 14.274 10.904 14.274 9.655C14.274 6.507 9.584 6.974 9.584 11.145C9.584 12.434 10.04 13.304 10.04 13.304C10.04 13.304 8.531 19.4 8.251 20.539C7.777 22.467 8.315 25.588 8.362 25.857C8.391 26.005 8.557 26.052 8.65 25.93C8.799 25.735 10.623 23.133 11.134 21.252C11.32 20.567 12.083 17.787 12.083 17.787C12.586 18.695 14.036 19.455 15.581 19.455C20.177 19.455 23.499 15.415 23.499 10.402C23.483 5.596 19.37 2 14.076 2V2Z" fill="#212529"/>
</svg>
