<svg width="57" height="20" viewBox="0 0 57 20" fill="none" xmlns="http://www.w3.org/2000/svg">
<path d="M23.4509 19.0192C23.2561 19.0192 23.0967 18.8614 23.0967 18.6686V7.20598C23.0967 4.90118 24.9916 3.03455 27.3114 3.03455L30.7292 3.04332C33.0491 3.05208 34.9351 4.9187 34.9351 7.21474V9.65975C34.9351 11.9646 33.0402 13.8312 30.7204 13.8312H25.8859C25.6911 13.8312 25.5317 13.6734 25.5317 13.4806C25.5317 13.2878 25.6911 13.1301 25.8859 13.1301H30.7204C32.6506 13.1301 34.2267 11.579 34.2267 9.65975V7.20598C34.2267 5.3043 32.6595 3.7444 30.7381 3.7444L27.3203 3.73563C25.39 3.73563 23.8139 5.28677 23.8139 7.20598V18.6686C23.8139 18.8614 23.6546 19.0192 23.4509 19.0192Z" fill="#939598"/>
<path d="M38.6068 13.8694C38.412 13.8694 38.2526 13.7116 38.2526 13.5188V4.95691C38.2526 4.29089 37.7037 3.73879 37.0219 3.73879H35.5344C35.3396 3.73879 35.1802 3.58104 35.1802 3.38825C35.1802 3.19545 35.3396 3.03771 35.5344 3.03771H37.0219C38.0933 3.03771 38.961 3.89653 38.961 4.95691V13.5188C38.961 13.7116 38.8016 13.8694 38.6068 13.8694Z" fill="#939598"/>
<path d="M38.2841 2.05224L37.6112 1.38622C37.4429 1.21971 37.4429 0.956808 37.6112 0.790302L38.2841 0.124275C38.4523 -0.0422308 38.7268 -0.0422308 38.8862 0.124275L39.5591 0.790302C39.7274 0.956808 39.7274 1.21971 39.5591 1.38622L38.8862 2.05224C38.7268 2.21875 38.4523 2.21875 38.2841 2.05224Z" fill="#32BCAD"/>
<path d="M49.1969 8.28796C48.7985 8.28796 48.4177 8.13022 48.1344 7.84979L44.69 4.44079C44.2207 3.97633 43.5921 3.71342 42.928 3.71342H41.4582C41.2634 3.71342 41.104 3.55568 41.104 3.36288C41.104 3.17009 41.2634 3.01234 41.4582 3.01234H42.928C43.7869 3.01234 44.5926 3.34535 45.1947 3.94127L48.6391 7.35027C48.7896 7.49925 48.9844 7.57812 49.1969 7.57812C49.4094 7.57812 49.6042 7.49925 49.7547 7.35027L53.1814 3.9588C53.7835 3.36288 54.5981 3.02987 55.4481 3.02987H56.6435C56.8382 3.02987 56.9976 3.18761 56.9976 3.38041C56.9976 3.5732 56.8382 3.73095 56.6435 3.73095H55.4481C54.784 3.73095 54.1554 3.98509 53.6861 4.45832L50.2506 7.85855C49.9672 8.13899 49.5954 8.28796 49.1969 8.28796Z" fill="#939598"/>
<path d="M42.928 13.7891H41.4582C41.2634 13.7891 41.104 13.6313 41.104 13.4385C41.104 13.2457 41.2634 13.088 41.4582 13.088H42.928C43.5921 13.088 44.2207 12.8338 44.69 12.3606L48.1344 8.95162C48.4177 8.67118 48.7896 8.51344 49.1969 8.51344C49.5954 8.51344 49.9761 8.67118 50.2594 8.95162L53.6861 12.3431C54.1554 12.8076 54.784 13.0705 55.4481 13.0705H56.6435C56.8382 13.0705 56.9976 13.2282 56.9976 13.421C56.9976 13.6138 56.8382 13.7715 56.6435 13.7715H55.4481C54.5892 13.7715 53.7835 13.4385 53.1814 12.8426L49.7547 9.45113C49.6042 9.30215 49.4094 9.22329 49.1969 9.22329C48.9844 9.22329 48.7896 9.30215 48.6391 9.45113L45.1947 12.8601C44.5926 13.4648 43.7869 13.7891 42.928 13.7891Z" fill="#939598"/>
<path d="M14.6771 15.6148C13.9422 15.6148 13.2427 15.3344 12.7203 14.8173L9.89577 12.0218C9.70097 11.829 9.35565 11.829 9.152 12.0218L6.3186 14.8261C5.79619 15.3432 5.10555 15.6236 4.36178 15.6236H3.80396L7.38113 19.164C8.49678 20.2682 10.3119 20.2682 11.4276 19.164L15.0136 15.6148H14.6771Z" fill="#32BCAD"/>
<path d="M4.3666 5.72946C5.10152 5.72946 5.80101 6.00989 6.32342 6.52693L9.15683 9.33125C9.36048 9.53281 9.69694 9.53281 9.9006 9.33125L12.7251 6.5357C13.2476 6.01865 13.9382 5.73822 14.682 5.73822H15.0184L11.4324 2.18901C10.3168 1.08481 8.5016 1.08481 7.38595 2.18901L3.80878 5.72946H4.3666Z" fill="#32BCAD"/>
<path d="M17.9836 8.67596L15.8143 6.5289C15.77 6.54643 15.7169 6.56396 15.6637 6.56396H14.6809C14.1674 6.56396 13.6715 6.76552 13.3085 7.12482L10.4928 9.92037C10.2271 10.1833 9.88183 10.3147 9.53651 10.3147C9.19119 10.3147 8.84586 10.1833 8.58023 9.92037L5.74683 7.11606C5.3838 6.75675 4.88795 6.55519 4.3744 6.55519H3.16135C3.10822 6.55519 3.06395 6.54643 3.01968 6.5289L0.8415 8.68472C-0.274152 9.78892 -0.274152 11.5854 0.8415 12.6896L3.01968 14.8455C3.06395 14.8279 3.11708 14.8192 3.16135 14.8192H4.3744C4.88795 14.8192 5.3838 14.6176 5.74683 14.2583L8.58023 11.454C9.09379 10.9457 9.98808 10.9457 10.4928 11.454L13.3173 14.2495C13.6804 14.6088 14.1762 14.8104 14.6898 14.8104H15.6726C15.7257 14.8104 15.7788 14.8192 15.8231 14.8455L17.9924 12.6984C19.1081 11.5767 19.1081 9.78016 17.9836 8.67596Z" fill="#32BCAD"/>
<path d="M26.3926 17.6938C26.2333 17.6938 26.0473 17.7289 25.8614 17.7727V18.4738C25.9853 18.5176 26.1359 18.5439 26.2775 18.5439C26.6317 18.5439 26.7999 18.43 26.7999 18.1145C26.7999 17.8253 26.6671 17.6938 26.3926 17.6938ZM25.7463 18.9908V17.6062H25.8437L25.8525 17.6676C26.0208 17.6325 26.2421 17.5799 26.4015 17.5799C26.5343 17.5799 26.6583 17.5974 26.7645 17.6851C26.8885 17.7815 26.9239 17.9392 26.9239 18.1145C26.9239 18.2985 26.8619 18.465 26.6937 18.5614C26.5786 18.6228 26.4192 18.6491 26.2864 18.6491C26.1447 18.6491 26.0031 18.6228 25.8614 18.5877V18.9908H25.7463Z" fill="#939598"/>
<path d="M27.8136 17.6896C27.4594 17.6896 27.3 17.8035 27.3 18.1102C27.3 18.4082 27.4594 18.5396 27.8136 18.5396C28.1678 18.5396 28.3272 18.4345 28.3272 18.119C28.3272 17.8298 28.1678 17.6896 27.8136 17.6896ZM28.274 18.5396C28.1589 18.6272 27.9995 18.6448 27.8225 18.6448C27.6365 18.6448 27.4771 18.6185 27.362 18.5396C27.2292 18.452 27.1761 18.303 27.1761 18.119C27.1761 17.9349 27.2292 17.7859 27.362 17.6896C27.4771 17.6107 27.6365 17.5844 27.8225 17.5844C28.0084 17.5844 28.1589 17.6107 28.274 17.6896C28.4068 17.7859 28.46 17.9349 28.46 18.1102C28.4511 18.303 28.4068 18.452 28.274 18.5396Z" fill="#939598"/>
<path d="M29.9451 18.6212L29.5467 17.7799H29.5378L29.1482 18.6212H29.042L28.6169 17.6134H28.7498L29.1039 18.4635H29.1128L29.4935 17.6134H29.5998L29.9894 18.4635H29.9982L30.3436 17.6134H30.4675L30.0425 18.6212H29.9451Z" fill="#939598"/>
<path d="M31.2363 17.688C30.9087 17.688 30.7936 17.8282 30.7759 18.0385H31.6967C31.6879 17.8107 31.5728 17.688 31.2363 17.688ZM31.2363 18.652C31.0415 18.652 30.9087 18.6257 30.8113 18.5381C30.6962 18.4329 30.6519 18.2839 30.6519 18.1174C30.6519 17.9509 30.705 17.7844 30.8379 17.688C30.953 17.6091 31.0946 17.5828 31.2363 17.5828C31.3691 17.5828 31.5196 17.6004 31.6436 17.6792C31.7941 17.7756 31.8207 17.9509 31.8207 18.1437H30.7759C30.7759 18.354 30.8467 18.5381 31.2452 18.5381C31.4311 18.5381 31.6082 18.5118 31.7764 18.4767V18.5819C31.6082 18.6169 31.4134 18.652 31.2363 18.652Z" fill="#939598"/>
<path d="M32.1638 18.6211V17.6133H32.2612L32.2701 17.6747C32.4826 17.6221 32.5888 17.587 32.7748 17.587H32.7925V17.701H32.7659C32.6065 17.701 32.5091 17.7185 32.2878 17.7798V18.6299H32.1638V18.6211Z" fill="#939598"/>
<path d="M33.4866 17.688C33.159 17.688 33.0439 17.8282 33.0262 18.0385H33.947C33.9382 17.8107 33.8231 17.688 33.4866 17.688ZM33.4866 18.652C33.2918 18.652 33.159 18.6257 33.0616 18.5381C32.9465 18.4329 32.9022 18.2839 32.9022 18.1174C32.9022 17.9509 32.9553 17.7844 33.0882 17.688C33.2033 17.6091 33.3449 17.5828 33.4866 17.5828C33.6194 17.5828 33.77 17.6004 33.8939 17.6792C34.0444 17.7756 34.071 17.9509 34.071 18.1437H33.0262C33.0262 18.354 33.097 18.5381 33.4955 18.5381C33.6814 18.5381 33.8585 18.5118 34.0267 18.4767V18.5819C33.8585 18.6169 33.6637 18.652 33.4866 18.652Z" fill="#939598"/>
<path d="M35.3792 17.7581C35.2552 17.7143 35.1047 17.688 34.963 17.688C34.6088 17.688 34.4406 17.8107 34.4406 18.1174C34.4406 18.4066 34.5823 18.5381 34.8479 18.5381C35.0073 18.5381 35.1932 18.503 35.3792 18.4592V17.7581ZM35.4057 18.6257L35.3969 18.5643C35.2287 18.5994 35.0073 18.652 34.8479 18.652C34.7151 18.652 34.5911 18.6344 34.4849 18.5468C34.3609 18.4504 34.3255 18.2927 34.3255 18.1174C34.3255 17.9334 34.3875 17.7669 34.5557 17.6705C34.6708 17.6004 34.8302 17.5828 34.9719 17.5828C35.1135 17.5828 35.2552 17.6091 35.3969 17.6442V17.1797H35.512V18.6169H35.4057V18.6257Z" fill="#939598"/>
<path d="M37.2493 17.6938C37.09 17.6938 36.904 17.7289 36.7181 17.7727V18.4738C36.8509 18.5176 36.9926 18.5439 37.1342 18.5439C37.4884 18.5439 37.6566 18.43 37.6566 18.1145C37.6566 17.8253 37.5238 17.6938 37.2493 17.6938ZM37.5592 18.5614C37.4441 18.6228 37.2848 18.649 37.1519 18.649C37.0014 18.649 36.8509 18.6228 36.6915 18.5702L36.6827 18.6228H36.603V17.1855H36.7181V17.6675C36.8863 17.6325 37.0988 17.5799 37.2582 17.5799C37.391 17.5799 37.515 17.5974 37.6212 17.6851C37.7452 17.7815 37.7806 17.9392 37.7806 18.1145C37.7895 18.2985 37.7275 18.465 37.5592 18.5614Z" fill="#939598"/>
<path d="M37.9398 19.0094V18.8955C38.0018 18.9043 38.0549 18.9043 38.0903 18.9043C38.2408 18.9043 38.3294 18.8604 38.4091 18.6939L38.4445 18.6151L37.9132 17.6073H38.0549L38.5153 18.4836H38.5242L38.958 17.6073H39.0908L38.5153 18.7465C38.4091 18.9568 38.2939 19.0182 38.0903 19.0182C38.046 19.0182 37.9929 19.0182 37.9398 19.0094Z" fill="#939598"/>
<path d="M40.7346 18.0444H40.3361V18.395H40.7346C41.0091 18.395 41.1153 18.3687 41.1153 18.2197C41.1153 18.0619 40.9737 18.0444 40.7346 18.0444ZM40.6638 17.4748H40.3361V17.8341H40.6638C40.9294 17.8341 41.0445 17.799 41.0445 17.6501C41.0445 17.4923 40.9117 17.4748 40.6638 17.4748ZM41.2836 18.5264C41.1419 18.6228 40.9648 18.6228 40.6372 18.6228H40.0351V17.2469H40.6283C40.9028 17.2469 41.0799 17.2469 41.2216 17.3346C41.319 17.3959 41.3633 17.4835 41.3633 17.6062C41.3633 17.7465 41.3013 17.8429 41.1419 17.913V17.9217C41.319 17.9655 41.4341 18.0532 41.4341 18.246C41.4252 18.3774 41.381 18.4651 41.2836 18.5264Z" fill="#939598"/>
<path d="M42.6352 18.1964C42.5201 18.1876 42.3961 18.1789 42.2633 18.1789C42.0508 18.1789 41.98 18.2227 41.98 18.3191C41.98 18.4067 42.042 18.4593 42.2014 18.4593C42.3342 18.4593 42.4935 18.433 42.6264 18.398V18.1964H42.6352ZM42.6972 18.6258L42.6883 18.5645C42.5113 18.6083 42.3076 18.6521 42.1305 18.6521C42.0243 18.6521 41.9003 18.6346 41.8206 18.582C41.7409 18.5294 41.7055 18.4418 41.7055 18.3366C41.7055 18.2227 41.7586 18.1175 41.8737 18.0649C41.98 18.0124 42.1217 18.0124 42.2545 18.0124C42.3607 18.0124 42.5024 18.0211 42.6264 18.0299V18.0124C42.6264 17.8546 42.5201 17.802 42.2368 17.802C42.1217 17.802 41.9888 17.8108 41.856 17.8196V17.618C41.9977 17.6092 42.1659 17.6005 42.2988 17.6005C42.4758 17.6005 42.6618 17.618 42.7769 17.6969C42.892 17.7757 42.9186 17.8897 42.9186 18.0474V18.6433H42.6972V18.6258Z" fill="#939598"/>
<path d="M44.2546 18.6212V18.0604C44.2546 17.8763 44.1572 17.8062 43.9889 17.8062C43.865 17.8062 43.7056 17.8413 43.5728 17.8676V18.6125H43.2894V17.6046H43.5196L43.5285 17.666C43.7056 17.6222 43.9092 17.5784 44.0775 17.5784C44.2014 17.5784 44.3343 17.5959 44.4316 17.6835C44.5113 17.7536 44.5468 17.8588 44.5468 17.999V18.6212H44.2546Z" fill="#939598"/>
<path d="M45.3439 18.6493C45.2111 18.6493 45.0694 18.6318 44.9632 18.5441C44.8392 18.4477 44.8038 18.29 44.8038 18.1147C44.8038 17.957 44.8569 17.7817 45.0163 17.6853C45.1402 17.6064 45.2996 17.5889 45.4679 17.5889C45.583 17.5889 45.6981 17.5977 45.8309 17.6064V17.8255C45.7246 17.8168 45.6007 17.808 45.5033 17.808C45.2288 17.808 45.1048 17.8956 45.1048 18.1235C45.1048 18.3426 45.2022 18.439 45.4236 18.439C45.5564 18.439 45.7069 18.4127 45.8486 18.3864V18.5967C45.6892 18.623 45.5121 18.6493 45.3439 18.6493Z" fill="#939598"/>
<path d="M46.6845 17.794C46.41 17.794 46.2949 17.8816 46.2949 18.1095C46.2949 18.3373 46.41 18.4337 46.6845 18.4337C46.9501 18.4337 47.0741 18.3549 47.0741 18.1183C47.0741 17.8992 46.959 17.794 46.6845 17.794ZM47.1803 18.5477C47.0564 18.6353 46.8881 18.6528 46.6933 18.6528C46.4897 18.6528 46.3214 18.6265 46.1975 18.5477C46.0558 18.4513 46.0027 18.3023 46.0027 18.1183C46.0027 17.9342 46.0558 17.7852 46.1975 17.6888C46.3214 17.61 46.4808 17.5837 46.6933 17.5837C46.897 17.5837 47.0564 17.61 47.1803 17.6888C47.322 17.7852 47.3663 17.9342 47.3663 18.1183C47.3663 18.3023 47.322 18.4513 47.1803 18.5477Z" fill="#939598"/>
<path d="M49.0115 18.6493C48.8433 18.6493 48.6573 18.623 48.5157 18.5091C48.3474 18.3689 48.3032 18.1585 48.3032 17.9395C48.3032 17.7379 48.3651 17.5013 48.5865 17.3611C48.7547 17.2559 48.9672 17.2296 49.1709 17.2296C49.3214 17.2296 49.4808 17.2384 49.6579 17.2559V17.5013C49.5074 17.4925 49.3303 17.475 49.1886 17.475C48.7902 17.475 48.6219 17.624 48.6219 17.9395C48.6219 18.2637 48.7813 18.4039 49.0735 18.4039C49.2594 18.4039 49.4719 18.3689 49.6933 18.325V18.5704C49.4719 18.6055 49.2417 18.6493 49.0115 18.6493Z" fill="#939598"/>
<path d="M50.5176 17.7619C50.2785 17.7619 50.19 17.8495 50.1723 17.9985H50.8629C50.854 17.8407 50.7567 17.7619 50.5176 17.7619ZM50.4822 18.647C50.3139 18.647 50.1634 18.6294 50.0483 18.533C49.9243 18.4366 49.8801 18.2789 49.8801 18.1124C49.8801 17.9547 49.9332 17.7881 50.0749 17.683C50.1988 17.5954 50.3582 17.5778 50.5264 17.5778C50.6681 17.5778 50.8452 17.5954 50.9692 17.683C51.1374 17.7969 51.1462 17.9722 51.1462 18.1825H50.1723C50.1811 18.3403 50.2608 18.4366 50.553 18.4366C50.7301 18.4366 50.9337 18.4104 51.0931 18.3841V18.5856C50.8983 18.6207 50.6858 18.647 50.4822 18.647Z" fill="#939598"/>
<path d="M52.4101 18.6212V18.0604C52.4101 17.8763 52.3127 17.8062 52.1445 17.8062C52.0205 17.8062 51.8612 17.8413 51.7283 17.8676V18.6125H51.445V17.6046H51.6752L51.6841 17.666C51.8612 17.6222 52.0648 17.5784 52.2331 17.5784C52.357 17.5784 52.4898 17.5959 52.5872 17.6835C52.6669 17.7536 52.7023 17.8588 52.7023 17.999V18.6212H52.4101Z" fill="#939598"/>
<path d="M53.5057 18.6493C53.3641 18.6493 53.2401 18.6142 53.1781 18.5091C53.125 18.439 53.1073 18.3426 53.1073 18.2024V17.8255H52.9036V17.6152H53.1073L53.1338 17.3085H53.3906V17.6152H53.7891V17.8255H53.3906V18.1498C53.3906 18.2286 53.3995 18.29 53.4172 18.3426C53.4437 18.4127 53.5146 18.439 53.6031 18.439C53.674 18.439 53.7536 18.4302 53.8068 18.4214V18.623C53.7094 18.6318 53.6031 18.6493 53.5057 18.6493Z" fill="#939598"/>
<path d="M54.0632 18.6212V17.6134H54.2934L54.3023 17.6748C54.4882 17.6222 54.6299 17.5871 54.807 17.5871C54.8159 17.5871 54.8247 17.5871 54.8424 17.5871V17.8237C54.807 17.8237 54.7716 17.8237 54.745 17.8237C54.6034 17.8237 54.4971 17.8413 54.3466 17.8763V18.6212H54.0632Z" fill="#939598"/>
<path d="M55.8855 18.1964C55.7704 18.1876 55.6465 18.1789 55.5136 18.1789C55.3011 18.1789 55.2303 18.2227 55.2303 18.3191C55.2303 18.4067 55.2923 18.4593 55.4517 18.4593C55.5845 18.4593 55.7439 18.433 55.8767 18.398V18.1964H55.8855ZM55.9475 18.6258L55.9386 18.5645C55.7616 18.6083 55.5579 18.6521 55.3808 18.6521C55.2746 18.6521 55.1506 18.6346 55.0709 18.582C54.9912 18.5294 54.9558 18.4418 54.9558 18.3366C54.9558 18.2227 55.0089 18.1175 55.124 18.0649C55.2303 18.0124 55.372 18.0124 55.5048 18.0124C55.611 18.0124 55.7527 18.0211 55.8767 18.0299V18.0124C55.8767 17.8546 55.7704 17.802 55.4871 17.802C55.372 17.802 55.2392 17.8108 55.1063 17.8196V17.618C55.248 17.6092 55.4162 17.6005 55.5491 17.6005C55.7261 17.6005 55.9121 17.618 56.0272 17.6969C56.1423 17.7757 56.1689 17.8897 56.1689 18.0474V18.6433H55.9475V18.6258Z" fill="#939598"/>
<path d="M56.5434 17.1841H56.8267V18.6213H56.5434V17.1841Z" fill="#939598"/>
</svg>
