<svg width="24" height="24" viewBox="0 0 24 24" fill="none" xmlns="http://www.w3.org/2000/svg">
<path fill-rule="evenodd" clip-rule="evenodd" d="M12 4C12.2946 4 12.5333 4.23878 12.5333 4.53333V11.4667H19.4667C19.7612 11.4667 20 11.7054 20 12C20 12.2946 19.7612 12.5333 19.4667 12.5333H12.5333V19.4667C12.5333 19.7612 12.2946 20 12 20C11.7054 20 11.4667 19.7612 11.4667 19.4667V12.5333H4.53333C4.23878 12.5333 4 12.2946 4 12C4 11.7054 4.23878 11.4667 4.53333 11.4667H11.4667V4.53333C11.4667 4.23878 11.7054 4 12 4Z" fill="#212529"/>
</svg>
