<svg width="24" height="24" viewBox="0 0 24 24" fill="none" xmlns="http://www.w3.org/2000/svg">
<path d="M21.5385 5.61538H19.8462V1.46154C19.8462 1.33913 19.7975 1.22174 19.711 1.13518C19.6244 1.04863 19.507 1 19.3846 1H4.61538C4.49298 1 4.37558 1.04863 4.28903 1.13518C4.20247 1.22174 4.15385 1.33913 4.15385 1.46154V5.61538H2.46162C1.10423 5.61538 0 6.65062 0 7.92308V17.1538C0 17.2763 0.0486263 17.3936 0.135182 17.4802C0.221737 17.5668 0.339131 17.6154 0.461538 17.6154H4.15385V22.2308C4.15385 22.3532 4.20247 22.4706 4.28903 22.5571C4.37558 22.6437 4.49298 22.6923 4.61538 22.6923H19.3846C19.507 22.6923 19.6244 22.6437 19.711 22.5571C19.7975 22.4706 19.8462 22.3532 19.8462 22.2308V17.6154H23.5385C23.6609 17.6154 23.7783 17.5668 23.8648 17.4802C23.9514 17.3936 24 17.2763 24 17.1538V7.92308C24 6.65062 22.8958 5.61538 21.5385 5.61538ZM5.07692 1.92308H18.9231V5.61538H5.07692V1.92308ZM18.9231 21.7692H5.07692V14.8462H18.9231V21.7692ZM23.0769 16.6923H19.8462V14.3846C19.8462 14.2622 19.7975 14.1448 19.711 14.0583C19.6244 13.9717 19.507 13.9231 19.3846 13.9231H4.61538C4.49298 13.9231 4.37558 13.9717 4.28903 14.0583C4.20247 14.1448 4.15385 14.2622 4.15385 14.3846V16.6923H0.923077V7.92308C0.923077 7.15958 1.61319 6.53846 2.46162 6.53846H21.5384C22.3869 6.53846 23.0769 7.15958 23.0769 7.92308V16.6923ZM19.8468 10.2308C19.8468 10.4133 19.7927 10.5918 19.6913 10.7436C19.5899 10.8954 19.4457 11.0137 19.277 11.0836C19.1083 11.1534 18.9227 11.1717 18.7437 11.1361C18.5646 11.1005 18.4002 11.0126 18.2711 10.8835C18.142 10.7544 18.054 10.5899 18.0184 10.4109C17.9828 10.2318 18.0011 10.0462 18.071 9.87752C18.1408 9.70885 18.2591 9.56469 18.4109 9.46326C18.5627 9.36183 18.7412 9.30769 18.9238 9.30769C19.1685 9.308 19.4031 9.40535 19.5761 9.57839C19.7492 9.75144 19.8465 9.98605 19.8468 10.2308Z" fill="#212529"/>
</svg>
