<svg width="24" height="24" viewBox="0 0 24 24" fill="none" xmlns="http://www.w3.org/2000/svg">
<path d="M12 1.26316C10.5899 1.26324 9.19369 1.54106 7.891 2.08074C6.5883 2.62043 5.40465 3.41141 4.40764 4.40854C3.41064 5.40566 2.61979 6.5894 2.08026 7.89216C1.54073 9.19492 1.26307 10.5912 1.26316 12.0013C1.26324 13.4113 1.54106 14.8076 2.08074 16.1103C2.62043 17.413 3.41141 18.5966 4.40854 19.5936C5.40566 20.5906 6.5894 21.3815 7.89216 21.921C9.19492 22.4605 10.5912 22.7382 12.0013 22.7381C14.849 22.7379 17.5801 21.6065 19.5936 19.5927C21.6072 17.5789 22.7383 14.8478 22.7381 12C22.7379 9.15224 21.6065 6.42119 19.5927 4.40764C17.5789 2.3941 14.8478 1.26299 12 1.26316ZM12 0C15.1826 0 18.2348 1.26428 20.4853 3.51472C22.7357 5.76515 24 8.8174 24 12C24 15.1826 22.7357 18.2348 20.4853 20.4853C18.2348 22.7357 15.1826 24 12 24C8.8174 24 5.76515 22.7357 3.51472 20.4853C1.26428 18.2348 0 15.1826 0 12C0 8.8174 1.26428 5.76515 3.51472 3.51472C5.76515 1.26428 8.8174 0 12 0ZM11.3684 17.6842H12.6316V20.2105H11.3684V17.6842ZM12 3.78947C13.1725 3.78947 14.297 4.25526 15.1262 5.08437C15.9553 5.91348 16.4211 7.03799 16.4211 8.21053C16.4211 9.34358 15.5381 10.1293 14.6034 10.9592L13.4223 12.0998C12.6796 12.9512 12.5987 14.5693 12.6303 15.1213V15.1579H11.3684C11.3634 15.0922 11.2396 12.6771 12.4724 11.2686L13.7634 10.0156C14.5112 9.35116 15.1579 8.77642 15.1579 8.21053C15.1579 7.373 14.8252 6.56978 14.233 5.97756C13.6407 5.38534 12.8375 5.05263 12 5.05263C11.1625 5.05263 10.3593 5.38534 9.76703 5.97756C9.17481 6.56978 8.8421 7.373 8.8421 8.21053H7.57895C7.57895 7.03799 8.04474 5.91348 8.87384 5.08437C9.70295 4.25526 10.8275 3.78947 12 3.78947Z" fill="#212529"/>
</svg>
