<svg width="24" height="24" viewBox="0 0 24 24" fill="none" xmlns="http://www.w3.org/2000/svg">
<path d="M6.8181 5.06825C6.87621 5.01014 6.9223 4.94116 6.95375 4.86523C6.9852 4.78931 7.00138 4.70794 7.00138 4.62576C7.00138 4.54359 6.9852 4.46222 6.95375 4.38629C6.9223 4.31037 6.87621 4.24139 6.8181 4.18328C6.75999 4.12517 6.69101 4.07908 6.61509 4.04763C6.53917 4.01619 6.45779 4 6.37562 4C6.29344 4 6.21207 4.01619 6.13615 4.04763C6.06023 4.07908 5.99124 4.12517 5.93313 4.18328L3.87572 6.24195L3.06825 5.43323C2.95089 5.31588 2.79173 5.24995 2.62576 5.24995C2.4598 5.24995 2.30064 5.31588 2.18328 5.43323C2.06593 5.55059 2 5.70975 2 5.87572C2 5.95789 2.01619 6.03926 2.04763 6.11519C2.07908 6.19111 2.12517 6.26009 2.18328 6.3182L3.43323 7.56815C3.49129 7.62635 3.56025 7.67253 3.63618 7.70403C3.71211 7.73554 3.79351 7.75176 3.87572 7.75176C3.95792 7.75176 4.03932 7.73554 4.11525 7.70403C4.19118 7.67253 4.26014 7.62635 4.3182 7.56815L6.8181 5.06825ZM10.1255 5.87572C9.95971 5.87572 9.80075 5.94156 9.68354 6.05877C9.56634 6.17597 9.50049 6.33494 9.50049 6.50069C9.50049 6.66644 9.56634 6.82541 9.68354 6.94261C9.80075 7.05982 9.95971 7.12567 10.1255 7.12567H21.375C21.5408 7.12567 21.6997 7.05982 21.8169 6.94261C21.9342 6.82541 22 6.66644 22 6.50069C22 6.33494 21.9342 6.17597 21.8169 6.05877C21.6997 5.94156 21.5408 5.87572 21.375 5.87572H10.1255ZM10.1255 12.1255C9.95971 12.1255 9.80075 12.1913 9.68354 12.3085C9.56634 12.4257 9.50049 12.5847 9.50049 12.7504C9.50049 12.9162 9.56634 13.0752 9.68354 13.1924C9.80075 13.3096 9.95971 13.3754 10.1255 13.3754H21.375C21.5408 13.3754 21.6997 13.3096 21.8169 13.1924C21.9342 13.0752 22 12.9162 22 12.7504C22 12.5847 21.9342 12.4257 21.8169 12.3085C21.6997 12.1913 21.5408 12.1255 21.375 12.1255H10.1255ZM9.50049 19.0002C9.50049 18.8344 9.56634 18.6755 9.68354 18.5583C9.80075 18.4411 9.95971 18.3752 10.1255 18.3752H21.375C21.5408 18.3752 21.6997 18.4411 21.8169 18.5583C21.9342 18.6755 22 18.8344 22 19.0002C22 19.166 21.9342 19.3249 21.8169 19.4421C21.6997 19.5593 21.5408 19.6252 21.375 19.6252H10.1255C9.95971 19.6252 9.80075 19.5593 9.68354 19.4421C9.56634 19.3249 9.50049 19.166 9.50049 19.0002ZM6.8181 11.943C6.93545 11.8256 7.00138 11.6665 7.00138 11.5005C7.00138 11.3345 6.93545 11.1754 6.8181 11.058C6.70075 10.9407 6.54158 10.8747 6.37562 10.8747C6.20965 10.8747 6.05049 10.9407 5.93313 11.058L3.87572 13.1167L3.06825 12.308C2.95089 12.1906 2.79173 12.1247 2.62576 12.1247C2.4598 12.1247 2.30064 12.1906 2.18328 12.308C2.06593 12.4253 2 12.5845 2 12.7504C2 12.9164 2.06593 13.0756 2.18328 13.1929L3.43323 14.4429C3.49129 14.5011 3.56025 14.5473 3.63618 14.5788C3.71211 14.6103 3.79351 14.6265 3.87572 14.6265C3.95792 14.6265 4.03932 14.6103 4.11525 14.5788C4.19118 14.5473 4.26014 14.5011 4.3182 14.4429L6.8181 11.943ZM6.8181 17.3078C6.8763 17.3658 6.92248 17.4348 6.95398 17.5107C6.98549 17.5866 7.00171 17.668 7.00171 17.7502C7.00171 17.8325 6.98549 17.9138 6.95398 17.9898C6.92248 18.0657 6.8763 18.1347 6.8181 18.1927L4.3182 20.6926C4.26014 20.7508 4.19118 20.797 4.11525 20.8285C4.03932 20.86 3.95792 20.8762 3.87572 20.8762C3.79351 20.8762 3.71211 20.86 3.63618 20.8285C3.56025 20.797 3.49129 20.7508 3.43323 20.6926L2.18328 19.4427C2.06593 19.3253 2 19.1662 2 19.0002C2 18.8342 2.06593 18.6751 2.18328 18.5577C2.30064 18.4404 2.4598 18.3744 2.62576 18.3744C2.79173 18.3744 2.95089 18.4404 3.06825 18.5577L3.87572 19.3664L5.93313 17.3078C5.99119 17.2496 6.06016 17.2034 6.13608 17.1719C6.21201 17.1404 6.29341 17.1242 6.37562 17.1242C6.45782 17.1242 6.53922 17.1404 6.61515 17.1719C6.69108 17.2034 6.76004 17.2496 6.8181 17.3078Z" fill="#212529"/>
</svg>
