<svg width="24" height="24" viewBox="0 0 24 24" fill="none" xmlns="http://www.w3.org/2000/svg">
<path fill-rule="evenodd" clip-rule="evenodd" d="M10.7368 1.26316C5.50467 1.26316 1.26316 5.50467 1.26316 10.7368C1.26316 15.969 5.50467 20.2105 10.7368 20.2105C13.3096 20.2105 15.6428 19.185 17.35 17.5204C17.3723 17.4875 17.398 17.4562 17.4271 17.4271C17.4562 17.398 17.4875 17.3723 17.5204 17.35C19.185 15.6428 20.2105 13.3096 20.2105 10.7368C20.2105 5.50467 15.969 1.26316 10.7368 1.26316ZM18.7625 17.8693C20.4491 15.9728 21.4737 13.4745 21.4737 10.7368C21.4737 4.80705 16.6666 0 10.7368 0C4.80705 0 0 4.80705 0 10.7368C0 16.6666 4.80705 21.4737 10.7368 21.4737C13.4745 21.4737 15.9728 20.4491 17.8693 18.7625L22.9218 23.815C23.1685 24.0617 23.5684 24.0617 23.815 23.815C24.0617 23.5684 24.0617 23.1685 23.815 22.9218L18.7625 17.8693Z" fill="#212529"/>
</svg>
