<svg width="24" height="24" viewBox="0 0 24 24" fill="none" xmlns="http://www.w3.org/2000/svg">
<path d="M18.0876 15.6456C17.5062 15.6455 16.9321 15.7753 16.4072 16.0254C15.8823 16.2754 15.4199 16.6395 15.0536 17.091L9.42004 13.4695C9.68825 12.9299 9.82782 12.3356 9.82782 11.7331C9.82782 11.1305 9.68825 10.5362 9.42004 9.99666L15.0536 6.37507C15.6845 7.14894 16.5877 7.65191 17.5778 7.78069C18.5679 7.90947 19.5697 7.65428 20.3775 7.06753C21.1853 6.48078 21.7379 5.607 21.9216 4.62563C22.1053 3.64425 21.9064 2.62977 21.3655 1.79051C20.8247 0.951247 19.9831 0.350903 19.0135 0.112762C18.0439 -0.12538 17.0199 0.0167547 16.1518 0.509978C15.2837 1.0032 14.6374 1.81008 14.3456 2.76491C14.0538 3.71975 14.1386 4.75007 14.5827 5.6443L8.94912 9.26588C8.43948 8.63861 7.74808 8.18456 6.96995 7.96613C6.19182 7.7477 5.36513 7.7756 4.6035 8.04601C3.84187 8.31642 3.18266 8.81605 2.71648 9.47626C2.25029 10.1365 2 10.9248 2 11.7331C2 12.5413 2.25029 13.3296 2.71648 13.9899C3.18266 14.6501 3.84187 15.1497 4.6035 15.4201C5.36513 15.6905 6.19182 15.7184 6.96995 15.5C7.74808 15.2815 8.43948 14.8275 8.94912 14.2002L14.5827 17.8218C14.2054 18.584 14.0868 19.4483 14.2448 20.2839C14.4028 21.1195 14.8288 21.8809 15.4583 22.4527C16.0878 23.0245 16.8865 23.3756 17.7334 23.4528C18.5803 23.5299 19.4293 23.329 20.1518 22.8804C20.8742 22.4318 21.4308 21.76 21.7373 20.9667C22.0437 20.1734 22.0832 19.3018 21.8499 18.484C21.6166 17.6662 21.1231 16.9468 20.4442 16.4346C19.7653 15.9224 18.938 15.6454 18.0876 15.6456ZM18.0876 0.864929C18.6894 0.864929 19.2778 1.0434 19.7782 1.37778C20.2787 1.71216 20.6687 2.18742 20.899 2.74347C21.1293 3.29952 21.1896 3.91138 21.0722 4.50168C20.9548 5.09198 20.6649 5.6342 20.2394 6.05978C19.8138 6.48536 19.2716 6.77519 18.6813 6.89261C18.091 7.01003 17.4791 6.94976 16.9231 6.71944C16.367 6.48912 15.8917 6.09908 15.5574 5.59865C15.223 5.09822 15.0445 4.50987 15.0445 3.908C15.0454 3.1012 15.3663 2.3277 15.9368 1.75721C16.5073 1.18672 17.2808 0.865821 18.0876 0.864929ZM5.91528 14.7761C5.31342 14.7761 4.72507 14.5977 4.22464 14.2633C3.72421 13.9289 3.33417 13.4536 3.10385 12.8976C2.87353 12.3415 2.81326 11.7297 2.93068 11.1394C3.0481 10.5491 3.33792 10.0069 3.7635 9.58128C4.18909 9.15569 4.73131 8.86587 5.32161 8.74845C5.91191 8.63103 6.52377 8.6913 7.07982 8.92162C7.63587 9.15194 8.11113 9.54198 8.44551 10.0424C8.77989 10.5428 8.95836 11.1312 8.95836 11.7331C8.95747 12.5399 8.63657 13.3134 8.06608 13.8839C7.49558 14.4543 6.72208 14.7752 5.91528 14.7761ZM18.0876 22.6012C17.4857 22.6012 16.8974 22.4227 16.3969 22.0883C15.8965 21.754 15.5065 21.2787 15.2762 20.7226C15.0458 20.1666 14.9856 19.5547 15.103 18.9644C15.2204 18.3741 15.5102 17.8319 15.9358 17.4063C16.3614 16.9807 16.9036 16.6909 17.4939 16.5735C18.0842 16.4561 18.6961 16.5163 19.2521 16.7467C19.8082 16.977 20.2834 17.367 20.6178 17.8675C20.9522 18.3679 21.1307 18.9562 21.1307 19.5581C21.1298 20.3649 20.8089 21.1384 20.2384 21.7089C19.6679 22.2794 18.8944 22.6003 18.0876 22.6012Z" fill="#212529"/>
</svg>
