<svg width="24" height="24" viewBox="0 0 24 24" fill="none" xmlns="http://www.w3.org/2000/svg">
<path d="M18.0876 15.6456C17.5062 15.6455 16.9321 15.7753 16.4072 16.0254C15.8823 16.2754 15.4199 16.6395 15.0536 17.091L9.42004 13.4695C9.68825 12.9299 9.82782 12.3356 9.82782 11.7331C9.82782 11.1305 9.68825 10.5362 9.42004 9.99666L15.0536 6.37507C15.6845 7.14894 16.5877 7.65191 17.5778 7.78069C18.5679 7.90947 19.5697 7.65428 20.3775 7.06753C21.1853 6.48078 21.7379 5.607 21.9216 4.62563C22.1053 3.64425 21.9064 2.62977 21.3655 1.79051C20.8247 0.951247 19.9831 0.350903 19.0135 0.112762C18.0439 -0.12538 17.0199 0.0167547 16.1518 0.509978C15.2837 1.0032 14.6374 1.81008 14.3456 2.76491C14.0538 3.71975 14.1386 4.75007 14.5827 5.6443L8.94912 9.26588C8.43948 8.63861 7.74808 8.18456 6.96995 7.96613C6.19182 7.7477 5.36513 7.7756 4.6035 8.04601C3.84187 8.31642 3.18266 8.81605 2.71648 9.47626C2.25029 10.1365 2 10.9248 2 11.7331C2 12.5413 2.25029 13.3296 2.71648 13.9899C3.18266 14.6501 3.84187 15.1497 4.6035 15.4201C5.36513 15.6905 6.19182 15.7184 6.96995 15.5C7.74808 15.2815 8.43948 14.8275 8.94912 14.2002L14.5827 17.8218C14.2054 18.584 14.0868 19.4483 14.2448 20.2839C14.4028 21.1195 14.8288 21.8809 15.4583 22.4527C16.0878 23.0245 16.8865 23.3756 17.7334 23.4528C18.5803 23.5299 19.4293 23.329 20.1518 22.8804C20.8742 22.4318 21.4308 21.76 21.7373 20.9667C22.0437 20.1734 22.0832 19.3018 21.8499 18.484C21.6166 17.6662 21.1231 16.9468 20.4442 16.4346C19.7653 15.9224 18.938 15.6454 18.0876 15.6456Z" fill="#212529"/>
</svg>
