<svg width="24" height="24" viewBox="0 0 24 24" fill="none" xmlns="http://www.w3.org/2000/svg">
<path fill-rule="evenodd" clip-rule="evenodd" d="M3.62885 2.5C3.62885 2.22386 3.85553 2 4.13515 2H12.6791C12.9587 2 13.1854 2.22386 13.1854 2.5V3.21156H17.2797C17.4444 3.21156 17.5988 3.29069 17.6937 3.42369L22.7961 10.5797C22.9198 10.6709 23 10.8166 23 10.9808V15.7837C23 17.4877 21.5903 18.8798 19.8648 18.8798H19.5893C19.2235 20.0928 18.0911 21 16.7101 21C15.3672 21 14.2006 20.12 13.8293 18.8798H10.4318C10.0661 20.0928 8.93367 21 7.55267 21C6.16972 21 5.02998 20.1171 4.66868 18.8798H1.50631C1.22668 18.8798 1 18.656 1 18.3798C1 18.1037 1.22668 17.8798 1.50631 17.8798H4.55291C4.63349 16.3366 5.91917 15.0673 7.55267 15.0673C9.18617 15.0673 10.4718 16.3366 10.5524 17.8798H13.7103C13.7909 16.3366 15.0766 15.0673 16.7101 15.0673C18.3436 15.0673 19.6293 16.3366 19.7099 17.8798H19.8648C21.0311 17.8798 21.9874 16.9354 21.9874 15.7837V11.4808H12.6791C12.3995 11.4808 12.1728 11.2569 12.1728 10.9808V3H4.13515C3.85553 3 3.62885 2.77614 3.62885 2.5ZM21.4871 10.4808L17.017 4.21156H13.1854V10.4808H21.4871ZM3.32205 5.83171C3.32205 5.55557 3.54874 5.33171 3.82836 5.33171H9.30525C9.58488 5.33171 9.81156 5.55557 9.81156 5.83171C9.81156 6.10786 9.58488 6.33172 9.30525 6.33172H3.82836C3.54874 6.33172 3.32205 6.10786 3.32205 5.83171ZM1.96385 9.25005C1.96385 8.97391 2.19053 8.75005 2.47016 8.75005H7.94705C8.22667 8.75005 8.45335 8.97391 8.45335 9.25005C8.45335 9.52619 8.22667 9.75005 7.94705 9.75005H2.47016C2.19053 9.75005 1.96385 9.52619 1.96385 9.25005ZM1.17516 12.6683C1.17516 12.3921 1.40184 12.1683 1.68146 12.1683H7.15835C7.43798 12.1683 7.66466 12.3921 7.66466 12.6683C7.66466 12.9444 7.43798 13.1683 7.15835 13.1683H1.68146C1.40184 13.1683 1.17516 12.9444 1.17516 12.6683ZM7.55267 16.0673C6.43598 16.0673 5.56151 16.9627 5.56151 18.0337C5.56151 19.1421 6.43021 20 7.55267 20C8.66936 20 9.54382 19.1046 9.54382 18.0337C9.54382 16.9627 8.66936 16.0673 7.55267 16.0673ZM16.7101 16.0673C15.5934 16.0673 14.7189 16.9627 14.7189 18.0337C14.7189 19.1364 15.6256 20 16.7101 20C17.8268 20 18.7013 19.1046 18.7013 18.0337C18.7013 16.9627 17.8268 16.0673 16.7101 16.0673Z" fill="#212529"/>
</svg>
