<svg width="24" height="24" viewBox="0 0 24 24" fill="none" xmlns="http://www.w3.org/2000/svg">
<g clip-path="url(#clip0)">
<path d="M17.252 22.9507C16.8991 23.3037 16.4802 23.5836 16.0191 23.7746C15.558 23.9657 15.0639 24.064 14.5648 24.064C14.0657 24.064 13.5715 23.9657 13.1104 23.7746C12.6493 23.5836 12.2304 23.3037 11.8775 22.9507L1.33507 12.6616C0.57 11.9675 0 10.9313 0 9.81667V3.8C0 2.79218 0.400356 1.82563 1.11299 1.11299C1.82563 0.400356 2.79218 0 3.8 0H9.81667C10.9313 0 11.9675 0.571267 12.6616 1.33507L22.8874 11.9409C23.5998 12.6535 24 13.6199 24 14.6275C24 15.6351 23.5998 16.6015 22.8874 17.3141L17.2507 22.9507H17.252ZM16.3552 22.0552L21.9919 16.4185C22.4668 15.9435 22.7336 15.2992 22.7336 14.6275C22.7336 13.9557 22.4668 13.3115 21.9919 12.8364L11.5419 2.0064C11.1163 1.5162 10.5159 1.26667 9.81667 1.26667L3.7658 1.23247C2.36867 1.23247 1.26667 2.40033 1.26667 3.8V9.81667C1.26667 10.5159 1.5162 11.1163 2.0064 11.5419L12.7731 22.0552C13.2481 22.5301 13.8924 22.7969 14.5641 22.7969C15.2359 22.7969 15.8801 22.5301 16.3552 22.0552ZM5.7 2.53333C6.53986 2.53333 7.34531 2.86696 7.93918 3.46083C8.53304 4.0547 8.86667 4.86015 8.86667 5.7C8.86667 6.53986 8.53304 7.34531 7.93918 7.93918C7.34531 8.53304 6.53986 8.86667 5.7 8.86667C4.86015 8.86667 4.0547 8.53304 3.46083 7.93918C2.86696 7.34531 2.53333 6.53986 2.53333 5.7C2.53333 4.86015 2.86696 4.0547 3.46083 3.46083C4.0547 2.86696 4.86015 2.53333 5.7 2.53333ZM5.7 3.8C5.19609 3.8 4.71282 4.00018 4.3565 4.3565C4.00018 4.71282 3.8 5.19609 3.8 5.7C3.8 6.20391 4.00018 6.68719 4.3565 7.04351C4.71282 7.39983 5.19609 7.6 5.7 7.6C6.20391 7.6 6.68719 7.39983 7.04351 7.04351C7.39983 6.68719 7.6 6.20391 7.6 5.7C7.6 5.19609 7.39983 4.71282 7.04351 4.3565C6.68719 4.00018 6.20391 3.8 5.7 3.8Z" fill="#212529"/>
</g>
<defs>
<clipPath id="clip0">
<rect width="24" height="24" fill="white"/>
</clipPath>
</defs>
</svg>
