<svg width="24" height="24" viewBox="0 0 24 24" fill="none" xmlns="http://www.w3.org/2000/svg">
<path fill-rule="evenodd" clip-rule="evenodd" d="M1.66487 16.8227C2.73086 15.7567 4.17666 15.1579 5.68421 15.1579H9.78947C11.297 15.1579 12.7428 15.7567 13.8088 16.8227C14.8748 17.8887 15.4737 19.3345 15.4737 20.8421V23.3684C15.4737 23.7172 15.1909 24 14.8421 24C14.4933 24 14.2105 23.7172 14.2105 23.3684V20.8421C14.2105 19.6695 13.7447 18.545 12.9156 17.7159C12.0865 16.8868 10.962 16.421 9.78947 16.421H5.68421C4.51167 16.421 3.38716 16.8868 2.55805 17.7159C1.72895 18.545 1.26316 19.6695 1.26316 20.8421V23.3684C1.26316 23.7172 0.98039 24 0.631579 24C0.282768 24 0 23.7172 0 23.3684V20.8421C0 19.3345 0.59887 17.8887 1.66487 16.8227Z" fill="#212529"/>
<path fill-rule="evenodd" clip-rule="evenodd" d="M7.5 11.7C9.26731 11.7 10.7 10.2673 10.7 8.5C10.7 6.73269 9.26731 5.3 7.5 5.3C5.73269 5.3 4.3 6.73269 4.3 8.5C4.3 10.2673 5.73269 11.7 7.5 11.7ZM7.5 13C9.98528 13 12 10.9853 12 8.5C12 6.01472 9.98528 4 7.5 4C5.01472 4 3 6.01472 3 8.5C3 10.9853 5.01472 13 7.5 13Z" fill="#212529"/>
<path d="M14.3158 11H17.7895C19.297 11 20.7428 11.5989 21.8088 12.6649C22.8748 13.7309 23.4737 15.1767 23.4737 16.6842V19.2105C23.4737 19.5593 23.1909 19.8421 22.8421 19.8421C22.4933 19.8421 22.2105 19.5593 22.2105 19.2105V16.6842C22.2105 15.5117 21.7447 14.3872 20.9156 13.5581C20.0865 12.7289 18.962 12.2632 17.7895 12.2632H14.3158C13.967 12.2632 13.6842 11.9804 13.6842 11.6316C13.6842 11.2828 13.967 11 14.3158 11Z" fill="#212529"/>
<path fill-rule="evenodd" clip-rule="evenodd" d="M17 7.7C18.7673 7.7 20.2 6.26731 20.2 4.5C20.2 2.73269 18.7673 1.3 17 1.3C15.2327 1.3 13.8 2.73269 13.8 4.5C13.8 6.26731 15.2327 7.7 17 7.7ZM17 9C19.4853 9 21.5 6.98528 21.5 4.5C21.5 2.01472 19.4853 0 17 0C14.5147 0 12.5 2.01472 12.5 4.5C12.5 6.98528 14.5147 9 17 9Z" fill="#212529"/>
</svg>
