<svg width="24" height="24" viewBox="0 0 24 24" fill="none" xmlns="http://www.w3.org/2000/svg">
<path fill-rule="evenodd" clip-rule="evenodd" d="M11.7368 1.26316C9.29516 1.26316 7.31579 3.24253 7.31579 5.68421C7.31579 8.12589 9.29516 10.1053 11.7368 10.1053C14.1785 10.1053 16.1579 8.12589 16.1579 5.68421C16.1579 3.24253 14.1785 1.26316 11.7368 1.26316ZM6.05263 5.68421C6.05263 2.54491 8.59754 0 11.7368 0C14.8761 0 17.4211 2.54491 17.4211 5.68421C17.4211 8.82351 14.8761 11.3684 11.7368 11.3684C8.59754 11.3684 6.05263 8.82351 6.05263 5.68421ZM2.66487 16.8228C3.73086 15.7568 5.17666 15.1579 6.68421 15.1579H16.7895C18.297 15.1579 19.7428 15.7568 20.8088 16.8228C21.8748 17.8888 22.4737 19.3346 22.4737 20.8421V23.3684C22.4737 23.7172 22.1909 24 21.8421 24C21.4933 24 21.2105 23.7172 21.2105 23.3684V20.8421C21.2105 19.6696 20.7447 18.5451 19.9156 17.716C19.0865 16.8868 17.962 16.4211 16.7895 16.4211H6.68421C5.51167 16.4211 4.38716 16.8868 3.55805 17.716C2.72895 18.5451 2.26316 19.6696 2.26316 20.8421V23.3684C2.26316 23.7172 1.98039 24 1.63158 24C1.28277 24 1 23.7172 1 23.3684V20.8421C1 19.3346 1.59887 17.8888 2.66487 16.8228Z" fill="#212529"/>
</svg>
