<svg width="34" height="10" viewBox="0 0 34 10" fill="none" xmlns="http://www.w3.org/2000/svg">
<path fill-rule="evenodd" clip-rule="evenodd" d="M21.9788 2.02557C22.8829 2.0126 23.5387 2.19978 24.049 2.39437L24.2973 2.50741L24.6698 0.405856C24.1227 0.211268 23.2671 0 22.198 0C19.4662 0 17.5416 1.31579 17.526 3.19681C17.5086 4.59044 18.8958 5.36509 19.9474 5.82839C21.0242 6.30467 21.3832 6.60675 21.3812 7.03113C21.3696 7.68162 20.5217 7.97813 19.7262 7.97813C18.6203 7.97813 18.0344 7.83173 17.1244 7.4685L16.7694 7.31653L16.3813 9.4848C17.0294 9.75352 18.2226 9.98703 19.4624 10C22.3688 10 24.2566 8.69904 24.274 6.69014C24.2857 5.58747 23.5484 4.74796 21.9536 4.05856C20.9874 3.61008 20.3956 3.30986 20.3995 2.85582C20.3956 2.45367 20.8981 2.02557 21.9788 2.02557ZM4.32082 0.0854492C4.899 0.105835 5.36464 0.283744 5.52374 0.87307L6.45503 5.14846C5.54314 2.90976 3.3352 1.05098 0 0.280038L0.0368637 0.0854492H4.32082ZM13.6129 0.166992L11.888 9.85194H14.6489L16.3776 0.166992H13.6129ZM9.57073 0.17627L6.86221 6.78302L6.57312 5.78598C6.03569 4.58694 4.5204 2.85789 2.74512 1.7719L5.21887 9.84825L8.14274 9.84454L12.4985 0.17627H9.57073ZM29.627 0.17627H31.7632L33.9983 9.86122H31.4372C31.4372 9.86122 31.1811 8.74558 31.0996 8.41015C30.8853 8.41015 29.9887 8.4091 29.1482 8.40812C28.4063 8.40726 27.7081 8.40644 27.5607 8.40644C27.454 8.66404 26.9806 9.85937 26.9806 9.85937H24.0781L28.1797 0.982422C28.4726 0.350473 28.9635 0.17627 29.627 0.17627ZM29.4582 3.71408C29.4582 3.71408 28.5832 5.86752 28.3543 6.42164H30.6534C30.5428 5.93795 30.0131 3.62512 30.0131 3.62512L29.8249 2.79117C29.7539 2.97348 29.6578 3.21228 29.5818 3.40142C29.5063 3.58912 29.4505 3.72792 29.4582 3.71408Z" fill="#212529"/>
</svg>
