<svg width="24" height="24" viewBox="0 0 24 24" fill="none" xmlns="http://www.w3.org/2000/svg">
<path fill-rule="evenodd" clip-rule="evenodd" d="M1.1128 11.8696C1.13011 11.901 1.14921 11.9354 1.17009 11.9725C1.29391 12.1926 1.48003 12.5095 1.72633 12.8909C2.21958 13.6546 2.95079 14.6717 3.90238 15.6867C5.81508 17.7269 8.5563 19.6957 12.0001 19.6957C15.4438 19.6957 18.185 17.7269 20.0977 15.6867C21.0493 14.6717 21.7805 13.6546 22.2738 12.8909C22.5201 12.5095 22.7062 12.1926 22.83 11.9725C22.8509 11.9354 22.87 11.901 22.8873 11.8696C22.87 11.8382 22.8509 11.8038 22.83 11.7667C22.7062 11.5466 22.5201 11.2297 22.2738 10.8483C21.7805 10.0846 21.0493 9.06754 20.0977 8.05251C18.185 6.01231 15.4438 4.04348 12.0001 4.04348C8.5563 4.04348 5.81508 6.01231 3.90238 8.05251C2.95079 9.06754 2.21958 10.0846 1.72633 10.8483C1.48003 11.2297 1.29391 11.5466 1.17009 11.7667C1.14921 11.8038 1.13011 11.8382 1.1128 11.8696ZM23.4784 11.8696C23.945 11.6363 23.9449 11.6361 23.9448 11.6359L23.9436 11.6335L23.9407 11.6276L23.9302 11.6071C23.9211 11.5895 23.908 11.5643 23.8909 11.5318C23.8565 11.467 23.806 11.3734 23.7395 11.2551C23.6065 11.0187 23.4095 10.6834 23.1503 10.2822C22.6327 9.48071 21.8639 8.41077 20.859 7.33883C18.8586 5.20511 15.8607 3 12.0001 3C8.13942 3 5.14149 5.20511 3.14112 7.33883C2.13618 8.41077 1.36739 9.48071 0.849766 10.2822C0.590631 10.6834 0.393594 11.0187 0.260619 11.2551C0.194112 11.3734 0.143571 11.467 0.109244 11.5318C0.0920793 11.5643 0.0789631 11.5895 0.069927 11.6071L0.0594346 11.6276L0.0564894 11.6335L0.0555932 11.6353C0.0554814 11.6355 0.0550817 11.6363 0.521741 11.8696L0.0550817 11.6363C-0.0183606 11.7832 -0.0183606 11.956 0.0550817 12.1029L0.521741 11.8696C0.0550817 12.1029 0.0549699 12.1027 0.0550817 12.1029L0.0555932 12.104L0.0564894 12.1057L0.0594346 12.1116L0.069927 12.1321C0.0789631 12.1497 0.0920793 12.1749 0.109244 12.2074C0.143571 12.2723 0.194112 12.3659 0.260619 12.4841C0.393594 12.7205 0.590631 13.0558 0.849766 13.457C1.36739 14.2585 2.13618 15.3284 3.14112 16.4004C5.14149 18.5341 8.13942 20.7392 12.0001 20.7392C15.8607 20.7392 18.8586 18.5341 20.859 16.4004C21.8639 15.3284 22.6327 14.2585 23.1503 13.457C23.4095 13.0558 23.6065 12.7205 23.7395 12.4841C23.806 12.3659 23.8565 12.2723 23.8909 12.2074C23.908 12.1749 23.9211 12.1497 23.9302 12.1321L23.9407 12.1116L23.9436 12.1057L23.9445 12.104C23.9446 12.1037 23.945 12.1029 23.4784 11.8696ZM23.4784 11.8696L23.945 12.1029C24.0185 11.956 24.0183 11.7827 23.9448 11.6359L23.4784 11.8696ZM12.0001 9.2609C10.5593 9.2609 9.39135 10.4289 9.39135 11.8696C9.39135 13.3104 10.5593 14.4783 12.0001 14.4783C13.4408 14.4783 14.6088 13.3104 14.6088 11.8696C14.6088 10.4289 13.4408 9.2609 12.0001 9.2609ZM8.34786 11.8696C8.34786 9.85255 9.983 8.21741 12.0001 8.21741C14.0171 8.21741 15.6522 9.85255 15.6522 11.8696C15.6522 13.8867 14.0171 15.5218 12.0001 15.5218C9.983 15.5218 8.34786 13.8867 8.34786 11.8696Z" fill="#212529"/>
</svg>
