<svg width="28" height="28" viewBox="0 0 28 28" fill="none" xmlns="http://www.w3.org/2000/svg">
<path d="M4.00401 23.9999L5.35601 19.0319C4.46515 17.5047 3.99711 15.7679 4.00001 13.9999C4.00001 8.47688 8.47701 3.99988 14 3.99988C19.523 3.99988 24 8.47688 24 13.9999C24 19.5229 19.523 23.9999 14 23.9999C12.2328 24.0027 10.4967 23.535 8.97001 22.6449L4.00401 23.9999ZM10.391 9.30787C10.2619 9.31589 10.1357 9.34991 10.02 9.40787C9.91153 9.4693 9.81251 9.5461 9.72601 9.63587C9.60601 9.74887 9.53801 9.84687 9.46501 9.94187C9.09542 10.4229 8.89662 11.0133 8.90001 11.6199C8.90201 12.1099 9.03001 12.5869 9.23001 13.0329C9.63901 13.9349 10.312 14.8899 11.201 15.7749C11.415 15.9879 11.624 16.2019 11.849 16.4009C12.9524 17.3723 14.2673 18.0729 15.689 18.4469L16.258 18.5339C16.443 18.5439 16.628 18.5299 16.814 18.5209C17.1052 18.5058 17.3896 18.427 17.647 18.2899C17.778 18.2224 17.9058 18.149 18.03 18.0699C18.03 18.0699 18.073 18.0419 18.155 17.9799C18.29 17.8799 18.373 17.8089 18.485 17.6919C18.568 17.6059 18.64 17.5049 18.695 17.3899C18.773 17.2269 18.851 16.9159 18.883 16.6569C18.907 16.4589 18.9 16.3509 18.897 16.2839C18.893 16.1769 18.804 16.0659 18.707 16.0189L18.125 15.7579C18.125 15.7579 17.255 15.3789 16.724 15.1369C16.668 15.1125 16.608 15.0986 16.547 15.0959C16.4786 15.0888 16.4095 15.0965 16.3443 15.1184C16.2791 15.1404 16.2193 15.176 16.169 15.2229V15.2209C16.164 15.2209 16.097 15.2779 15.374 16.1539C15.3325 16.2096 15.2753 16.2518 15.2098 16.2749C15.1443 16.2981 15.0733 16.3012 15.006 16.2839C14.9408 16.2664 14.877 16.2444 14.815 16.2179C14.691 16.1659 14.648 16.1459 14.563 16.1089L14.558 16.1069C13.9859 15.8571 13.4562 15.5197 12.988 15.1069C12.862 14.9969 12.745 14.8769 12.625 14.7609C12.2316 14.3841 11.8887 13.9579 11.605 13.4929L11.546 13.3979C11.5036 13.334 11.4694 13.2652 11.444 13.1929C11.406 13.0459 11.505 12.9279 11.505 12.9279C11.505 12.9279 11.748 12.6619 11.861 12.5179C11.9551 12.3982 12.0429 12.2737 12.124 12.1449C12.242 11.9549 12.279 11.7599 12.217 11.6089C11.937 10.9249 11.647 10.2439 11.349 9.56787C11.29 9.43387 11.115 9.33787 10.956 9.31887C10.902 9.31287 10.848 9.30687 10.794 9.30287C10.6597 9.2962 10.5251 9.29754 10.391 9.30687V9.30787Z" fill="#212529"/>
</svg>
